<svg width="257" height="24" viewBox="0 0 257 24" fill="none" xmlns="http://www.w3.org/2000/svg">
<path d="M4.39 10.34H12.58C13.58 10.34 14.36 10.11 14.92 9.65C15.48 9.19 15.76 8.55 15.76 7.73C15.76 6.89 15.48 6.25 14.92 5.81C14.36 5.35 13.58 5.12 12.58 5.12H3.52L6.31 2.15V23H0.1V0.499998H13.45C15.17 0.499998 16.67 0.809998 17.95 1.43C19.23 2.03 20.23 2.87 20.95 3.95C21.67 5.01 22.03 6.27 22.03 7.73C22.03 9.15 21.67 10.4 20.95 11.48C20.23 12.56 19.23 13.4 17.95 14C16.67 14.6 15.17 14.9 13.45 14.9H4.39V10.34ZM7.75 12.47H14.74L22.81 23H15.61L7.75 12.47ZM37.7139 23.48C35.0539 23.48 32.7139 22.99 30.6939 22.01C28.6939 21.03 27.1339 19.66 26.0139 17.9C24.9139 16.14 24.3639 14.09 24.3639 11.75C24.3639 9.41 24.9139 7.36 26.0139 5.6C27.1339 3.84 28.6939 2.47 30.6939 1.49C32.7139 0.509999 35.0539 0.019999 37.7139 0.019999C40.3939 0.019999 42.7339 0.509999 44.7339 1.49C46.7339 2.47 48.2939 3.84 49.4139 5.6C50.5339 7.36 51.0939 9.41 51.0939 11.75C51.0939 14.09 50.5339 16.14 49.4139 17.9C48.2939 19.66 46.7339 21.03 44.7339 22.01C42.7339 22.99 40.3939 23.48 37.7139 23.48ZM37.7139 17.93C39.1739 17.93 40.4339 17.68 41.4939 17.18C42.5539 16.68 43.3639 15.97 43.9239 15.05C44.5039 14.13 44.7939 13.03 44.7939 11.75C44.7939 10.47 44.5039 9.37 43.9239 8.45C43.3639 7.53 42.5539 6.82 41.4939 6.32C40.4339 5.82 39.1739 5.57 37.7139 5.57C36.2739 5.57 35.0239 5.82 33.9639 6.32C32.9039 6.82 32.0839 7.53 31.5039 8.45C30.9239 9.37 30.6339 10.47 30.6339 11.75C30.6339 13.03 30.9239 14.13 31.5039 15.05C32.0839 15.97 32.9039 16.68 33.9639 17.18C35.0239 17.68 36.2739 17.93 37.7139 17.93ZM69.2755 11.99L69.7855 10.82C71.5255 10.86 72.9555 11.13 74.0755 11.63C75.2155 12.11 76.0655 12.79 76.6255 13.67C77.1855 14.53 77.4655 15.53 77.4655 16.67C77.4655 17.89 77.1855 18.98 76.6255 19.94C76.0655 20.88 75.2255 21.63 74.1055 22.19C73.0055 22.73 71.6255 23 69.9655 23H53.3455L55.0855 11.45L53.3455 0.499998H69.3655C71.4455 0.499998 73.0655 0.989998 74.2255 1.97C75.3855 2.93 75.9655 4.27 75.9655 5.99C75.9655 6.93 75.7455 7.83 75.3055 8.69C74.8655 9.55 74.1555 10.28 73.1755 10.88C72.2155 11.46 70.9155 11.83 69.2755 11.99ZM59.4955 21.56L57.0955 18.65H68.2855C69.1855 18.65 69.8855 18.43 70.3855 17.99C70.8855 17.55 71.1355 16.94 71.1355 16.16C71.1355 15.38 70.8655 14.76 70.3255 14.3C69.7855 13.82 68.9855 13.58 67.9255 13.58H58.6855V9.32H67.0855C67.8055 9.32 68.4055 9.11 68.8855 8.69C69.3855 8.25 69.6355 7.66 69.6355 6.92C69.6355 6.32 69.4255 5.83 69.0055 5.45C68.5855 5.05 67.9855 4.85 67.2055 4.85H57.1255L59.4955 1.94L61.0255 11.45L59.4955 21.56ZM99.7499 9.5V14H83.2799V9.5H99.7499ZM87.5099 11.75L86.0399 20.78L83.5199 17.96H100.74V23H79.8299L81.5399 11.75L79.8299 0.499998H100.59V5.54H83.5199L86.0399 2.72L87.5099 11.75ZM116.347 23.48C113.687 23.48 111.347 22.99 109.327 22.01C107.327 21.03 105.767 19.66 104.647 17.9C103.547 16.14 102.997 14.09 102.997 11.75C102.997 9.41 103.547 7.36 104.647 5.6C105.767 3.84 107.327 2.47 109.327 1.49C111.347 0.509999 113.687 0.019999 116.347 0.019999C119.027 0.019999 121.367 0.509999 123.367 1.49C125.367 2.47 126.927 3.84 128.047 5.6C129.167 7.36 129.727 9.41 129.727 11.75C129.727 14.09 129.167 16.14 128.047 17.9C126.927 19.66 125.367 21.03 123.367 22.01C121.367 22.99 119.027 23.48 116.347 23.48ZM116.347 17.93C117.807 17.93 119.067 17.68 120.127 17.18C121.187 16.68 121.997 15.97 122.557 15.05C123.137 14.13 123.427 13.03 123.427 11.75C123.427 10.47 123.137 9.37 122.557 8.45C121.997 7.53 121.187 6.82 120.127 6.32C119.067 5.82 117.807 5.57 116.347 5.57C114.907 5.57 113.657 5.82 112.597 6.32C111.537 6.82 110.717 7.53 110.137 8.45C109.557 9.37 109.267 10.47 109.267 11.75C109.267 13.03 109.557 14.13 110.137 15.05C110.717 15.97 111.537 16.68 112.597 17.18C113.657 17.68 114.907 17.93 116.347 17.93ZM138.842 12.95C138.842 13.97 139.032 14.86 139.412 15.62C139.812 16.36 140.392 16.93 141.152 17.33C141.932 17.73 142.882 17.93 144.002 17.93C145.142 17.93 146.092 17.73 146.852 17.33C147.612 16.93 148.182 16.36 148.562 15.62C148.942 14.86 149.132 13.97 149.132 12.95V0.499998H155.372V13.25C155.372 15.31 154.892 17.11 153.932 18.65C152.992 20.17 151.672 21.36 149.972 22.22C148.272 23.06 146.282 23.48 144.002 23.48C141.742 23.48 139.752 23.06 138.032 22.22C136.332 21.36 135.002 20.17 134.042 18.65C133.102 17.11 132.632 15.31 132.632 13.25V0.499998H138.842V12.95ZM166.32 3.23H172.56V23H166.32V3.23ZM157.74 0.499998H181.14V6.02H157.74V0.499998ZM190.031 0.499998V20.24L187.241 17.48H204.071V23H183.821V0.499998H190.031ZM225.961 9.5V14H209.491V9.5H225.961ZM213.721 11.75L212.251 20.78L209.731 17.96H226.951V23H206.041L207.751 11.75L206.041 0.499998H226.801V5.54H209.731L212.251 2.72L213.721 11.75ZM237.336 3.23H243.576V23H237.336V3.23ZM228.756 0.499998H252.156V6.02H228.756V0.499998ZM253.398 23.3C252.758 23.3 252.168 23.15 251.628 22.85C251.108 22.55 250.698 22.14 250.398 21.62C250.098 21.08 249.948 20.49 249.948 19.85C249.948 19.21 250.098 18.63 250.398 18.11C250.698 17.59 251.108 17.18 251.628 16.88C252.168 16.56 252.758 16.4 253.398 16.4C254.058 16.4 254.648 16.56 255.168 16.88C255.688 17.18 256.098 17.59 256.398 18.11C256.698 18.63 256.848 19.21 256.848 19.85C256.848 20.49 256.698 21.08 256.398 21.62C256.098 22.14 255.688 22.55 255.168 22.85C254.648 23.15 254.058 23.3 253.398 23.3Z" fill="#DDD8D8"/>
</svg>
