<svg width="207" height="20" viewBox="0 0 207 20" fill="none" xmlns="http://www.w3.org/2000/svg">
<path d="M4.112 8.872H10.664C11.464 8.872 12.088 8.688 12.536 8.32C12.984 7.952 13.208 7.44 13.208 6.784C13.208 6.112 12.984 5.6 12.536 5.248C12.088 4.88 11.464 4.696 10.664 4.696H3.416L5.648 2.32V19H0.68V0.999999H11.36C12.736 0.999999 13.936 1.248 14.96 1.744C15.984 2.224 16.784 2.896 17.36 3.76C17.936 4.608 18.224 5.616 18.224 6.784C18.224 7.92 17.936 8.92 17.36 9.784C16.784 10.648 15.984 11.32 14.96 11.8C13.936 12.28 12.736 12.52 11.36 12.52H4.112V8.872ZM6.8 10.576H12.392L18.848 19H13.088L6.8 10.576ZM30.7711 19.384C28.6431 19.384 26.7711 18.992 25.1551 18.208C23.5551 17.424 22.3071 16.328 21.4111 14.92C20.5311 13.512 20.0911 11.872 20.0911 10C20.0911 8.128 20.5311 6.488 21.4111 5.08C22.3071 3.672 23.5551 2.576 25.1551 1.792C26.7711 1.008 28.6431 0.615999 30.7711 0.615999C32.9151 0.615999 34.7871 1.008 36.3871 1.792C37.9871 2.576 39.2351 3.672 40.1311 5.08C41.0271 6.488 41.4751 8.128 41.4751 10C41.4751 11.872 41.0271 13.512 40.1311 14.92C39.2351 16.328 37.9871 17.424 36.3871 18.208C34.7871 18.992 32.9151 19.384 30.7711 19.384ZM30.7711 14.944C31.9391 14.944 32.9471 14.744 33.7951 14.344C34.6431 13.944 35.2911 13.376 35.7391 12.64C36.2031 11.904 36.4351 11.024 36.4351 10C36.4351 8.976 36.2031 8.096 35.7391 7.36C35.2911 6.624 34.6431 6.056 33.7951 5.656C32.9471 5.256 31.9391 5.056 30.7711 5.056C29.6191 5.056 28.6191 5.256 27.7711 5.656C26.9231 6.056 26.2671 6.624 25.8031 7.36C25.3391 8.096 25.1071 8.976 25.1071 10C25.1071 11.024 25.3391 11.904 25.8031 12.64C26.2671 13.376 26.9231 13.944 27.7711 14.344C28.6191 14.744 29.6191 14.944 30.7711 14.944ZM56.0204 10.192L56.4284 9.256C57.8204 9.288 58.9644 9.504 59.8604 9.904C60.7724 10.288 61.4524 10.832 61.9004 11.536C62.3484 12.224 62.5724 13.024 62.5724 13.936C62.5724 14.912 62.3484 15.784 61.9004 16.552C61.4524 17.304 60.7804 17.904 59.8844 18.352C59.0044 18.784 57.9004 19 56.5724 19H43.2764L44.6684 9.76L43.2764 0.999999H56.0924C57.7564 0.999999 59.0524 1.392 59.9804 2.176C60.9084 2.944 61.3724 4.016 61.3724 5.392C61.3724 6.144 61.1964 6.864 60.8444 7.552C60.4924 8.24 59.9244 8.824 59.1404 9.304C58.3724 9.768 57.3324 10.064 56.0204 10.192ZM48.1964 17.848L46.2764 15.52H55.2284C55.9484 15.52 56.5084 15.344 56.9084 14.992C57.3084 14.64 57.5084 14.152 57.5084 13.528C57.5084 12.904 57.2924 12.408 56.8604 12.04C56.4284 11.656 55.7884 11.464 54.9404 11.464H47.5484V8.056H54.2684C54.8444 8.056 55.3244 7.888 55.7084 7.552C56.1084 7.2 56.3084 6.728 56.3084 6.136C56.3084 5.656 56.1404 5.264 55.8044 4.96C55.4684 4.64 54.9884 4.48 54.3644 4.48H46.3004L48.1964 2.152L49.4204 9.76L48.1964 17.848ZM80.3999 8.2V11.8H67.2239V8.2H80.3999ZM70.6079 10L69.4319 17.224L67.4159 14.968H81.1919V19H64.4639L65.8319 10L64.4639 0.999999H81.0719V5.032H67.4159L69.4319 2.776L70.6079 10ZM93.6774 19.384C91.5494 19.384 89.6774 18.992 88.0614 18.208C86.4614 17.424 85.2134 16.328 84.3174 14.92C83.4374 13.512 82.9974 11.872 82.9974 10C82.9974 8.128 83.4374 6.488 84.3174 5.08C85.2134 3.672 86.4614 2.576 88.0614 1.792C89.6774 1.008 91.5494 0.615999 93.6774 0.615999C95.8214 0.615999 97.6934 1.008 99.2934 1.792C100.893 2.576 102.141 3.672 103.037 5.08C103.933 6.488 104.381 8.128 104.381 10C104.381 11.872 103.933 13.512 103.037 14.92C102.141 16.328 100.893 17.424 99.2934 18.208C97.6934 18.992 95.8214 19.384 93.6774 19.384ZM93.6774 14.944C94.8454 14.944 95.8534 14.744 96.7014 14.344C97.5494 13.944 98.1974 13.376 98.6454 12.64C99.1094 11.904 99.3414 11.024 99.3414 10C99.3414 8.976 99.1094 8.096 98.6454 7.36C98.1974 6.624 97.5494 6.056 96.7014 5.656C95.8534 5.256 94.8454 5.056 93.6774 5.056C92.5254 5.056 91.5254 5.256 90.6774 5.656C89.8294 6.056 89.1734 6.624 88.7094 7.36C88.2454 8.096 88.0134 8.976 88.0134 10C88.0134 11.024 88.2454 11.904 88.7094 12.64C89.1734 13.376 89.8294 13.944 90.6774 14.344C91.5254 14.744 92.5254 14.944 93.6774 14.944ZM111.674 10.96C111.674 11.776 111.826 12.488 112.13 13.096C112.45 13.688 112.914 14.144 113.522 14.464C114.146 14.784 114.906 14.944 115.802 14.944C116.714 14.944 117.474 14.784 118.082 14.464C118.69 14.144 119.146 13.688 119.45 13.096C119.754 12.488 119.906 11.776 119.906 10.96V0.999999H124.898V11.2C124.898 12.848 124.514 14.288 123.746 15.52C122.994 16.736 121.938 17.688 120.578 18.376C119.218 19.048 117.626 19.384 115.802 19.384C113.994 19.384 112.402 19.048 111.026 18.376C109.666 17.688 108.602 16.736 107.834 15.52C107.082 14.288 106.706 12.848 106.706 11.2V0.999999H111.674V10.96ZM133.656 3.184H138.648V19H133.656V3.184ZM126.792 0.999999H145.512V5.416H126.792V0.999999ZM152.625 0.999999V16.792L150.393 14.584H163.857V19H147.657V0.999999H152.625ZM181.369 8.2V11.8H168.193V8.2H181.369ZM171.577 10L170.401 17.224L168.385 14.968H182.161V19H165.433L166.801 10L165.433 0.999999H182.041V5.032H168.385L170.401 2.776L171.577 10ZM190.468 3.184H195.46V19H190.468V3.184ZM183.604 0.999999H202.324V5.416H183.604V0.999999ZM203.319 19.24C202.807 19.24 202.335 19.12 201.903 18.88C201.487 18.64 201.159 18.312 200.919 17.896C200.679 17.464 200.559 16.992 200.559 16.48C200.559 15.968 200.679 15.504 200.919 15.088C201.159 14.672 201.487 14.344 201.903 14.104C202.335 13.848 202.807 13.72 203.319 13.72C203.847 13.72 204.319 13.848 204.735 14.104C205.151 14.344 205.479 14.672 205.719 15.088C205.959 15.504 206.079 15.968 206.079 16.48C206.079 16.992 205.959 17.464 205.719 17.896C205.479 18.312 205.151 18.64 204.735 18.88C204.319 19.12 203.847 19.24 203.319 19.24Z" fill="#303030"/>
</svg>
