<svg width="137" height="253" viewBox="0 0 137 253" fill="none" xmlns="http://www.w3.org/2000/svg">
<path d="M137 0H0V253H137V0Z" fill="url(#paint0_linear_523_83)"/>
<path d="M134 0H3V249H134V0Z" fill="#C8C6C6"/>
<path d="M116.035 12H20.6738V238H116.035V12Z" fill="#DDDDDD"/>
<path d="M115.195 21H21.5142L3.01419 9H133.695L115.195 21Z" fill="#B9B7B7"/>
<path d="M133.695 62H3.01419V65H133.695V62Z" fill="white"/>
<path d="M119.567 70.9085H16.7083L3.01419 64.8362H133.437L119.567 70.9085Z" fill="#C6C6C6"/>
<path style="mix-blend-mode:multiply" opacity="0.5" d="M133.106 65H3.01419L16.7083 71.0106H118.979L133.106 65Z" fill="url(#paint1_linear_523_83)"/>
<path style="mix-blend-mode:multiply" d="M119.567 71H17.1418V87H119.567V71Z" fill="url(#paint2_linear_523_83)"/>
<path style="mix-blend-mode:multiply" d="M130.099 82H4.98475L1.83691 65H133.695L130.099 82Z" fill="url(#paint3_linear_523_83)"/>
<path d="M133.695 201H3.01419V204H133.695V201Z" fill="white"/>
<path d="M119.567 209.909H16.7083L3.01419 203.836H133.437L119.567 209.909Z" fill="#C6C6C6"/>
<path style="mix-blend-mode:multiply" opacity="0.5" d="M133.106 204H3.01419L16.7083 210.011H118.979L133.106 204Z" fill="url(#paint4_linear_523_83)"/>
<path style="mix-blend-mode:multiply" d="M119.567 210H17.1418V226H119.567V210Z" fill="url(#paint5_linear_523_83)"/>
<path style="mix-blend-mode:multiply" d="M130.099 221H4.98475L1.83691 204H133.695L130.099 221Z" fill="url(#paint6_linear_523_83)"/>
<path d="M3 8.99999L134 9L134 6.00001L3 6L3 8.99999Z" fill="white"/>
<path d="M16.9314 8.43603e-07L120.245 8.51536e-06L134 6L3.00018 5.99999L16.9314 8.43603e-07Z" fill="#C6C6C6"/>
<path style="mix-blend-mode:multiply" opacity="0.5" d="M4.00018 5.99999L134 6L120.316 8.52058e-06L18.1178 9.31702e-07L4.00018 5.99999Z" fill="url(#paint7_linear_523_83)"/>
<path d="M5.26932 109.349H4.25879V138.248H5.26932V109.349Z" fill="#CECECE"/>
<path d="M133.149 109H4.14893V162H133.149V109Z" fill="#565454"/>
<path d="M133.07 110.182H3.42123V136.118H133.07V110.182Z" fill="#F4F4EF"/>
<path d="M133.07 136.32H3.42123V162.255H133.07V136.32Z" fill="#F4F4EF"/>
<path d="M131.071 136.396H3.16309V162.571H131.071V136.396Z" fill="url(#paint8_linear_523_83)"/>
<path d="M132.812 110.222H3.16309V136.157H132.812V110.222Z" fill="url(#paint9_linear_523_83)"/>
<path d="M133.07 162.457H3.42123V163.265H133.07V162.457Z" fill="white"/>
<path d="M131.414 137.128H3.42123V136.32H133.07L131.414 137.128Z" fill="white"/>
<path d="M133.07 110.182H3.42123V110.99H133.07V110.182Z" fill="white"/>
<g style="mix-blend-mode:multiply">
<path d="M133.07 136.118H3.42123V135.303H131.414L133.07 136.118Z" fill="#D3D1CF"/>
</g>
<g style="mix-blend-mode:multiply">
<path d="M133.07 162.255H3.42123V161.447L131.414 161.512L133.07 162.255Z" fill="#D3D1CF"/>
</g>
<path d="M5.07678 135.303L3.42123 136.118V110.182H5.07678V135.303Z" fill="white"/>
<path d="M5.07678 161.512L3.42123 162.32V136.385H5.07678V161.512Z" fill="white"/>
<g style="mix-blend-mode:multiply">
<path d="M131.413 135.303L133.069 136.118V110.182L131.413 111.388V135.303Z" fill="#F4F4EF"/>
</g>
<g style="mix-blend-mode:multiply">
<path d="M131.413 161.512L133.069 162.32V136.32L131.413 137.128V161.512Z" fill="white"/>
</g>
<path d="M133.07 135.929H3.35684V136.294H133.07V135.929Z" fill="url(#paint10_linear_523_83)"/>
<g style="mix-blend-mode:multiply">
<path d="M133.07 110.182H3.35684V110.547H133.07V110.182Z" fill="url(#paint11_linear_523_83)"/>
<path d="M60.1836 114.567C59.5474 114.594 58.9093 114.532 58.3185 114.387C57.7278 114.241 57.2 114.015 56.7758 113.726L53.7549 110.554H82.4475L79.3514 113.583C78.9886 113.904 78.4954 114.164 77.9192 114.336C77.3431 114.508 76.7034 114.588 76.0618 114.567H60.1836Z" fill="white"/>
</g>
<path d="M132.962 162.033H3.24933V162.398H132.962V162.033Z" fill="url(#paint12_linear_523_83)"/>
<path d="M133.07 106H3.35684V110.182H133.07V106Z" fill="#F4F3F2"/>
<g style="mix-blend-mode:multiply">
<path d="M133.07 109.551H3.35684V110.182H133.07V109.551Z" fill="#D3D1CF"/>
</g>
<path opacity="0.3" d="M131.415 111.388H80.2755L81.1247 110.541H133.102L131.415 111.388Z" fill="white"/>
<path opacity="0.3" d="M4.74338 111.388H55.6246L54.829 110.541H3.16309L4.74338 111.388Z" fill="white"/>
<path d="M80.8652 122H54.9645V124H80.8652V122Z" fill="url(#paint13_linear_523_83)"/>
<path d="M80.8652 148H54.9645V150H80.8652V148Z" fill="url(#paint14_linear_523_83)"/>
<defs>
<linearGradient id="paint0_linear_523_83" x1="68.5" y1="0" x2="68.5" y2="253" gradientUnits="userSpaceOnUse">
<stop stop-color="#DEDEDE"/>
<stop offset="0.161458" stop-color="#DCD9D5"/>
<stop offset="0.723958" stop-color="#EDEBE7"/>
<stop offset="1" stop-color="#E4E1D9"/>
</linearGradient>
<linearGradient id="paint1_linear_523_83" x1="67.798" y1="61.3535" x2="67.798" y2="67.5971" gradientUnits="userSpaceOnUse">
<stop stop-color="white"/>
<stop offset="0.31" stop-color="#FBFBFB"/>
<stop offset="0.59" stop-color="#F0F0F0"/>
<stop offset="0.86" stop-color="#DEDEDE"/>
<stop offset="1" stop-color="#D1D1D1"/>
</linearGradient>
<linearGradient id="paint2_linear_523_83" x1="68.3546" y1="87.7805" x2="68.3546" y2="71.1405" gradientUnits="userSpaceOnUse">
<stop stop-color="white"/>
<stop offset="0.31" stop-color="#FBFBFB"/>
<stop offset="0.59" stop-color="#F0F0F0"/>
<stop offset="0.86" stop-color="#DEDEDE"/>
<stop offset="1" stop-color="#D1D1D1"/>
</linearGradient>
<linearGradient id="paint3_linear_523_83" x1="67.766" y1="83.3348" x2="67.766" y2="65.1494" gradientUnits="userSpaceOnUse">
<stop stop-color="white"/>
<stop offset="0.31" stop-color="#FBFBFB"/>
<stop offset="0.59" stop-color="#F0F0F0"/>
<stop offset="0.86" stop-color="#DEDEDE"/>
<stop offset="1" stop-color="#D1D1D1"/>
</linearGradient>
<linearGradient id="paint4_linear_523_83" x1="67.798" y1="200.354" x2="67.798" y2="206.597" gradientUnits="userSpaceOnUse">
<stop stop-color="white"/>
<stop offset="0.31" stop-color="#FBFBFB"/>
<stop offset="0.59" stop-color="#F0F0F0"/>
<stop offset="0.86" stop-color="#DEDEDE"/>
<stop offset="1" stop-color="#D1D1D1"/>
</linearGradient>
<linearGradient id="paint5_linear_523_83" x1="68.3546" y1="226.78" x2="68.3546" y2="210.14" gradientUnits="userSpaceOnUse">
<stop stop-color="white"/>
<stop offset="0.31" stop-color="#FBFBFB"/>
<stop offset="0.59" stop-color="#F0F0F0"/>
<stop offset="0.86" stop-color="#DEDEDE"/>
<stop offset="1" stop-color="#D1D1D1"/>
</linearGradient>
<linearGradient id="paint6_linear_523_83" x1="67.766" y1="222.335" x2="67.766" y2="204.149" gradientUnits="userSpaceOnUse">
<stop stop-color="white"/>
<stop offset="0.31" stop-color="#FBFBFB"/>
<stop offset="0.59" stop-color="#F0F0F0"/>
<stop offset="0.86" stop-color="#DEDEDE"/>
<stop offset="1" stop-color="#D1D1D1"/>
</linearGradient>
<linearGradient id="paint7_linear_523_83" x1="69.2622" y1="9.64004" x2="69.2622" y2="3.40744" gradientUnits="userSpaceOnUse">
<stop stop-color="white"/>
<stop offset="0.31" stop-color="#FBFBFB"/>
<stop offset="0.59" stop-color="#F0F0F0"/>
<stop offset="0.86" stop-color="#DEDEDE"/>
<stop offset="1" stop-color="#D1D1D1"/>
</linearGradient>
<linearGradient id="paint8_linear_523_83" x1="56.0337" y1="111.971" x2="66.3437" y2="202.821" gradientUnits="userSpaceOnUse">
<stop stop-color="white"/>
<stop offset="1" stop-color="#D3D2D1"/>
</linearGradient>
<linearGradient id="paint9_linear_523_83" x1="56.7533" y1="86.0193" x2="66.7454" y2="176.09" gradientUnits="userSpaceOnUse">
<stop stop-color="white"/>
<stop offset="1" stop-color="#D3D2D1"/>
</linearGradient>
<linearGradient id="paint10_linear_523_83" x1="68.2134" y1="136.32" x2="68.2134" y2="135.903" gradientUnits="userSpaceOnUse">
<stop stop-color="#5B544D"/>
<stop offset="0.41" stop-color="#544C44"/>
<stop offset="1" stop-color="#453B2F"/>
</linearGradient>
<linearGradient id="paint11_linear_523_83" x1="68.2134" y1="110.567" x2="68.2134" y2="110.15" gradientUnits="userSpaceOnUse">
<stop stop-color="#5B544D"/>
<stop offset="0.41" stop-color="#544C44"/>
<stop offset="1" stop-color="#453B2F"/>
</linearGradient>
<linearGradient id="paint12_linear_523_83" x1="68.1059" y1="162.424" x2="68.1059" y2="162.007" gradientUnits="userSpaceOnUse">
<stop stop-color="#5B544D"/>
<stop offset="0.41" stop-color="#544C44"/>
<stop offset="1" stop-color="#453B2F"/>
</linearGradient>
<linearGradient id="paint13_linear_523_83" x1="67.9149" y1="122" x2="67.9149" y2="124" gradientUnits="userSpaceOnUse">
<stop offset="0.09375" stop-color="#ADADAD"/>
<stop offset="0.348958" stop-color="white"/>
<stop offset="0.65625" stop-color="#D5D4D4"/>
<stop offset="1" stop-color="#A6A5A5"/>
</linearGradient>
<linearGradient id="paint14_linear_523_83" x1="67.9149" y1="148" x2="67.9149" y2="150" gradientUnits="userSpaceOnUse">
<stop offset="0.09375" stop-color="#ADADAD"/>
<stop offset="0.348958" stop-color="white"/>
<stop offset="0.65625" stop-color="#D5D4D4"/>
<stop offset="1" stop-color="#A6A5A5"/>
</linearGradient>
</defs>
</svg>
