<svg width="137" height="253" viewBox="0 0 137 253" fill="none" xmlns="http://www.w3.org/2000/svg">
<path d="M137 0H0V253H137V0Z" fill="url(#paint0_linear_523_2)"/>
<path d="M134 0H3V249H134V0Z" fill="#C8C6C6"/>
<path d="M116.035 12H20.6738V238H116.035V12Z" fill="#DDDDDD"/>
<path d="M115.195 21H21.5142L3.01418 9H133.695L115.195 21Z" fill="#B9B7B7"/>
<path style="mix-blend-mode:multiply" opacity="0.5" d="M133.695 233.379H17.807V239.835H133.695V233.379Z" fill="url(#paint1_linear_523_2)"/>
<path style="mix-blend-mode:multiply" opacity="0.5" d="M133.694 247.568H4.10989L17.8058 239.835H133.694V247.568Z" fill="url(#paint2_linear_523_2)"/>
<path d="M5.12041 144.349H4.10989V173.248H5.12041V144.349Z" fill="#CECECE"/>
<path d="M5.12041 175.919H4.10989V204.818H5.12041V175.919Z" fill="#CECECE"/>
<path d="M5.12041 207.483H4.10989V247.712H5.12041V207.483Z" fill="#CECECE"/>
<path d="M132.608 143.775H3.938V249.314H132.608V143.775Z" fill="#565454"/>
<path d="M132.921 145.183H3.27232V171.118H132.921V145.183Z" fill="#F4F4EF"/>
<path d="M132.921 171.32H3.27232V197.255H132.921V171.32Z" fill="#F4F4EF"/>
<path d="M132.921 197.457H3.27232V223.392H132.921V197.457Z" fill="#F4F4EF"/>
<path d="M130.922 171.396H3.01418V197.571H130.922V171.396Z" fill="url(#paint3_linear_523_2)"/>
<path d="M132.663 145.222H3.01418V171.157H132.663V145.222Z" fill="url(#paint4_linear_523_2)"/>
<path d="M130.922 197.571H3.01418V223.745H130.922V197.571Z" fill="url(#paint5_linear_523_2)"/>
<path d="M132.921 197.457H3.27232V198.265H132.921V197.457Z" fill="white"/>
<path d="M131.265 172.128H3.27232V171.32H132.921L131.265 172.128Z" fill="white"/>
<path d="M132.921 145.183H3.27232V145.99H132.921V145.183Z" fill="white"/>
<g style="mix-blend-mode:multiply">
<path d="M132.921 171.118H3.27232V170.303H131.265L132.921 171.118Z" fill="#D3D1CF"/>
</g>
<g style="mix-blend-mode:multiply">
<path d="M132.921 197.255H3.27232V196.447L131.265 196.512L132.921 197.255Z" fill="#D3D1CF"/>
</g>
<g style="mix-blend-mode:multiply">
<path d="M132.921 223.392H3.27232V222.584H131.265L132.921 223.392Z" fill="#D3D1CF"/>
</g>
<path d="M4.92786 170.304L3.27232 171.118V145.183H4.92786V170.304Z" fill="white"/>
<path d="M4.92786 196.512L3.27232 197.32V171.385H4.92786V196.512Z" fill="white"/>
<path d="M4.92786 222.584L3.27232 223.392V197.457H4.92786V222.584Z" fill="white"/>
<g style="mix-blend-mode:multiply">
<path d="M131.265 170.304L132.92 171.118V145.183L131.265 146.388V170.304Z" fill="#F4F4EF"/>
</g>
<g style="mix-blend-mode:multiply">
<path d="M131.265 196.512L132.92 197.32V171.32L131.265 172.128V196.512Z" fill="white"/>
</g>
<g style="mix-blend-mode:multiply">
<path d="M131.265 222.584L132.92 223.392V197.457H131.265V222.584Z" fill="white"/>
</g>
<path d="M132.921 223.548H3.27232V249.484H132.921V223.548Z" fill="#F4F4EF"/>
<path d="M130.922 223.745H3.01418V249.075H130.922V223.745Z" fill="url(#paint6_linear_523_2)"/>
<path d="M132.921 223.548H3.27232V224.356H132.921V223.548Z" fill="white"/>
<g style="mix-blend-mode:multiply">
<path d="M132.921 249.484H3.27232V248.676H131.265L132.921 249.484Z" fill="#D3D1CF"/>
</g>
<path d="M4.92786 248.676L3.27232 249.484V223.548H4.92786V248.676Z" fill="white"/>
<g style="mix-blend-mode:multiply">
<path d="M131.265 248.676L132.92 249.484V223.548H131.265V248.676Z" fill="white"/>
</g>
<path d="M132.921 170.929H3.20793V171.294H132.921V170.929Z" fill="url(#paint7_linear_523_2)"/>
<g style="mix-blend-mode:multiply">
<path d="M132.921 145.183H3.20793V145.547H132.921V145.183Z" fill="url(#paint8_linear_523_2)"/>
<path d="M60.0347 149.567C59.3985 149.594 58.7604 149.532 58.1696 149.387C57.5788 149.241 57.0511 149.015 56.6269 148.726L53.606 145.554H82.2986L79.2025 148.583C78.8397 148.904 78.3465 149.164 77.7703 149.336C77.1942 149.508 76.5545 149.588 75.9129 149.567H60.0347Z" fill="white"/>
</g>
<path d="M132.814 197.033H3.10043V197.398H132.814V197.033Z" fill="url(#paint9_linear_523_2)"/>
<path d="M132.814 223.177H3.10043V223.542H132.814V223.177Z" fill="url(#paint10_linear_523_2)"/>
<path d="M132.921 141H3.20793V145.182H132.921V141Z" fill="#F4F3F2"/>
<g style="mix-blend-mode:multiply">
<path d="M132.921 144.551H3.20793V145.182H132.921V144.551Z" fill="#D3D1CF"/>
</g>
<path opacity="0.3" d="M131.266 146.388H80.1265L80.9758 145.541H132.954L131.266 146.388Z" fill="white"/>
<path opacity="0.3" d="M4.59448 146.388H55.4757L54.6801 145.541H3.01418L4.59448 146.388Z" fill="white"/>
<path d="M80.7163 157H54.8156V159H80.7163V157Z" fill="url(#paint11_linear_523_2)"/>
<path d="M80.7163 209H54.8156V211H80.7163V209Z" fill="url(#paint12_linear_523_2)"/>
<path d="M80.7163 183H54.8156V185H80.7163V183Z" fill="url(#paint13_linear_523_2)"/>
<path d="M80.7163 235H54.8156V237H80.7163V235Z" fill="url(#paint14_linear_523_2)"/>
<path d="M133.695 46H3.01415V49H133.695V46Z" fill="white"/>
<path d="M119.567 54.9085H16.7083L3.01415 48.8362H133.437L119.567 54.9085Z" fill="#C6C6C6"/>
<path style="mix-blend-mode:multiply" opacity="0.5" d="M133.106 49H3.01415L16.7083 55.0106H118.979L133.106 49Z" fill="url(#paint15_linear_523_2)"/>
<path style="mix-blend-mode:multiply" d="M119.567 55H17.1418V71H119.567V55Z" fill="url(#paint16_linear_523_2)"/>
<path style="mix-blend-mode:multiply" d="M130.099 66H4.98472L1.83688 49H133.695L130.099 66Z" fill="url(#paint17_linear_523_2)"/>
<path d="M3 8.99999L134 9L134 6.00001L3 6L3 8.99999Z" fill="white"/>
<path d="M16.9314 8.43603e-07L120.245 8.51536e-06L134 6L3.00018 5.99999L16.9314 8.43603e-07Z" fill="#C6C6C6"/>
<path style="mix-blend-mode:multiply" opacity="0.5" d="M4.00018 5.99999L134 6L120.316 8.52058e-06L18.1178 9.31702e-07L4.00018 5.99999Z" fill="url(#paint18_linear_523_2)"/>
<path d="M133.695 92H3.01415V95H133.695V92Z" fill="white"/>
<path d="M119.567 100.909H16.7083L3.01415 94.8362H133.437L119.567 100.909Z" fill="#C6C6C6"/>
<path style="mix-blend-mode:multiply" opacity="0.5" d="M133.106 95H3.01415L16.7083 101.011H118.979L133.106 95Z" fill="url(#paint19_linear_523_2)"/>
<path style="mix-blend-mode:multiply" d="M119.567 101H17.1418V117H119.567V101Z" fill="url(#paint20_linear_523_2)"/>
<path style="mix-blend-mode:multiply" d="M130.099 112H4.98472L1.83688 95H133.695L130.099 112Z" fill="url(#paint21_linear_523_2)"/>
<defs>
<linearGradient id="paint0_linear_523_2" x1="68.5" y1="0" x2="68.5" y2="253" gradientUnits="userSpaceOnUse">
<stop stop-color="#DEDEDE"/>
<stop offset="0.161458" stop-color="#DCD9D5"/>
<stop offset="0.723958" stop-color="#EDEBE7"/>
<stop offset="1" stop-color="#E4E1D9"/>
</linearGradient>
<linearGradient id="paint1_linear_523_2" x1="75.7511" y1="240.148" x2="75.7511" y2="233.431" gradientUnits="userSpaceOnUse">
<stop stop-color="#D1D1D1"/>
<stop offset="0.14" stop-color="#DEDEDE"/>
<stop offset="0.41" stop-color="#F0F0F0"/>
<stop offset="0.69" stop-color="#FBFBFB"/>
<stop offset="1" stop-color="white"/>
</linearGradient>
<linearGradient id="paint2_linear_523_2" x1="68.902" y1="247.946" x2="68.902" y2="239.901" gradientUnits="userSpaceOnUse">
<stop stop-color="white"/>
<stop offset="0.31" stop-color="#FBFBFB"/>
<stop offset="0.59" stop-color="#F0F0F0"/>
<stop offset="0.86" stop-color="#DEDEDE"/>
<stop offset="1" stop-color="#D1D1D1"/>
</linearGradient>
<linearGradient id="paint3_linear_523_2" x1="55.8848" y1="146.971" x2="66.1948" y2="237.821" gradientUnits="userSpaceOnUse">
<stop stop-color="white"/>
<stop offset="1" stop-color="#D3D2D1"/>
</linearGradient>
<linearGradient id="paint4_linear_523_2" x1="56.6044" y1="121.019" x2="66.5965" y2="211.09" gradientUnits="userSpaceOnUse">
<stop stop-color="white"/>
<stop offset="1" stop-color="#D3D2D1"/>
</linearGradient>
<linearGradient id="paint5_linear_523_2" x1="49.8924" y1="152.809" x2="60.2024" y2="243.666" gradientUnits="userSpaceOnUse">
<stop stop-color="white"/>
<stop offset="1" stop-color="#D3D2D1"/>
</linearGradient>
<linearGradient id="paint6_linear_523_2" x1="-19.7992" y1="152.177" x2="32.1933" y2="292.406" gradientUnits="userSpaceOnUse">
<stop stop-color="white"/>
<stop offset="1" stop-color="#D3D2D1"/>
</linearGradient>
<linearGradient id="paint7_linear_523_2" x1="68.0645" y1="171.32" x2="68.0645" y2="170.903" gradientUnits="userSpaceOnUse">
<stop stop-color="#5B544D"/>
<stop offset="0.41" stop-color="#544C44"/>
<stop offset="1" stop-color="#453B2F"/>
</linearGradient>
<linearGradient id="paint8_linear_523_2" x1="68.0645" y1="145.567" x2="68.0645" y2="145.15" gradientUnits="userSpaceOnUse">
<stop stop-color="#5B544D"/>
<stop offset="0.41" stop-color="#544C44"/>
<stop offset="1" stop-color="#453B2F"/>
</linearGradient>
<linearGradient id="paint9_linear_523_2" x1="67.957" y1="197.424" x2="67.957" y2="197.007" gradientUnits="userSpaceOnUse">
<stop stop-color="#5B544D"/>
<stop offset="0.41" stop-color="#544C44"/>
<stop offset="1" stop-color="#453B2F"/>
</linearGradient>
<linearGradient id="paint10_linear_523_2" x1="67.957" y1="223.561" x2="67.957" y2="223.144" gradientUnits="userSpaceOnUse">
<stop stop-color="#5B544D"/>
<stop offset="0.41" stop-color="#544C44"/>
<stop offset="1" stop-color="#453B2F"/>
</linearGradient>
<linearGradient id="paint11_linear_523_2" x1="67.766" y1="157" x2="67.766" y2="159" gradientUnits="userSpaceOnUse">
<stop offset="0.09375" stop-color="#ADADAD"/>
<stop offset="0.348958" stop-color="white"/>
<stop offset="0.65625" stop-color="#D5D4D4"/>
<stop offset="1" stop-color="#A6A5A5"/>
</linearGradient>
<linearGradient id="paint12_linear_523_2" x1="67.766" y1="209" x2="67.766" y2="211" gradientUnits="userSpaceOnUse">
<stop offset="0.09375" stop-color="#ADADAD"/>
<stop offset="0.348958" stop-color="white"/>
<stop offset="0.65625" stop-color="#D5D4D4"/>
<stop offset="1" stop-color="#A6A5A5"/>
</linearGradient>
<linearGradient id="paint13_linear_523_2" x1="67.766" y1="183" x2="67.766" y2="185" gradientUnits="userSpaceOnUse">
<stop offset="0.09375" stop-color="#ADADAD"/>
<stop offset="0.348958" stop-color="white"/>
<stop offset="0.65625" stop-color="#D5D4D4"/>
<stop offset="1" stop-color="#A6A5A5"/>
</linearGradient>
<linearGradient id="paint14_linear_523_2" x1="67.766" y1="235" x2="67.766" y2="237" gradientUnits="userSpaceOnUse">
<stop offset="0.09375" stop-color="#ADADAD"/>
<stop offset="0.348958" stop-color="white"/>
<stop offset="0.65625" stop-color="#D5D4D4"/>
<stop offset="1" stop-color="#A6A5A5"/>
</linearGradient>
<linearGradient id="paint15_linear_523_2" x1="67.798" y1="45.3535" x2="67.798" y2="51.5971" gradientUnits="userSpaceOnUse">
<stop stop-color="white"/>
<stop offset="0.31" stop-color="#FBFBFB"/>
<stop offset="0.59" stop-color="#F0F0F0"/>
<stop offset="0.86" stop-color="#DEDEDE"/>
<stop offset="1" stop-color="#D1D1D1"/>
</linearGradient>
<linearGradient id="paint16_linear_523_2" x1="68.3546" y1="71.7805" x2="68.3546" y2="55.1405" gradientUnits="userSpaceOnUse">
<stop stop-color="white"/>
<stop offset="0.31" stop-color="#FBFBFB"/>
<stop offset="0.59" stop-color="#F0F0F0"/>
<stop offset="0.86" stop-color="#DEDEDE"/>
<stop offset="1" stop-color="#D1D1D1"/>
</linearGradient>
<linearGradient id="paint17_linear_523_2" x1="67.766" y1="67.3348" x2="67.766" y2="49.1494" gradientUnits="userSpaceOnUse">
<stop stop-color="white"/>
<stop offset="0.31" stop-color="#FBFBFB"/>
<stop offset="0.59" stop-color="#F0F0F0"/>
<stop offset="0.86" stop-color="#DEDEDE"/>
<stop offset="1" stop-color="#D1D1D1"/>
</linearGradient>
<linearGradient id="paint18_linear_523_2" x1="69.2622" y1="9.64004" x2="69.2622" y2="3.40744" gradientUnits="userSpaceOnUse">
<stop stop-color="white"/>
<stop offset="0.31" stop-color="#FBFBFB"/>
<stop offset="0.59" stop-color="#F0F0F0"/>
<stop offset="0.86" stop-color="#DEDEDE"/>
<stop offset="1" stop-color="#D1D1D1"/>
</linearGradient>
<linearGradient id="paint19_linear_523_2" x1="67.798" y1="91.3535" x2="67.798" y2="97.5971" gradientUnits="userSpaceOnUse">
<stop stop-color="white"/>
<stop offset="0.31" stop-color="#FBFBFB"/>
<stop offset="0.59" stop-color="#F0F0F0"/>
<stop offset="0.86" stop-color="#DEDEDE"/>
<stop offset="1" stop-color="#D1D1D1"/>
</linearGradient>
<linearGradient id="paint20_linear_523_2" x1="68.3546" y1="117.78" x2="68.3546" y2="101.14" gradientUnits="userSpaceOnUse">
<stop stop-color="white"/>
<stop offset="0.31" stop-color="#FBFBFB"/>
<stop offset="0.59" stop-color="#F0F0F0"/>
<stop offset="0.86" stop-color="#DEDEDE"/>
<stop offset="1" stop-color="#D1D1D1"/>
</linearGradient>
<linearGradient id="paint21_linear_523_2" x1="67.766" y1="113.335" x2="67.766" y2="95.1494" gradientUnits="userSpaceOnUse">
<stop stop-color="white"/>
<stop offset="0.31" stop-color="#FBFBFB"/>
<stop offset="0.59" stop-color="#F0F0F0"/>
<stop offset="0.86" stop-color="#DEDEDE"/>
<stop offset="1" stop-color="#D1D1D1"/>
</linearGradient>
</defs>
</svg>
