<svg width="166" height="317" viewBox="0 0 166 317" fill="none" xmlns="http://www.w3.org/2000/svg">
<path d="M7.94077 305H158.647L166 317H0L7.94077 305Z" fill="#B9B7B7"/>
<path d="M57 297.69C57.0314 297.35 57.1647 297.054 57.3999 296.803C57.6404 296.548 57.9567 296.351 58.3488 296.21C58.7462 296.07 59.1958 296 59.6977 296C60.1839 296 60.6073 296.062 60.9681 296.185C61.334 296.308 61.619 296.482 61.8229 296.708C62.0268 296.933 62.1287 297.194 62.1287 297.492C62.1287 297.722 62.0607 297.936 61.9248 298.136C61.7941 298.332 61.5719 298.533 61.2582 298.742C60.9498 298.95 60.5289 299.188 59.9957 299.456L57.8548 300.54L57.7607 300.355H62.3248V300.865H57.0235V300.406L59.5095 299.131C59.9695 298.893 60.3355 298.687 60.6073 298.512C60.8844 298.334 61.0831 298.166 61.2033 298.009C61.3236 297.851 61.3837 297.685 61.3837 297.511C61.3837 297.311 61.3157 297.137 61.1798 296.988C61.0491 296.835 60.8557 296.716 60.5995 296.631C60.3486 296.546 60.0427 296.504 59.682 296.504C59.2637 296.504 58.9135 296.557 58.6311 296.663C58.3541 296.765 58.1423 296.905 57.9959 297.084C57.8548 297.262 57.7711 297.464 57.745 297.69H57Z" fill="#303030"/>
<path d="M63.6469 296.083H67.7875V296.58H63.9136L64.2194 296.395L63.89 298.557L63.6391 298.563C63.7698 298.41 63.9423 298.27 64.1567 298.142C64.3763 298.011 64.6324 297.904 64.9252 297.824C65.218 297.743 65.5395 297.702 65.8898 297.702C66.4073 297.702 66.8413 297.775 67.1915 297.919C67.5418 298.064 67.8058 298.257 67.9836 298.499C68.1666 298.742 68.2581 299.014 68.2581 299.316C68.2581 299.634 68.1509 299.917 67.9365 300.164C67.7222 300.406 67.4216 300.597 67.0347 300.738C66.6478 300.878 66.193 300.948 65.6702 300.948C65.1369 300.948 64.6769 300.884 64.29 300.757C63.9031 300.625 63.5947 300.448 63.3646 300.227C63.1398 300.006 62.996 299.758 62.9333 299.481H63.6783C63.762 299.775 63.9737 300.009 64.3135 300.183C64.6586 300.357 65.1108 300.444 65.6702 300.444C66.0414 300.444 66.3629 300.397 66.6348 300.304C66.9118 300.21 67.1262 300.081 67.2778 299.915C67.4347 299.745 67.5131 299.545 67.5131 299.316C67.5131 299.09 67.4451 298.895 67.3092 298.729C67.1733 298.559 66.9772 298.427 66.721 298.334C66.4701 298.24 66.1616 298.193 65.7957 298.193C65.4768 298.193 65.1892 298.23 64.933 298.302C64.6769 298.37 64.4547 298.457 64.2665 298.563C64.0783 298.67 63.924 298.782 63.8038 298.901H63.2235L63.6469 296.083Z" fill="#303030"/>
<path d="M72.0288 300.948C71.4014 300.948 70.8603 300.846 70.4055 300.642C69.9559 300.434 69.6108 300.145 69.3704 299.775C69.1299 299.405 69.0096 298.971 69.0096 298.474C69.0096 297.977 69.1299 297.543 69.3704 297.173C69.6108 296.803 69.9559 296.516 70.4055 296.312C70.8603 296.104 71.4014 296 72.0288 296C72.6562 296 73.1947 296.104 73.6443 296.312C74.0939 296.516 74.4389 296.803 74.6794 297.173C74.9199 297.543 75.0402 297.977 75.0402 298.474C75.0402 298.967 74.9199 299.401 74.6794 299.775C74.4389 300.145 74.0939 300.434 73.6443 300.642C73.1947 300.846 72.6562 300.948 72.0288 300.948ZM72.0288 300.438C72.7398 300.438 73.294 300.266 73.6913 299.921C74.0887 299.577 74.2873 299.095 74.2873 298.474C74.2873 297.853 74.0887 297.371 73.6913 297.027C73.294 296.678 72.7398 296.504 72.0288 296.504C71.3126 296.504 70.7558 296.678 70.3585 297.027C69.9611 297.371 69.7625 297.853 69.7625 298.474C69.7625 299.095 69.9611 299.577 70.3585 299.921C70.7558 300.266 71.3126 300.438 72.0288 300.438Z" fill="#303030"/>
<path d="M75.8475 297.275H76.569L76.8199 298.493V300.865H76.0985V298.41L75.8475 297.275ZM78.506 297.192C78.8876 297.192 79.2118 297.26 79.4784 297.396C79.745 297.528 79.9489 297.722 80.0901 297.977C80.2312 298.227 80.3018 298.531 80.3018 298.888V300.865H79.5803V298.99C79.5803 298.561 79.4706 298.238 79.251 298.021C79.0314 297.8 78.7125 297.69 78.2942 297.69C77.9962 297.69 77.7348 297.749 77.51 297.868C77.2905 297.987 77.1206 298.153 77.0003 298.366C76.8801 298.574 76.8199 298.818 76.8199 299.099L76.5298 298.933C76.5664 298.576 76.6709 298.268 76.8435 298.009C77.0212 297.749 77.2513 297.549 77.5336 297.409C77.8211 297.265 78.1452 297.192 78.506 297.192ZM81.98 297.192C82.3617 297.192 82.6858 297.26 82.9524 297.396C83.2243 297.528 83.4308 297.722 83.5719 297.977C83.7131 298.227 83.7837 298.531 83.7837 298.888V300.865H83.0622V298.99C83.0622 298.561 82.9524 298.238 82.7328 298.021C82.5133 297.8 82.1944 297.69 81.7761 297.69C81.4781 297.69 81.2167 297.749 80.9919 297.868C80.7723 297.987 80.6024 298.153 80.4822 298.366C80.3619 298.574 80.3018 298.818 80.3018 299.099L80.0117 298.933C80.0483 298.576 80.1528 298.268 80.3253 298.009C80.5031 297.749 80.7331 297.549 81.0154 297.409C81.303 297.265 81.6245 297.192 81.98 297.192Z" fill="#303030"/>
<path d="M84.6852 297.275H85.4066L85.6576 298.493V300.865H84.9361V298.41L84.6852 297.275ZM87.3436 297.192C87.7253 297.192 88.0494 297.26 88.316 297.396C88.5827 297.528 88.7865 297.722 88.9277 297.977C89.0689 298.227 89.1394 298.531 89.1394 298.888V300.865H88.418V298.99C88.418 298.561 88.3082 298.238 88.0886 298.021C87.869 297.8 87.5501 297.69 87.1319 297.69C86.8339 297.69 86.5725 297.749 86.3477 297.868C86.1281 297.987 85.9582 298.153 85.8379 298.366C85.7177 298.574 85.6576 298.818 85.6576 299.099L85.3674 298.933C85.404 298.576 85.5086 298.268 85.6811 298.009C85.8588 297.749 86.0889 297.549 86.3712 297.409C86.6587 297.265 86.9829 297.192 87.3436 297.192ZM90.8176 297.192C91.1993 297.192 91.5234 297.26 91.7901 297.396C92.0619 297.528 92.2684 297.722 92.4096 297.977C92.5507 298.227 92.6213 298.531 92.6213 298.888V300.865H91.8998V298.99C91.8998 298.561 91.7901 298.238 91.5705 298.021C91.3509 297.8 91.032 297.69 90.6138 297.69C90.3158 297.69 90.0543 297.749 89.8295 297.868C89.61 297.987 89.4401 298.153 89.3198 298.366C89.1996 298.574 89.1394 298.818 89.1394 299.099L88.8493 298.933C88.8859 298.576 88.9904 298.268 89.163 298.009C89.3407 297.749 89.5708 297.549 89.8531 297.409C90.1406 297.265 90.4621 297.192 90.8176 297.192Z" fill="#303030"/>
<path d="M100.003 299.991V299.348L100.035 299.252V298.659L100.003 298.531V297.275H100.725V299.909C100.725 300.376 100.607 300.765 100.372 301.075C100.142 301.386 99.8281 301.617 99.4307 301.77C99.0334 301.923 98.5812 302 98.0741 302C97.6924 302 97.3369 301.955 97.0075 301.866C96.6834 301.781 96.3723 301.649 96.0743 301.471V300.954C96.388 301.163 96.7095 301.307 97.0389 301.388C97.3735 301.469 97.7055 301.509 98.0348 301.509C98.6727 301.509 99.1589 301.373 99.4935 301.101C99.8333 300.833 100.003 300.463 100.003 299.991ZM97.7604 300.635C97.363 300.635 97.0023 300.563 96.6782 300.419C96.3593 300.274 96.1057 300.074 95.9175 299.819C95.7293 299.56 95.6352 299.258 95.6352 298.914C95.6352 298.565 95.7293 298.264 95.9175 298.009C96.1057 297.749 96.3593 297.549 96.6782 297.409C97.0023 297.265 97.363 297.192 97.7604 297.192C98.0584 297.192 98.3355 297.231 98.5916 297.307C98.8478 297.379 99.0805 297.477 99.2896 297.6C99.4987 297.724 99.6764 297.862 99.8228 298.015C99.9692 298.168 100.082 298.323 100.16 298.48C100.244 298.633 100.286 298.778 100.286 298.914C100.286 299.088 100.223 299.275 100.097 299.475C99.9771 299.671 99.8019 299.858 99.5719 300.036C99.3471 300.21 99.0805 300.355 98.772 300.47C98.4688 300.58 98.1316 300.635 97.7604 300.635ZM97.9564 300.164C98.3642 300.164 98.7406 300.066 99.0857 299.87C99.4307 299.675 99.747 299.356 100.035 298.914C99.7523 298.463 99.436 298.142 99.0857 297.951C98.7406 297.756 98.3642 297.658 97.9564 297.658C97.6166 297.658 97.3264 297.713 97.086 297.824C96.8507 297.93 96.6703 298.077 96.5449 298.264C96.4246 298.451 96.3645 298.667 96.3645 298.914C96.3645 299.152 96.4246 299.367 96.5449 299.558C96.6703 299.745 96.8507 299.894 97.086 300.004C97.3264 300.111 97.6166 300.164 97.9564 300.164Z" fill="#303030"/>
<path d="M106.063 300.865L105.906 299.507L106.102 299.067L105.906 298.633L106.063 297.275H106.8L106.596 299.067L106.8 300.865H106.063ZM106.345 299.067C106.23 299.441 106.052 299.77 105.812 300.055C105.577 300.336 105.289 300.555 104.949 300.712C104.615 300.869 104.244 300.948 103.836 300.948C103.402 300.948 103.018 300.869 102.683 300.712C102.348 300.55 102.084 300.329 101.891 300.049C101.703 299.764 101.609 299.437 101.609 299.067C101.609 298.693 101.703 298.366 101.891 298.085C102.084 297.804 102.348 297.586 102.683 297.428C103.018 297.271 103.402 297.192 103.836 297.192C104.244 297.192 104.615 297.271 104.949 297.428C105.289 297.586 105.579 297.804 105.82 298.085C106.06 298.366 106.235 298.693 106.345 299.067ZM102.346 299.067C102.346 299.339 102.414 299.579 102.55 299.787C102.691 299.996 102.882 300.159 103.122 300.278C103.368 300.393 103.645 300.451 103.953 300.451C104.267 300.451 104.555 300.393 104.816 300.278C105.083 300.159 105.318 299.996 105.522 299.787C105.731 299.579 105.901 299.339 106.032 299.067C105.901 298.795 105.731 298.555 105.522 298.346C105.318 298.138 105.083 297.977 104.816 297.862C104.555 297.743 104.267 297.683 103.953 297.683C103.645 297.683 103.368 297.743 103.122 297.862C102.882 297.977 102.691 298.138 102.55 298.346C102.414 298.555 102.346 298.795 102.346 299.067Z" fill="#303030"/>
<path d="M107.879 297.275H108.601V298.633L108.561 298.748V299.328L108.601 299.513V301.917H107.879V297.275ZM108.263 299.067C108.378 298.693 108.554 298.366 108.789 298.085C109.029 297.804 109.317 297.586 109.651 297.428C109.991 297.271 110.365 297.192 110.773 297.192C111.207 297.192 111.591 297.271 111.926 297.428C112.26 297.586 112.522 297.804 112.71 298.085C112.903 298.366 113 298.693 113 299.067C113 299.437 112.903 299.764 112.71 300.049C112.522 300.329 112.26 300.55 111.926 300.712C111.591 300.869 111.207 300.948 110.773 300.948C110.365 300.948 109.991 300.869 109.651 300.712C109.317 300.555 109.029 300.336 108.789 300.055C108.554 299.77 108.378 299.441 108.263 299.067ZM112.263 299.067C112.263 298.795 112.192 298.555 112.051 298.346C111.915 298.138 111.724 297.977 111.479 297.862C111.238 297.743 110.964 297.683 110.655 297.683C110.342 297.683 110.051 297.743 109.785 297.862C109.523 297.977 109.291 298.138 109.087 298.346C108.883 298.555 108.713 298.795 108.577 299.067C108.713 299.339 108.883 299.579 109.087 299.787C109.291 299.996 109.523 300.159 109.785 300.278C110.051 300.393 110.342 300.451 110.655 300.451C110.964 300.451 111.238 300.393 111.479 300.278C111.724 300.159 111.915 299.996 112.051 299.787C112.192 299.579 112.263 299.339 112.263 299.067Z" fill="#303030"/>
<path d="M45.9146 295.823C45.8169 295.726 45.6586 295.726 45.561 295.823L43.97 297.414C43.8724 297.512 43.8724 297.67 43.97 297.768C44.0677 297.865 44.2259 297.865 44.3236 297.768L45.7378 296.354L47.152 297.768C47.2496 297.865 47.4079 297.865 47.5056 297.768C47.6032 297.67 47.6032 297.512 47.5056 297.414L45.9146 295.823ZM45.561 302.458C45.6586 302.556 45.8169 302.556 45.9146 302.458L47.5056 300.867C47.6032 300.77 47.6032 300.611 47.5056 300.514C47.4079 300.416 47.2496 300.416 47.152 300.514L45.7378 301.928L44.3236 300.514C44.2259 300.416 44.0677 300.416 43.97 300.514C43.8724 300.611 43.8724 300.77 43.97 300.867L45.561 302.458ZM45.4878 296L45.4878 302.281L45.9878 302.281L45.9878 296L45.4878 296Z" fill="#303030"/>
<path d="M154 0H17V293H154V0Z" fill="url(#paint0_linear_218_1686)"/>
<path d="M151 3H20V289H151V3Z" fill="#C8C6C6"/>
<path d="M133.035 52H37.6737V278H133.035V52Z" fill="#DDDDDD"/>
<path d="M132.195 61H38.5142L20.0142 49H150.695L132.195 61Z" fill="#B9B7B7"/>
<rect x="35" y="9" width="104" height="31" fill="white"/>
<path style="mix-blend-mode:multiply" opacity="0.5" d="M150.695 273.379H34.807V279.835H150.695V273.379Z" fill="url(#paint1_linear_218_1686)"/>
<path style="mix-blend-mode:multiply" opacity="0.5" d="M150.694 287.568H21.1099L34.8057 279.835H150.694V287.568Z" fill="url(#paint2_linear_218_1686)"/>
<path d="M22.1204 184.349H21.1099V213.248H22.1204V184.349Z" fill="#CECECE"/>
<path d="M22.1204 215.919H21.1099V244.819H22.1204V215.919Z" fill="#CECECE"/>
<path d="M22.1204 247.483H21.1099V287.712H22.1204V247.483Z" fill="#CECECE"/>
<path d="M149.608 183.775H20.938V289.314H149.608V183.775Z" fill="#565454"/>
<path d="M149.921 185.182H20.2723V211.118H149.921V185.182Z" fill="#F4F4EF"/>
<path d="M149.921 211.32H20.2723V237.255H149.921V211.32Z" fill="#F4F4EF"/>
<path d="M149.921 237.457H20.2723V263.392H149.921V237.457Z" fill="#F4F4EF"/>
<path d="M147.922 211.396H20.0142V237.571H147.922V211.396Z" fill="url(#paint3_linear_218_1686)"/>
<path d="M149.663 185.222H20.0142V211.157H149.663V185.222Z" fill="url(#paint4_linear_218_1686)"/>
<path d="M147.922 237.571H20.0142V263.745H147.922V237.571Z" fill="url(#paint5_linear_218_1686)"/>
<path d="M149.921 237.457H20.2723V238.265H149.921V237.457Z" fill="white"/>
<path d="M148.265 212.128H20.2723V211.32H149.921L148.265 212.128Z" fill="white"/>
<path d="M149.921 185.182H20.2723V185.99H149.921V185.182Z" fill="white"/>
<g style="mix-blend-mode:multiply">
<path d="M149.921 211.118H20.2723V210.303H148.265L149.921 211.118Z" fill="#D3D1CF"/>
</g>
<g style="mix-blend-mode:multiply">
<path d="M149.921 237.255H20.2723V236.447L148.265 236.512L149.921 237.255Z" fill="#D3D1CF"/>
</g>
<g style="mix-blend-mode:multiply">
<path d="M149.921 263.392H20.2723V262.584H148.265L149.921 263.392Z" fill="#D3D1CF"/>
</g>
<path d="M21.9279 210.303L20.2723 211.118V185.182H21.9279V210.303Z" fill="white"/>
<path d="M21.9279 236.512L20.2723 237.32V211.385H21.9279V236.512Z" fill="white"/>
<path d="M21.9279 262.584L20.2723 263.392V237.457H21.9279V262.584Z" fill="white"/>
<g style="mix-blend-mode:multiply">
<path d="M148.265 210.303L149.92 211.118V185.182L148.265 186.388V210.303Z" fill="#F4F4EF"/>
</g>
<g style="mix-blend-mode:multiply">
<path d="M148.265 236.512L149.92 237.32V211.32L148.265 212.128V236.512Z" fill="white"/>
</g>
<g style="mix-blend-mode:multiply">
<path d="M148.265 262.584L149.92 263.392V237.457H148.265V262.584Z" fill="white"/>
</g>
<path d="M149.921 263.548H20.2723V289.484H149.921V263.548Z" fill="#F4F4EF"/>
<path d="M147.922 263.745H20.0142V289.075H147.922V263.745Z" fill="url(#paint6_linear_218_1686)"/>
<path d="M149.921 263.548H20.2723V264.356H149.921V263.548Z" fill="white"/>
<g style="mix-blend-mode:multiply">
<path d="M149.921 289.484H20.2723V288.676H148.265L149.921 289.484Z" fill="#D3D1CF"/>
</g>
<path d="M21.9279 288.676L20.2723 289.484V263.548H21.9279V288.676Z" fill="white"/>
<g style="mix-blend-mode:multiply">
<path d="M148.265 288.676L149.92 289.484V263.548H148.265V288.676Z" fill="white"/>
</g>
<path d="M149.921 210.929H20.2079V211.294H149.921V210.929Z" fill="url(#paint7_linear_218_1686)"/>
<g style="mix-blend-mode:multiply">
<path d="M149.921 185.182H20.2079V185.547H149.921V185.182Z" fill="url(#paint8_linear_218_1686)"/>
<path d="M77.0346 189.567C76.3984 189.594 75.7603 189.532 75.1695 189.387C74.5788 189.241 74.051 189.015 73.6268 188.726L70.606 185.554H99.2985L96.2024 188.583C95.8396 188.904 95.3464 189.164 94.7702 189.336C94.1941 189.508 93.5544 189.588 92.9128 189.567H77.0346Z" fill="white"/>
</g>
<path d="M149.814 237.033H20.1005V237.398H149.814V237.033Z" fill="url(#paint9_linear_218_1686)"/>
<path d="M149.814 263.177H20.1005V263.542H149.814V263.177Z" fill="url(#paint10_linear_218_1686)"/>
<path d="M149.921 181H20.2079V185.182H149.921V181Z" fill="#F4F3F2"/>
<g style="mix-blend-mode:multiply">
<path d="M149.921 184.551H20.2079V185.182H149.921V184.551Z" fill="#D3D1CF"/>
</g>
<path opacity="0.3" d="M148.266 186.388H97.1265L97.9757 185.541H149.953L148.266 186.388Z" fill="white"/>
<path opacity="0.3" d="M21.5945 186.388H72.4756L71.6801 185.541H20.0142L21.5945 186.388Z" fill="white"/>
<path d="M97.7163 197H71.8156V199H97.7163V197Z" fill="url(#paint11_linear_218_1686)"/>
<path d="M97.7163 249H71.8156V251H97.7163V249Z" fill="url(#paint12_linear_218_1686)"/>
<path d="M97.7163 223H71.8156V225H97.7163V223Z" fill="url(#paint13_linear_218_1686)"/>
<path d="M97.7163 275H71.8156V277H97.7163V275Z" fill="url(#paint14_linear_218_1686)"/>
<path d="M150.695 86H20.0142V89H150.695V86Z" fill="white"/>
<path d="M136.567 94.9085H33.7083L20.0142 88.8362H150.437L136.567 94.9085Z" fill="#C6C6C6"/>
<path style="mix-blend-mode:multiply" opacity="0.5" d="M150.106 89H20.0142L33.7083 95.0106H135.979L150.106 89Z" fill="url(#paint15_linear_218_1686)"/>
<path style="mix-blend-mode:multiply" d="M136.567 95H34.1418V111H136.567V95Z" fill="url(#paint16_linear_218_1686)"/>
<path style="mix-blend-mode:multiply" d="M147.099 106H21.9847L18.8369 89H150.695L147.099 106Z" fill="url(#paint17_linear_218_1686)"/>
<path d="M151 0H20V3H151V0Z" fill="#E0DDDD"/>
<path d="M137.047 8.90852H33.927L20.1981 2.83618H150.952L137.047 8.90852Z" fill="#C6C6C6"/>
<path style="mix-blend-mode:multiply" opacity="0.5" d="M150.621 3H20.1981L33.927 9.01062H138.5L150.621 3Z" fill="url(#paint18_linear_218_1686)"/>
<path style="mix-blend-mode:multiply" d="M139 9H34V25H139V9Z" fill="url(#paint19_linear_218_1686)"/>
<path style="mix-blend-mode:multiply" d="M147.618 9H34L20 3H151L147.618 9Z" fill="url(#paint20_linear_218_1686)"/>
<path d="M20 49L151 49L151 46L20 46L20 49Z" fill="white"/>
<path d="M33.9314 40L137.245 40L151 46L20.0002 46L33.9314 40Z" fill="#C6C6C6"/>
<path style="mix-blend-mode:multiply" opacity="0.5" d="M21.0002 46L151 46L137.316 40L35.1178 40L21.0002 46Z" fill="url(#paint21_linear_218_1686)"/>
<path style="mix-blend-mode:multiply" d="M34.5074 40L139.688 40L139.688 24L34.5074 24L34.5074 40Z" fill="url(#paint22_linear_218_1686)"/>
<path style="mix-blend-mode:multiply" d="M23.5729 29L147.873 29L151 46L20.0002 46L23.5729 29Z" fill="url(#paint23_linear_218_1686)"/>
<path d="M150.695 132H20.0142V135H150.695V132Z" fill="white"/>
<path d="M136.567 140.909H33.7083L20.0142 134.836H150.437L136.567 140.909Z" fill="#C6C6C6"/>
<path style="mix-blend-mode:multiply" opacity="0.5" d="M150.106 135H20.0142L33.7083 141.011H135.979L150.106 135Z" fill="url(#paint24_linear_218_1686)"/>
<path style="mix-blend-mode:multiply" d="M136.567 141H34.1418V157H136.567V141Z" fill="url(#paint25_linear_218_1686)"/>
<path style="mix-blend-mode:multiply" d="M147.099 152H21.9847L18.8369 135H150.695L147.099 152Z" fill="url(#paint26_linear_218_1686)"/>
<path d="M35.3798 40.0832C35.4202 39.9609 35.3399 39.8245 35.2005 39.7786L32.929 39.0294C32.7896 38.9834 32.6439 39.0453 32.6036 39.1676C32.5632 39.2899 32.6435 39.4263 32.7829 39.4723L34.802 40.1382L34.2177 41.9098C34.1774 42.0321 34.2577 42.1685 34.3971 42.2145C34.5365 42.2604 34.6822 42.1985 34.7225 42.0762L35.3798 40.0832ZM20.7474 45.9168C20.7071 46.0391 20.7874 46.1755 20.9267 46.2214L23.1982 46.9706C23.3376 47.0166 23.4833 46.9547 23.5237 46.8324C23.564 46.7101 23.4837 46.5737 23.3443 46.5277L21.3252 45.8618L21.9095 44.0902C21.9498 43.9679 21.8695 43.8315 21.7301 43.7855C21.5907 43.7396 21.445 43.8015 21.4047 43.9238L20.7474 45.9168ZM35.0006 39.7846L20.873 45.7846L21.1266 46.2154L35.2543 40.2154L35.0006 39.7846Z" fill="#303030"/>
<path d="M152.087 46.2344C152.216 46.1864 152.282 46.0425 152.234 45.913L151.452 43.8035C151.404 43.6741 151.26 43.6081 151.13 43.6561C151.001 43.7041 150.935 43.848 150.983 43.9775L151.679 45.8526L149.804 46.5482C149.674 46.5963 149.608 46.7401 149.656 46.8696C149.704 46.999 149.848 47.065 149.977 47.017L152.087 46.2344ZM138.835 39.7656C138.706 39.8136 138.64 39.9575 138.688 40.087L139.47 42.1965C139.518 42.3259 139.662 42.3919 139.792 42.3439C139.921 42.2959 139.987 42.152 139.939 42.0225L139.243 40.1474L141.119 39.4518C141.248 39.4037 141.314 39.2599 141.266 39.1304C141.218 39.001 141.074 38.935 140.945 38.983L138.835 39.7656ZM152.104 45.7728L139.026 39.7728L138.818 40.2272L151.896 46.2272L152.104 45.7728Z" fill="#303030"/>
<path d="M45.4328 30.5759H46.143V35.7816H45.4328V30.5759ZM43 30.2437H48.5758V30.8565H43V30.2437Z" fill="black"/>
<path d="M50.0805 35.8776C49.5818 35.8776 49.1411 35.7866 48.7583 35.6044C48.3805 35.4223 48.0859 35.1663 47.8743 34.8365C47.6628 34.5067 47.557 34.1276 47.557 33.6994C47.557 33.2662 47.6628 32.8871 47.8743 32.5622C48.0859 32.2373 48.3805 31.9838 48.7583 31.8017C49.1411 31.6195 49.5818 31.5285 50.0805 31.5285C50.5841 31.5285 51.0249 31.6195 51.4026 31.8017C51.7804 31.9838 52.0751 32.2373 52.2866 32.5622C52.5032 32.8871 52.6115 33.2662 52.6115 33.6994C52.6115 34.1276 52.5032 34.5067 52.2866 34.8365C52.0751 35.1663 51.7804 35.4223 51.4026 35.6044C51.0249 35.7866 50.5841 35.8776 50.0805 35.8776ZM50.0805 35.3091C50.4532 35.3091 50.7755 35.2451 51.0475 35.1171C51.3195 34.9842 51.5286 34.7971 51.6746 34.5559C51.8257 34.3147 51.9013 34.0292 51.9013 33.6994C51.9013 33.3745 51.8257 33.0914 51.6746 32.8502C51.5286 32.609 51.3195 32.4219 51.0475 32.289C50.7755 32.1561 50.4532 32.0897 50.0805 32.0897C49.7128 32.0897 49.3904 32.1561 49.1134 32.289C48.8414 32.4219 48.6324 32.609 48.4863 32.8502C48.3402 33.0914 48.2672 33.3745 48.2672 33.6994C48.2672 34.0292 48.3402 34.3147 48.4863 34.5559C48.6324 34.7971 48.8414 34.9842 49.1134 35.1171C49.3904 35.2451 49.7128 35.3091 50.0805 35.3091Z" fill="black"/>
<path d="M53.4803 31.6245H54.1754V33.1973L54.1377 33.3302V34.0021L54.1754 34.2162V37H53.4803V31.6245ZM53.8506 33.6994C53.9614 33.2662 54.1301 32.8871 54.3568 32.5622C54.5885 32.2373 54.8655 31.9838 55.1879 31.8017C55.5152 31.6195 55.8754 31.5285 56.2683 31.5285C56.6863 31.5285 57.0565 31.6195 57.3789 31.8017C57.7013 31.9838 57.9531 32.2373 58.1344 32.5622C58.3208 32.8871 58.414 33.2662 58.414 33.6994C58.414 34.1276 58.3208 34.5067 58.1344 34.8365C57.9531 35.1614 57.7013 35.4174 57.3789 35.6044C57.0565 35.7866 56.6863 35.8776 56.2683 35.8776C55.8754 35.8776 55.5152 35.7866 55.1879 35.6044C54.8655 35.4223 54.5885 35.1688 54.3568 34.8439C54.1301 34.5141 53.9614 34.1326 53.8506 33.6994ZM57.7038 33.6994C57.7038 33.3843 57.6358 33.1062 57.4998 32.865C57.3688 32.6238 57.185 32.4367 56.9482 32.3038C56.7165 32.166 56.4521 32.097 56.1549 32.097C55.8527 32.097 55.5732 32.166 55.3163 32.3038C55.0644 32.4367 54.8403 32.6238 54.6439 32.865C54.4474 33.1062 54.2837 33.3843 54.1528 33.6994C54.2837 34.0144 54.4474 34.2925 54.6439 34.5338C54.8403 34.775 55.0644 34.9645 55.3163 35.1023C55.5732 35.2352 55.8527 35.3017 56.1549 35.3017C56.4521 35.3017 56.7165 35.2352 56.9482 35.1023C57.185 34.9645 57.3688 34.775 57.4998 34.5338C57.6358 34.2925 57.7038 34.0144 57.7038 33.6994Z" fill="black"/>
<path d="M65.5303 34.5633C65.5303 34.8291 65.4472 35.0605 65.281 35.2574C65.1198 35.4543 64.8806 35.6069 64.5632 35.7152C64.2509 35.8235 63.8707 35.8776 63.4224 35.8776C62.964 35.8776 62.5586 35.8161 62.206 35.693C61.8584 35.565 61.5864 35.3878 61.39 35.1614C61.1936 34.935 61.0878 34.6716 61.0727 34.3713H61.7829C61.8131 34.5633 61.9012 34.7331 62.0473 34.8808C62.1934 35.0236 62.3848 35.1343 62.6215 35.2131C62.8582 35.2918 63.1277 35.3312 63.4299 35.3312C63.8681 35.3312 64.2107 35.2672 64.4575 35.1392C64.7093 35.0063 64.8352 34.8267 64.8352 34.6002C64.8352 34.423 64.7546 34.2925 64.5935 34.2089C64.4323 34.1203 64.1326 34.0538 63.6944 34.0095L62.8708 33.9283C62.4629 33.8889 62.1355 33.8175 61.8887 33.7141C61.6469 33.6058 61.4731 33.4729 61.3673 33.3154C61.2616 33.153 61.2087 32.9733 61.2087 32.7764C61.2087 32.5056 61.2918 32.2792 61.458 32.097C61.6293 31.91 61.866 31.7697 62.1682 31.6762C62.4704 31.5777 62.8205 31.5285 63.2184 31.5285C63.6415 31.5285 64.0167 31.5876 64.3441 31.7057C64.6766 31.8238 64.941 31.9887 65.1374 32.2004C65.3339 32.4121 65.4422 32.6558 65.4623 32.9314H64.7597C64.7345 32.7739 64.6589 32.6312 64.533 32.5032C64.4071 32.3703 64.2308 32.2644 64.0041 32.1857C63.7825 32.1069 63.508 32.0675 63.1806 32.0675C62.7777 32.0675 62.4629 32.1241 62.2362 32.2373C62.0146 32.3506 61.9038 32.5155 61.9038 32.7321C61.9038 32.8896 61.9768 33.0151 62.1229 33.1086C62.2689 33.2022 62.5283 33.2686 62.9011 33.308L63.8379 33.404C64.2661 33.4434 64.6035 33.5123 64.8503 33.6108C65.0971 33.7092 65.2709 33.8372 65.3717 33.9947C65.4774 34.1523 65.5303 34.3418 65.5303 34.5633Z" fill="black"/>
<path d="M66.3996 30.096H67.0947V35.7816H66.3996V30.096ZM68.8476 31.5285C69.2455 31.5285 69.583 31.6072 69.86 31.7648C70.137 31.9174 70.3486 32.1414 70.4946 32.4367C70.6407 32.7271 70.7137 33.0791 70.7137 33.4926V35.7816H70.0186V33.6108C70.0186 33.1136 69.9028 32.7395 69.6711 32.4884C69.4394 32.2324 69.0969 32.1044 68.6436 32.1044C68.3363 32.1044 68.0643 32.1733 67.8276 32.3112C67.5959 32.449 67.4146 32.641 67.2836 32.8871C67.1577 33.1283 67.0947 33.4114 67.0947 33.7363L66.8152 33.5443C66.8504 33.1308 66.9587 32.7739 67.1401 32.4736C67.3214 32.1733 67.5581 31.942 67.8503 31.7795C68.1474 31.6122 68.4799 31.5285 68.8476 31.5285Z" fill="black"/>
<path d="M74.0297 35.8776C73.5411 35.8776 73.1079 35.7866 72.7302 35.6044C72.3574 35.4174 72.0628 35.1614 71.8462 34.8365C71.6347 34.5067 71.5289 34.1276 71.5289 33.6994C71.5289 33.2662 71.6296 32.8871 71.8311 32.5622C72.0326 32.2373 72.3121 31.9838 72.6697 31.8017C73.0274 31.6195 73.4379 31.5285 73.9013 31.5285C74.3596 31.5285 74.76 31.6269 75.1026 31.8238C75.4451 32.0207 75.7095 32.2989 75.8959 32.6582C76.0873 33.0127 76.183 33.4262 76.183 33.8987H72.0578V33.3597H75.8883L75.4803 33.6034C75.4652 33.2932 75.3896 33.025 75.2537 32.7985C75.1177 32.5721 74.9338 32.3973 74.7021 32.2743C74.4704 32.1512 74.2009 32.0897 73.8937 32.0897C73.5613 32.0897 73.2716 32.1561 73.0248 32.289C72.778 32.417 72.5841 32.5992 72.4431 32.8354C72.3071 33.0717 72.2391 33.3499 72.2391 33.6698C72.2391 34.0046 72.3172 34.295 72.4733 34.5411C72.6294 34.7873 72.8485 34.9768 73.1306 35.1097C73.4127 35.2426 73.7451 35.3091 74.1279 35.3091C74.4755 35.3091 74.8154 35.2525 75.1479 35.1392C75.4854 35.026 75.7876 34.871 76.0545 34.6741V35.2057C75.7926 35.4124 75.4803 35.5774 75.1177 35.7004C74.755 35.8186 74.3923 35.8776 74.0297 35.8776Z" fill="black"/>
<path d="M77.0464 30.096H77.7415V35.7816H77.0464V30.096Z" fill="black"/>
<path d="M81.2261 30.5538C80.8433 30.5538 80.5512 30.6399 80.3497 30.8122C80.1482 30.9796 80.0475 31.2602 80.0475 31.654V35.7816H79.3524V31.75C79.3524 31.4153 79.4129 31.1174 79.5337 30.8565C79.6546 30.5907 79.846 30.3815 80.1079 30.2289C80.3749 30.0763 80.7224 30 81.1506 30C81.3621 30 81.5485 30.0197 81.7097 30.0591C81.8759 30.0935 82.032 30.1378 82.1781 30.192V30.7605C82.032 30.6867 81.8809 30.635 81.7248 30.6055C81.5686 30.571 81.4024 30.5538 81.2261 30.5538ZM78.4156 32.4293V31.8755H82.1026V32.4293H78.4156Z" fill="black"/>
<path d="M85.4568 30.2437H86.0536C85.7111 30.7655 85.4593 31.2823 85.2981 31.7943C85.1369 32.3063 85.0563 32.8305 85.0563 33.3671C85.0563 33.8987 85.1369 34.4205 85.2981 34.9325C85.4593 35.4444 85.7111 35.9638 86.0536 36.4905H85.4568C85.079 35.9786 84.7969 35.4666 84.6106 34.9546C84.4292 34.4427 84.3386 33.9135 84.3386 33.3671C84.3386 32.8207 84.4292 32.2915 84.6106 31.7795C84.7969 31.2676 85.079 30.7556 85.4568 30.2437Z" fill="black"/>
<path d="M90.5239 30.2437V35.7816H89.8137V30.5169H90.1537L86.7613 34.2236L86.7538 33.9652H91.627V34.5411H86.1494V34.0316L89.6248 30.2437H90.5239Z" fill="black"/>
<path d="M92.0782 32.1044C92.1084 31.7106 92.2368 31.3685 92.4635 31.0781C92.6952 30.7827 92.9999 30.5538 93.3777 30.3914C93.7605 30.2289 94.1937 30.1477 94.6772 30.1477C95.1456 30.1477 95.5536 30.2191 95.9012 30.3618C96.2537 30.5046 96.5283 30.7064 96.7247 30.9673C96.9211 31.2282 97.0193 31.5309 97.0193 31.8755C97.0193 32.1414 96.9539 32.3899 96.8229 32.6213C96.697 32.8477 96.4829 33.0816 96.1807 33.3228C95.8835 33.564 95.4781 33.8397 94.9643 34.1498L92.9017 35.4051L92.811 35.1909H97.2082V35.7816H92.1008V35.25L94.4959 33.7732C94.9391 33.4975 95.2917 33.2588 95.5536 33.057C95.8206 32.8502 96.012 32.6558 96.1278 32.4736C96.2437 32.2915 96.3016 32.0995 96.3016 31.8977C96.3016 31.6663 96.2361 31.4645 96.1052 31.2922C95.9792 31.115 95.7929 30.9771 95.5461 30.8787C95.3043 30.7802 95.0096 30.731 94.6621 30.731C94.2591 30.731 93.9217 30.7925 93.6497 30.9156C93.3827 31.0338 93.1787 31.1962 93.0377 31.403C92.9017 31.6097 92.8211 31.8435 92.7959 32.1044H92.0782Z" fill="black"/>
<path d="M100.839 35.8776C100.235 35.8776 99.7136 35.7595 99.2754 35.5232C98.8422 35.282 98.5098 34.9473 98.2781 34.519C98.0464 34.0907 97.9305 33.5886 97.9305 33.0127C97.9305 32.4367 98.0464 31.9346 98.2781 31.5063C98.5098 31.0781 98.8422 30.7458 99.2754 30.5095C99.7136 30.2683 100.235 30.1477 100.839 30.1477C101.444 30.1477 101.963 30.2683 102.396 30.5095C102.829 30.7458 103.161 31.0781 103.393 31.5063C103.625 31.9346 103.741 32.4367 103.741 33.0127C103.741 33.5837 103.625 34.0858 103.393 34.519C103.161 34.9473 102.829 35.282 102.396 35.5232C101.963 35.7595 101.444 35.8776 100.839 35.8776ZM100.839 35.2869C101.524 35.2869 102.058 35.0876 102.441 34.6888C102.824 34.2901 103.015 33.7314 103.015 33.0127C103.015 32.294 102.824 31.7352 102.441 31.3365C102.058 30.9328 101.524 30.731 100.839 30.731C100.149 30.731 99.6128 30.9328 99.23 31.3365C98.8472 31.7352 98.6558 32.294 98.6558 33.0127C98.6558 33.7314 98.8472 34.2901 99.23 34.6888C99.6128 35.0876 100.149 35.2869 100.839 35.2869Z" fill="black"/>
<path d="M106.606 31.6245H107.302L107.543 33.0348V35.7816H106.848V32.9388L106.606 31.6245ZM109.168 31.5285C109.535 31.5285 109.848 31.6072 110.105 31.7648C110.361 31.9174 110.558 32.1414 110.694 32.4367C110.83 32.7271 110.898 33.0791 110.898 33.4926V35.7816H110.203V33.6108C110.203 33.1136 110.097 32.7395 109.885 32.4884C109.674 32.2324 109.367 32.1044 108.964 32.1044C108.677 32.1044 108.425 32.1733 108.208 32.3112C107.997 32.449 107.833 32.641 107.717 32.8871C107.601 33.1283 107.543 33.4114 107.543 33.7363L107.264 33.5443C107.299 33.1308 107.4 32.7739 107.566 32.4736C107.737 32.1733 107.959 31.942 108.231 31.7795C108.508 31.6122 108.82 31.5285 109.168 31.5285ZM112.515 31.5285C112.882 31.5285 113.195 31.6072 113.452 31.7648C113.713 31.9174 113.912 32.1414 114.048 32.4367C114.184 32.7271 114.252 33.0791 114.252 33.4926V35.7816H113.557V33.6108C113.557 33.1136 113.452 32.7395 113.24 32.4884C113.028 32.2324 112.721 32.1044 112.318 32.1044C112.031 32.1044 111.779 32.1733 111.563 32.3112C111.351 32.449 111.188 32.641 111.072 32.8871C110.956 33.1283 110.898 33.4114 110.898 33.7363L110.618 33.5443C110.654 33.1308 110.754 32.7739 110.921 32.4736C111.092 32.1733 111.313 31.942 111.585 31.7795C111.862 31.6122 112.172 31.5285 112.515 31.5285Z" fill="black"/>
<path d="M115.121 31.6245H115.816L116.058 33.0348V35.7816H115.363V32.9388L115.121 31.6245ZM117.682 31.5285C118.05 31.5285 118.362 31.6072 118.619 31.7648C118.876 31.9174 119.072 32.1414 119.208 32.4367C119.344 32.7271 119.412 33.0791 119.412 33.4926V35.7816H118.717V33.6108C118.717 33.1136 118.612 32.7395 118.4 32.4884C118.188 32.2324 117.881 32.1044 117.478 32.1044C117.191 32.1044 116.939 32.1733 116.723 32.3112C116.511 32.449 116.347 32.641 116.232 32.8871C116.116 33.1283 116.058 33.4114 116.058 33.7363L115.778 33.5443C115.814 33.1308 115.914 32.7739 116.08 32.4736C116.252 32.1733 116.473 31.942 116.745 31.7795C117.022 31.6122 117.335 31.5285 117.682 31.5285ZM121.029 31.5285C121.397 31.5285 121.709 31.6072 121.966 31.7648C122.228 31.9174 122.427 32.1414 122.563 32.4367C122.699 32.7271 122.767 33.0791 122.767 33.4926V35.7816H122.072V33.6108C122.072 33.1136 121.966 32.7395 121.755 32.4884C121.543 32.2324 121.236 32.1044 120.833 32.1044C120.546 32.1044 120.294 32.1733 120.077 32.3112C119.866 32.449 119.702 32.641 119.586 32.8871C119.47 33.1283 119.412 33.4114 119.412 33.7363L119.133 33.5443C119.168 33.1308 119.269 32.7739 119.435 32.4736C119.606 32.1733 119.828 31.942 120.1 31.7795C120.377 31.6122 120.687 31.5285 121.029 31.5285Z" fill="black"/>
<path d="M123.889 30.2437C124.262 30.7556 124.539 31.2676 124.72 31.7795C124.907 32.2915 125 32.8207 125 33.3671C125 33.9135 124.907 34.4427 124.72 34.9546C124.539 35.4666 124.262 35.9786 123.889 36.4905H123.292C123.63 35.9638 123.879 35.4444 124.04 34.9325C124.202 34.4205 124.282 33.8987 124.282 33.3671C124.282 32.8305 124.202 32.3063 124.04 31.7943C123.879 31.2823 123.63 30.7655 123.292 30.2437H123.889Z" fill="black"/>
<defs>
<linearGradient id="paint0_linear_218_1686" x1="85.5" y1="0" x2="85.5" y2="293" gradientUnits="userSpaceOnUse">
<stop stop-color="#DEDEDE"/>
<stop offset="0.161458" stop-color="#DCD9D5"/>
<stop offset="0.723958" stop-color="#EDEBE7"/>
<stop offset="1" stop-color="#E4E1D9"/>
</linearGradient>
<linearGradient id="paint1_linear_218_1686" x1="92.7511" y1="280.148" x2="92.7511" y2="273.431" gradientUnits="userSpaceOnUse">
<stop stop-color="#D1D1D1"/>
<stop offset="0.14" stop-color="#DEDEDE"/>
<stop offset="0.41" stop-color="#F0F0F0"/>
<stop offset="0.69" stop-color="#FBFBFB"/>
<stop offset="1" stop-color="white"/>
</linearGradient>
<linearGradient id="paint2_linear_218_1686" x1="85.9019" y1="287.946" x2="85.9019" y2="279.901" gradientUnits="userSpaceOnUse">
<stop stop-color="white"/>
<stop offset="0.31" stop-color="#FBFBFB"/>
<stop offset="0.59" stop-color="#F0F0F0"/>
<stop offset="0.86" stop-color="#DEDEDE"/>
<stop offset="1" stop-color="#D1D1D1"/>
</linearGradient>
<linearGradient id="paint3_linear_218_1686" x1="72.8848" y1="186.971" x2="83.1947" y2="277.821" gradientUnits="userSpaceOnUse">
<stop stop-color="white"/>
<stop offset="1" stop-color="#D3D2D1"/>
</linearGradient>
<linearGradient id="paint4_linear_218_1686" x1="73.6044" y1="161.019" x2="83.5965" y2="251.09" gradientUnits="userSpaceOnUse">
<stop stop-color="white"/>
<stop offset="1" stop-color="#D3D2D1"/>
</linearGradient>
<linearGradient id="paint5_linear_218_1686" x1="66.8924" y1="192.809" x2="77.2024" y2="283.666" gradientUnits="userSpaceOnUse">
<stop stop-color="white"/>
<stop offset="1" stop-color="#D3D2D1"/>
</linearGradient>
<linearGradient id="paint6_linear_218_1686" x1="-2.79922" y1="192.177" x2="49.1933" y2="332.406" gradientUnits="userSpaceOnUse">
<stop stop-color="white"/>
<stop offset="1" stop-color="#D3D2D1"/>
</linearGradient>
<linearGradient id="paint7_linear_218_1686" x1="85.0645" y1="211.32" x2="85.0645" y2="210.903" gradientUnits="userSpaceOnUse">
<stop stop-color="#5B544D"/>
<stop offset="0.41" stop-color="#544C44"/>
<stop offset="1" stop-color="#453B2F"/>
</linearGradient>
<linearGradient id="paint8_linear_218_1686" x1="85.0645" y1="185.567" x2="85.0645" y2="185.15" gradientUnits="userSpaceOnUse">
<stop stop-color="#5B544D"/>
<stop offset="0.41" stop-color="#544C44"/>
<stop offset="1" stop-color="#453B2F"/>
</linearGradient>
<linearGradient id="paint9_linear_218_1686" x1="84.957" y1="237.424" x2="84.957" y2="237.007" gradientUnits="userSpaceOnUse">
<stop stop-color="#5B544D"/>
<stop offset="0.41" stop-color="#544C44"/>
<stop offset="1" stop-color="#453B2F"/>
</linearGradient>
<linearGradient id="paint10_linear_218_1686" x1="84.957" y1="263.561" x2="84.957" y2="263.144" gradientUnits="userSpaceOnUse">
<stop stop-color="#5B544D"/>
<stop offset="0.41" stop-color="#544C44"/>
<stop offset="1" stop-color="#453B2F"/>
</linearGradient>
<linearGradient id="paint11_linear_218_1686" x1="84.7659" y1="197" x2="84.7659" y2="199" gradientUnits="userSpaceOnUse">
<stop offset="0.09375" stop-color="#ADADAD"/>
<stop offset="0.348958" stop-color="white"/>
<stop offset="0.65625" stop-color="#D5D4D4"/>
<stop offset="1" stop-color="#A6A5A5"/>
</linearGradient>
<linearGradient id="paint12_linear_218_1686" x1="84.7659" y1="249" x2="84.7659" y2="251" gradientUnits="userSpaceOnUse">
<stop offset="0.09375" stop-color="#ADADAD"/>
<stop offset="0.348958" stop-color="white"/>
<stop offset="0.65625" stop-color="#D5D4D4"/>
<stop offset="1" stop-color="#A6A5A5"/>
</linearGradient>
<linearGradient id="paint13_linear_218_1686" x1="84.7659" y1="223" x2="84.7659" y2="225" gradientUnits="userSpaceOnUse">
<stop offset="0.09375" stop-color="#ADADAD"/>
<stop offset="0.348958" stop-color="white"/>
<stop offset="0.65625" stop-color="#D5D4D4"/>
<stop offset="1" stop-color="#A6A5A5"/>
</linearGradient>
<linearGradient id="paint14_linear_218_1686" x1="84.7659" y1="275" x2="84.7659" y2="277" gradientUnits="userSpaceOnUse">
<stop offset="0.09375" stop-color="#ADADAD"/>
<stop offset="0.348958" stop-color="white"/>
<stop offset="0.65625" stop-color="#D5D4D4"/>
<stop offset="1" stop-color="#A6A5A5"/>
</linearGradient>
<linearGradient id="paint15_linear_218_1686" x1="84.798" y1="85.3535" x2="84.798" y2="91.5971" gradientUnits="userSpaceOnUse">
<stop stop-color="white"/>
<stop offset="0.31" stop-color="#FBFBFB"/>
<stop offset="0.59" stop-color="#F0F0F0"/>
<stop offset="0.86" stop-color="#DEDEDE"/>
<stop offset="1" stop-color="#D1D1D1"/>
</linearGradient>
<linearGradient id="paint16_linear_218_1686" x1="85.3546" y1="111.78" x2="85.3546" y2="95.1405" gradientUnits="userSpaceOnUse">
<stop stop-color="white"/>
<stop offset="0.31" stop-color="#FBFBFB"/>
<stop offset="0.59" stop-color="#F0F0F0"/>
<stop offset="0.86" stop-color="#DEDEDE"/>
<stop offset="1" stop-color="#D1D1D1"/>
</linearGradient>
<linearGradient id="paint17_linear_218_1686" x1="84.766" y1="107.335" x2="84.766" y2="89.1494" gradientUnits="userSpaceOnUse">
<stop stop-color="white"/>
<stop offset="0.31" stop-color="#FBFBFB"/>
<stop offset="0.59" stop-color="#F0F0F0"/>
<stop offset="0.86" stop-color="#DEDEDE"/>
<stop offset="1" stop-color="#D1D1D1"/>
</linearGradient>
<linearGradient id="paint18_linear_218_1686" x1="85.1465" y1="-0.646494" x2="85.1465" y2="5.59714" gradientUnits="userSpaceOnUse">
<stop stop-color="white"/>
<stop offset="0.31" stop-color="#FBFBFB"/>
<stop offset="0.59" stop-color="#F0F0F0"/>
<stop offset="0.86" stop-color="#DEDEDE"/>
<stop offset="1" stop-color="#D1D1D1"/>
</linearGradient>
<linearGradient id="paint19_linear_218_1686" x1="86.5" y1="25.7805" x2="86.5" y2="9.14049" gradientUnits="userSpaceOnUse">
<stop stop-color="white"/>
<stop offset="0.31" stop-color="#FBFBFB"/>
<stop offset="0.59" stop-color="#F0F0F0"/>
<stop offset="0.86" stop-color="#DEDEDE"/>
<stop offset="1" stop-color="#D1D1D1"/>
</linearGradient>
<linearGradient id="paint20_linear_218_1686" x1="89" y1="9.47112" x2="89" y2="3.05272" gradientUnits="userSpaceOnUse">
<stop stop-color="white"/>
<stop offset="0.31" stop-color="#FBFBFB"/>
<stop offset="0.59" stop-color="#F0F0F0"/>
<stop offset="0.86" stop-color="#DEDEDE"/>
<stop offset="1" stop-color="#D1D1D1"/>
</linearGradient>
<linearGradient id="paint21_linear_218_1686" x1="86.2622" y1="49.64" x2="86.2622" y2="43.4074" gradientUnits="userSpaceOnUse">
<stop stop-color="white"/>
<stop offset="0.31" stop-color="#FBFBFB"/>
<stop offset="0.59" stop-color="#F0F0F0"/>
<stop offset="0.86" stop-color="#DEDEDE"/>
<stop offset="1" stop-color="#D1D1D1"/>
</linearGradient>
<linearGradient id="paint22_linear_218_1686" x1="87.0974" y1="23.2195" x2="87.0974" y2="39.8595" gradientUnits="userSpaceOnUse">
<stop stop-color="white"/>
<stop offset="0.31" stop-color="#FBFBFB"/>
<stop offset="0.59" stop-color="#F0F0F0"/>
<stop offset="0.86" stop-color="#DEDEDE"/>
<stop offset="1" stop-color="#D1D1D1"/>
</linearGradient>
<linearGradient id="paint23_linear_218_1686" x1="85.5002" y1="27.6652" x2="85.5002" y2="45.8506" gradientUnits="userSpaceOnUse">
<stop stop-color="white"/>
<stop offset="0.31" stop-color="#FBFBFB"/>
<stop offset="0.59" stop-color="#F0F0F0"/>
<stop offset="0.86" stop-color="#DEDEDE"/>
<stop offset="1" stop-color="#D1D1D1"/>
</linearGradient>
<linearGradient id="paint24_linear_218_1686" x1="84.798" y1="131.354" x2="84.798" y2="137.597" gradientUnits="userSpaceOnUse">
<stop stop-color="white"/>
<stop offset="0.31" stop-color="#FBFBFB"/>
<stop offset="0.59" stop-color="#F0F0F0"/>
<stop offset="0.86" stop-color="#DEDEDE"/>
<stop offset="1" stop-color="#D1D1D1"/>
</linearGradient>
<linearGradient id="paint25_linear_218_1686" x1="85.3546" y1="157.78" x2="85.3546" y2="141.14" gradientUnits="userSpaceOnUse">
<stop stop-color="white"/>
<stop offset="0.31" stop-color="#FBFBFB"/>
<stop offset="0.59" stop-color="#F0F0F0"/>
<stop offset="0.86" stop-color="#DEDEDE"/>
<stop offset="1" stop-color="#D1D1D1"/>
</linearGradient>
<linearGradient id="paint26_linear_218_1686" x1="84.766" y1="153.335" x2="84.766" y2="135.149" gradientUnits="userSpaceOnUse">
<stop stop-color="white"/>
<stop offset="0.31" stop-color="#FBFBFB"/>
<stop offset="0.59" stop-color="#F0F0F0"/>
<stop offset="0.86" stop-color="#DEDEDE"/>
<stop offset="1" stop-color="#D1D1D1"/>
</linearGradient>
</defs>
</svg>
