<svg width="137" height="317" viewBox="0 0 137 317" fill="none" xmlns="http://www.w3.org/2000/svg">
<path d="M13.0273 307H127.419L133 317H7L13.0273 307Z" fill="#B9B7B7"/>
<path d="M40 297.69C40.0314 297.35 40.1647 297.054 40.3999 296.803C40.6404 296.548 40.9567 296.351 41.3488 296.21C41.7462 296.07 42.1958 296 42.6977 296C43.1839 296 43.6073 296.062 43.9681 296.185C44.334 296.308 44.619 296.482 44.8229 296.708C45.0268 296.933 45.1287 297.194 45.1287 297.492C45.1287 297.722 45.0607 297.936 44.9248 298.136C44.7941 298.332 44.5719 298.533 44.2582 298.742C43.9498 298.95 43.5289 299.188 42.9957 299.456L40.8548 300.54L40.7607 300.355H45.3248V300.865H40.0235V300.406L42.5095 299.131C42.9695 298.893 43.3355 298.687 43.6073 298.512C43.8844 298.334 44.0831 298.166 44.2033 298.009C44.3236 297.851 44.3837 297.685 44.3837 297.511C44.3837 297.311 44.3157 297.137 44.1798 296.988C44.0491 296.835 43.8557 296.716 43.5995 296.631C43.3486 296.546 43.0427 296.504 42.682 296.504C42.2637 296.504 41.9135 296.557 41.6311 296.663C41.3541 296.765 41.1423 296.905 40.9959 297.084C40.8548 297.262 40.7711 297.464 40.745 297.69H40Z" fill="#303030"/>
<path d="M46.6469 296.083H50.7875V296.58H46.9136L47.2194 296.395L46.89 298.557L46.6391 298.563C46.7698 298.41 46.9423 298.27 47.1567 298.142C47.3763 298.011 47.6324 297.904 47.9252 297.824C48.218 297.743 48.5395 297.702 48.8898 297.702C49.4073 297.702 49.8413 297.775 50.1915 297.919C50.5418 298.064 50.8058 298.257 50.9836 298.499C51.1666 298.742 51.2581 299.014 51.2581 299.316C51.2581 299.634 51.1509 299.917 50.9365 300.164C50.7222 300.406 50.4216 300.597 50.0347 300.738C49.6478 300.878 49.193 300.948 48.6702 300.948C48.1369 300.948 47.6769 300.884 47.29 300.757C46.9031 300.625 46.5947 300.448 46.3646 300.227C46.1398 300.006 45.996 299.758 45.9333 299.481H46.6783C46.762 299.775 46.9737 300.009 47.3135 300.183C47.6586 300.357 48.1108 300.444 48.6702 300.444C49.0414 300.444 49.3629 300.397 49.6348 300.304C49.9118 300.21 50.1262 300.081 50.2778 299.915C50.4347 299.745 50.5131 299.545 50.5131 299.316C50.5131 299.09 50.4451 298.895 50.3092 298.729C50.1733 298.559 49.9772 298.427 49.721 298.334C49.4701 298.24 49.1616 298.193 48.7957 298.193C48.4768 298.193 48.1892 298.23 47.933 298.302C47.6769 298.37 47.4547 298.457 47.2665 298.563C47.0783 298.67 46.924 298.782 46.8038 298.901H46.2235L46.6469 296.083Z" fill="#303030"/>
<path d="M55.0288 300.948C54.4014 300.948 53.8603 300.846 53.4055 300.642C52.9559 300.434 52.6108 300.145 52.3704 299.775C52.1299 299.405 52.0096 298.971 52.0096 298.474C52.0096 297.977 52.1299 297.543 52.3704 297.173C52.6108 296.803 52.9559 296.516 53.4055 296.312C53.8603 296.104 54.4014 296 55.0288 296C55.6562 296 56.1947 296.104 56.6443 296.312C57.0939 296.516 57.4389 296.803 57.6794 297.173C57.9199 297.543 58.0402 297.977 58.0402 298.474C58.0402 298.967 57.9199 299.401 57.6794 299.775C57.4389 300.145 57.0939 300.434 56.6443 300.642C56.1947 300.846 55.6562 300.948 55.0288 300.948ZM55.0288 300.438C55.7398 300.438 56.294 300.266 56.6913 299.921C57.0887 299.577 57.2873 299.095 57.2873 298.474C57.2873 297.853 57.0887 297.371 56.6913 297.027C56.294 296.678 55.7398 296.504 55.0288 296.504C54.3126 296.504 53.7558 296.678 53.3585 297.027C52.9611 297.371 52.7625 297.853 52.7625 298.474C52.7625 299.095 52.9611 299.577 53.3585 299.921C53.7558 300.266 54.3126 300.438 55.0288 300.438Z" fill="#303030"/>
<path d="M58.8475 297.275H59.569L59.8199 298.493V300.865H59.0985V298.41L58.8475 297.275ZM61.506 297.192C61.8876 297.192 62.2118 297.26 62.4784 297.396C62.745 297.528 62.9489 297.722 63.0901 297.977C63.2312 298.227 63.3018 298.531 63.3018 298.888V300.865H62.5803V298.99C62.5803 298.561 62.4706 298.238 62.251 298.021C62.0314 297.8 61.7125 297.69 61.2942 297.69C60.9962 297.69 60.7348 297.749 60.51 297.868C60.2905 297.987 60.1206 298.153 60.0003 298.366C59.8801 298.574 59.8199 298.818 59.8199 299.099L59.5298 298.933C59.5664 298.576 59.6709 298.268 59.8435 298.009C60.0212 297.749 60.2513 297.549 60.5336 297.409C60.8211 297.265 61.1452 297.192 61.506 297.192ZM64.98 297.192C65.3617 297.192 65.6858 297.26 65.9524 297.396C66.2243 297.528 66.4308 297.722 66.5719 297.977C66.7131 298.227 66.7837 298.531 66.7837 298.888V300.865H66.0622V298.99C66.0622 298.561 65.9524 298.238 65.7328 298.021C65.5133 297.8 65.1944 297.69 64.7761 297.69C64.4781 297.69 64.2167 297.749 63.9919 297.868C63.7723 297.987 63.6024 298.153 63.4822 298.366C63.3619 298.574 63.3018 298.818 63.3018 299.099L63.0117 298.933C63.0483 298.576 63.1528 298.268 63.3253 298.009C63.5031 297.749 63.7331 297.549 64.0154 297.409C64.303 297.265 64.6245 297.192 64.98 297.192Z" fill="#303030"/>
<path d="M67.6852 297.275H68.4066L68.6576 298.493V300.865H67.9361V298.41L67.6852 297.275ZM70.3436 297.192C70.7253 297.192 71.0494 297.26 71.316 297.396C71.5827 297.528 71.7865 297.722 71.9277 297.977C72.0689 298.227 72.1394 298.531 72.1394 298.888V300.865H71.418V298.99C71.418 298.561 71.3082 298.238 71.0886 298.021C70.869 297.8 70.5501 297.69 70.1319 297.69C69.8339 297.69 69.5725 297.749 69.3477 297.868C69.1281 297.987 68.9582 298.153 68.8379 298.366C68.7177 298.574 68.6576 298.818 68.6576 299.099L68.3674 298.933C68.404 298.576 68.5086 298.268 68.6811 298.009C68.8588 297.749 69.0889 297.549 69.3712 297.409C69.6587 297.265 69.9829 297.192 70.3436 297.192ZM73.8176 297.192C74.1993 297.192 74.5234 297.26 74.7901 297.396C75.0619 297.528 75.2684 297.722 75.4096 297.977C75.5507 298.227 75.6213 298.531 75.6213 298.888V300.865H74.8998V298.99C74.8998 298.561 74.7901 298.238 74.5705 298.021C74.3509 297.8 74.032 297.69 73.6137 297.69C73.3158 297.69 73.0543 297.749 72.8295 297.868C72.61 297.987 72.4401 298.153 72.3198 298.366C72.1996 298.574 72.1394 298.818 72.1394 299.099L71.8493 298.933C71.8859 298.576 71.9904 298.268 72.163 298.009C72.3407 297.749 72.5708 297.549 72.8531 297.409C73.1406 297.265 73.4621 297.192 73.8176 297.192Z" fill="#303030"/>
<path d="M83.0032 299.991V299.348L83.0346 299.252V298.659L83.0032 298.531V297.275H83.7247V299.909C83.7247 300.376 83.607 300.765 83.3718 301.075C83.1417 301.386 82.8281 301.617 82.4307 301.77C82.0334 301.923 81.5812 302 81.0741 302C80.6924 302 80.3369 301.955 80.0075 301.866C79.6834 301.781 79.3723 301.649 79.0743 301.471V300.954C79.388 301.163 79.7095 301.307 80.0389 301.388C80.3735 301.469 80.7055 301.509 81.0348 301.509C81.6727 301.509 82.1589 301.373 82.4935 301.101C82.8333 300.833 83.0032 300.463 83.0032 299.991ZM80.7604 300.635C80.363 300.635 80.0023 300.563 79.6782 300.419C79.3593 300.274 79.1057 300.074 78.9175 299.819C78.7293 299.56 78.6352 299.258 78.6352 298.914C78.6352 298.565 78.7293 298.264 78.9175 298.009C79.1057 297.749 79.3593 297.549 79.6782 297.409C80.0023 297.265 80.363 297.192 80.7604 297.192C81.0584 297.192 81.3355 297.231 81.5916 297.307C81.8478 297.379 82.0805 297.477 82.2896 297.6C82.4987 297.724 82.6764 297.862 82.8228 298.015C82.9692 298.168 83.0816 298.323 83.16 298.48C83.2437 298.633 83.2855 298.778 83.2855 298.914C83.2855 299.088 83.2228 299.275 83.0973 299.475C82.9771 299.671 82.8019 299.858 82.5719 300.036C82.3471 300.21 82.0805 300.355 81.772 300.47C81.4688 300.58 81.1316 300.635 80.7604 300.635ZM80.9564 300.164C81.3642 300.164 81.7406 300.066 82.0857 299.87C82.4307 299.675 82.747 299.356 83.0346 298.914C82.7523 298.463 82.436 298.142 82.0857 297.951C81.7406 297.756 81.3642 297.658 80.9564 297.658C80.6166 297.658 80.3264 297.713 80.086 297.824C79.8507 297.93 79.6703 298.077 79.5449 298.264C79.4246 298.451 79.3645 298.667 79.3645 298.914C79.3645 299.152 79.4246 299.367 79.5449 299.558C79.6703 299.745 79.8507 299.894 80.086 300.004C80.3264 300.111 80.6166 300.164 80.9564 300.164Z" fill="#303030"/>
<path d="M89.0629 300.865L88.9061 299.507L89.1021 299.067L88.9061 298.633L89.0629 297.275H89.8001L89.5962 299.067L89.8001 300.865H89.0629ZM89.3452 299.067C89.2302 299.441 89.0525 299.77 88.812 300.055C88.5767 300.336 88.2892 300.555 87.9493 300.712C87.6147 300.869 87.2435 300.948 86.8358 300.948C86.4018 300.948 86.0176 300.869 85.683 300.712C85.3484 300.55 85.0844 300.329 84.8909 300.049C84.7027 299.764 84.6086 299.437 84.6086 299.067C84.6086 298.693 84.7027 298.366 84.8909 298.085C85.0844 297.804 85.3484 297.586 85.683 297.428C86.0176 297.271 86.4018 297.192 86.8358 297.192C87.2435 297.192 87.6147 297.271 87.9493 297.428C88.2892 297.586 88.5793 297.804 88.8198 298.085C89.0603 298.366 89.2354 298.693 89.3452 299.067ZM85.3458 299.067C85.3458 299.339 85.4137 299.579 85.5497 299.787C85.6908 299.996 85.8816 300.159 86.1221 300.278C86.3678 300.393 86.6449 300.451 86.9534 300.451C87.2671 300.451 87.5546 300.393 87.816 300.278C88.0826 300.159 88.3179 299.996 88.5218 299.787C88.7309 299.579 88.9008 299.339 89.0315 299.067C88.9008 298.795 88.7309 298.555 88.5218 298.346C88.3179 298.138 88.0826 297.977 87.816 297.862C87.5546 297.743 87.2671 297.683 86.9534 297.683C86.6449 297.683 86.3678 297.743 86.1221 297.862C85.8816 297.977 85.6908 298.138 85.5497 298.346C85.4137 298.555 85.3458 298.795 85.3458 299.067Z" fill="#303030"/>
<path d="M90.8791 297.275H91.6006V298.633L91.5614 298.748V299.328L91.6006 299.513V301.917H90.8791V297.275ZM91.2634 299.067C91.3784 298.693 91.5536 298.366 91.7888 298.085C92.0293 297.804 92.3168 297.586 92.6514 297.428C92.9913 297.271 93.3651 297.192 93.7729 297.192C94.2068 297.192 94.591 297.271 94.9256 297.428C95.2602 297.586 95.5216 297.804 95.7098 298.085C95.9033 298.366 96 298.693 96 299.067C96 299.437 95.9033 299.764 95.7098 300.049C95.5216 300.329 95.2602 300.55 94.9256 300.712C94.591 300.869 94.2068 300.948 93.7729 300.948C93.3651 300.948 92.9913 300.869 92.6514 300.712C92.3168 300.555 92.0293 300.336 91.7888 300.055C91.5536 299.77 91.3784 299.441 91.2634 299.067ZM95.2628 299.067C95.2628 298.795 95.1923 298.555 95.0511 298.346C94.9152 298.138 94.7244 297.977 94.4786 297.862C94.2382 297.743 93.9637 297.683 93.6552 297.683C93.3415 297.683 93.0514 297.743 92.7848 297.862C92.5234 297.977 92.2907 298.138 92.0868 298.346C91.8829 298.555 91.713 298.795 91.5771 299.067C91.713 299.339 91.8829 299.579 92.0868 299.787C92.2907 299.996 92.5234 300.159 92.7848 300.278C93.0514 300.393 93.3415 300.451 93.6552 300.451C93.9637 300.451 94.2382 300.393 94.4786 300.278C94.7244 300.159 94.9152 299.996 95.0511 299.787C95.1923 299.579 95.2628 299.339 95.2628 299.067Z" fill="#303030"/>
<path d="M28.9146 295.823C28.8169 295.726 28.6586 295.726 28.561 295.823L26.97 297.414C26.8724 297.512 26.8724 297.67 26.97 297.768C27.0677 297.865 27.2259 297.865 27.3236 297.768L28.7378 296.354L30.152 297.768C30.2496 297.865 30.4079 297.865 30.5056 297.768C30.6032 297.67 30.6032 297.512 30.5056 297.414L28.9146 295.823ZM28.561 302.458C28.6586 302.556 28.8169 302.556 28.9146 302.458L30.5056 300.867C30.6032 300.77 30.6032 300.611 30.5056 300.514C30.4079 300.416 30.2496 300.416 30.152 300.514L28.7378 301.928L27.3236 300.514C27.2259 300.416 27.0677 300.416 26.97 300.514C26.8724 300.611 26.8724 300.77 26.97 300.867L28.561 302.458ZM28.4878 296L28.4878 302.281L28.9878 302.281L28.9878 296L28.4878 296Z" fill="#303030"/>
<path d="M137 0H0V293H137V0Z" fill="url(#paint0_linear_218_1864)"/>
<path d="M134 3H3V289H134V3Z" fill="#C8C6C6"/>
<path d="M116.035 52H20.6738V278H116.035V52Z" fill="#DDDDDD"/>
<path d="M115.195 61H21.5142L3.01416 49H133.695L115.195 61Z" fill="#B9B7B7"/>
<rect x="18" y="9" width="104" height="31" fill="white"/>
<path d="M134 0H3V3H134V0Z" fill="#E0DDDD"/>
<path d="M120.047 8.90852H16.927L3.19812 2.83618H133.952L120.047 8.90852Z" fill="#C6C6C6"/>
<path style="mix-blend-mode:multiply" opacity="0.5" d="M133.621 3H3.19812L16.927 9.01062H121.5L133.621 3Z" fill="url(#paint1_linear_218_1864)"/>
<path style="mix-blend-mode:multiply" d="M122 9H17V25H122V9Z" fill="url(#paint2_linear_218_1864)"/>
<path style="mix-blend-mode:multiply" d="M130.618 9H17L3 3H134L130.618 9Z" fill="url(#paint3_linear_218_1864)"/>
<path d="M3 49L134 49L134 46L3 46L3 49Z" fill="white"/>
<path d="M16.9314 40L120.245 40L134 46L3.00018 46L16.9314 40Z" fill="#C6C6C6"/>
<path style="mix-blend-mode:multiply" opacity="0.5" d="M4.00018 46L134 46L120.316 40L18.1178 40L4.00018 46Z" fill="url(#paint4_linear_218_1864)"/>
<path style="mix-blend-mode:multiply" d="M17.5073 40L122.687 40L122.687 24L17.5073 24L17.5073 40Z" fill="url(#paint5_linear_218_1864)"/>
<path style="mix-blend-mode:multiply" d="M6.57292 29L130.873 29L134 46L3.00019 46L6.57292 29Z" fill="url(#paint6_linear_218_1864)"/>
<path d="M133.695 100H3.01416V103H133.695V100Z" fill="white"/>
<path d="M119.567 108.909H16.7083L3.01416 102.836H133.437L119.567 108.909Z" fill="#C6C6C6"/>
<path style="mix-blend-mode:multiply" opacity="0.5" d="M133.106 103H3.01416L16.7083 109.011H118.979L133.106 103Z" fill="url(#paint7_linear_218_1864)"/>
<path style="mix-blend-mode:multiply" d="M119.567 109H17.1418V125H119.567V109Z" fill="url(#paint8_linear_218_1864)"/>
<path style="mix-blend-mode:multiply" d="M130.099 120H4.98475L1.83691 103H133.695L130.099 120Z" fill="url(#paint9_linear_218_1864)"/>
<path d="M133.695 164H3.01416V167H133.695V164Z" fill="white"/>
<path d="M119.567 172.909H16.7083L3.01416 166.836H133.437L119.567 172.909Z" fill="#C6C6C6"/>
<path style="mix-blend-mode:multiply" opacity="0.5" d="M133.106 167H3.01416L16.7083 173.011H118.979L133.106 167Z" fill="url(#paint10_linear_218_1864)"/>
<path style="mix-blend-mode:multiply" d="M119.567 173H17.1418V189H119.567V173Z" fill="url(#paint11_linear_218_1864)"/>
<path style="mix-blend-mode:multiply" d="M130.099 184H4.98475L1.83691 167H133.695L130.099 184Z" fill="url(#paint12_linear_218_1864)"/>
<path d="M133.695 228H3.01416V231H133.695V228Z" fill="white"/>
<path d="M119.567 236.909H16.7083L3.01416 230.836H133.437L119.567 236.909Z" fill="#C6C6C6"/>
<path style="mix-blend-mode:multiply" opacity="0.5" d="M133.106 231H3.01416L16.7083 237.011H118.979L133.106 231Z" fill="url(#paint13_linear_218_1864)"/>
<path style="mix-blend-mode:multiply" d="M119.567 237H17.1418V253H119.567V237Z" fill="url(#paint14_linear_218_1864)"/>
<path style="mix-blend-mode:multiply" d="M130.099 248H4.98475L1.83691 231H133.695L130.099 248Z" fill="url(#paint15_linear_218_1864)"/>
<path d="M18.3798 40.0832C18.4202 39.9609 18.3399 39.8245 18.2005 39.7786L15.929 39.0294C15.7896 38.9834 15.6439 39.0453 15.6036 39.1676C15.5632 39.2899 15.6435 39.4263 15.7829 39.4723L17.802 40.1382L17.2177 41.9098C17.1774 42.0321 17.2577 42.1685 17.3971 42.2145C17.5365 42.2604 17.6822 42.1985 17.7225 42.0762L18.3798 40.0832ZM3.7474 45.9168C3.70706 46.0391 3.78736 46.1755 3.92675 46.2214L6.19823 46.9706C6.33762 47.0166 6.48332 46.9547 6.52366 46.8324C6.56399 46.7101 6.48369 46.5737 6.3443 46.5277L4.3252 45.8618L4.90948 44.0902C4.94981 43.9679 4.86951 43.8315 4.73012 43.7855C4.59073 43.7396 4.44504 43.8015 4.4047 43.9238L3.7474 45.9168ZM18.0006 39.7846L3.87296 45.7846L4.1266 46.2154L18.2543 40.2154L18.0006 39.7846Z" fill="#303030"/>
<path d="M135.087 46.2344C135.216 46.1864 135.282 46.0425 135.234 45.913L134.452 43.8035C134.404 43.6741 134.26 43.6081 134.13 43.6561C134.001 43.7041 133.935 43.848 133.983 43.9775L134.679 45.8526L132.804 46.5482C132.674 46.5963 132.608 46.7401 132.656 46.8696C132.704 46.999 132.848 47.065 132.977 47.017L135.087 46.2344ZM121.835 39.7656C121.706 39.8136 121.64 39.9575 121.688 40.087L122.47 42.1965C122.518 42.3259 122.662 42.3919 122.792 42.3439C122.921 42.2959 122.987 42.152 122.939 42.0225L122.243 40.1474L124.119 39.4518C124.248 39.4037 124.314 39.2599 124.266 39.1304C124.218 39.001 124.074 38.935 123.945 38.983L121.835 39.7656ZM135.104 45.7728L122.026 39.7728L121.818 40.2272L134.896 46.2272L135.104 45.7728Z" fill="#303030"/>
<path d="M28.4328 30.5759H29.143V35.7816H28.4328V30.5759ZM26 30.2437H31.5758V30.8565H26V30.2437Z" fill="black"/>
<path d="M33.0805 35.8776C32.5818 35.8776 32.1411 35.7866 31.7583 35.6044C31.3805 35.4223 31.0859 35.1663 30.8743 34.8365C30.6628 34.5067 30.557 34.1276 30.557 33.6994C30.557 33.2662 30.6628 32.8871 30.8743 32.5622C31.0859 32.2373 31.3805 31.9838 31.7583 31.8017C32.1411 31.6195 32.5818 31.5285 33.0805 31.5285C33.5841 31.5285 34.0249 31.6195 34.4026 31.8017C34.7804 31.9838 35.0751 32.2373 35.2866 32.5622C35.5032 32.8871 35.6115 33.2662 35.6115 33.6994C35.6115 34.1276 35.5032 34.5067 35.2866 34.8365C35.0751 35.1663 34.7804 35.4223 34.4026 35.6044C34.0249 35.7866 33.5841 35.8776 33.0805 35.8776ZM33.0805 35.3091C33.4532 35.3091 33.7755 35.2451 34.0475 35.1171C34.3195 34.9842 34.5286 34.7971 34.6746 34.5559C34.8257 34.3147 34.9013 34.0292 34.9013 33.6994C34.9013 33.3745 34.8257 33.0914 34.6746 32.8502C34.5286 32.609 34.3195 32.4219 34.0475 32.289C33.7755 32.1561 33.4532 32.0897 33.0805 32.0897C32.7128 32.0897 32.3904 32.1561 32.1134 32.289C31.8414 32.4219 31.6324 32.609 31.4863 32.8502C31.3402 33.0914 31.2672 33.3745 31.2672 33.6994C31.2672 34.0292 31.3402 34.3147 31.4863 34.5559C31.6324 34.7971 31.8414 34.9842 32.1134 35.1171C32.3904 35.2451 32.7128 35.3091 33.0805 35.3091Z" fill="black"/>
<path d="M36.4803 31.6245H37.1754V33.1973L37.1377 33.3302V34.0021L37.1754 34.2162V37H36.4803V31.6245ZM36.8506 33.6994C36.9614 33.2662 37.1301 32.8871 37.3568 32.5622C37.5885 32.2373 37.8655 31.9838 38.1879 31.8017C38.5152 31.6195 38.8754 31.5285 39.2683 31.5285C39.6863 31.5285 40.0565 31.6195 40.3789 31.8017C40.7013 31.9838 40.9531 32.2373 41.1344 32.5622C41.3208 32.8871 41.414 33.2662 41.414 33.6994C41.414 34.1276 41.3208 34.5067 41.1344 34.8365C40.9531 35.1614 40.7013 35.4174 40.3789 35.6044C40.0565 35.7866 39.6863 35.8776 39.2683 35.8776C38.8754 35.8776 38.5152 35.7866 38.1879 35.6044C37.8655 35.4223 37.5885 35.1688 37.3568 34.8439C37.1301 34.5141 36.9614 34.1326 36.8506 33.6994ZM40.7038 33.6994C40.7038 33.3843 40.6358 33.1062 40.4998 32.865C40.3688 32.6238 40.185 32.4367 39.9482 32.3038C39.7165 32.166 39.4521 32.097 39.1549 32.097C38.8527 32.097 38.5732 32.166 38.3163 32.3038C38.0644 32.4367 37.8403 32.6238 37.6439 32.865C37.4474 33.1062 37.2837 33.3843 37.1528 33.6994C37.2837 34.0144 37.4474 34.2925 37.6439 34.5338C37.8403 34.775 38.0644 34.9645 38.3163 35.1023C38.5732 35.2352 38.8527 35.3017 39.1549 35.3017C39.4521 35.3017 39.7165 35.2352 39.9482 35.1023C40.185 34.9645 40.3688 34.775 40.4998 34.5338C40.6358 34.2925 40.7038 34.0144 40.7038 33.6994Z" fill="black"/>
<path d="M48.5303 34.5633C48.5303 34.8291 48.4472 35.0605 48.281 35.2574C48.1198 35.4543 47.8806 35.6069 47.5632 35.7152C47.2509 35.8235 46.8707 35.8776 46.4224 35.8776C45.964 35.8776 45.5586 35.8161 45.206 35.693C44.8584 35.565 44.5864 35.3878 44.39 35.1614C44.1936 34.935 44.0878 34.6716 44.0727 34.3713H44.7829C44.8131 34.5633 44.9012 34.7331 45.0473 34.8808C45.1934 35.0236 45.3848 35.1343 45.6215 35.2131C45.8582 35.2918 46.1277 35.3312 46.4299 35.3312C46.8681 35.3312 47.2107 35.2672 47.4575 35.1392C47.7093 35.0063 47.8352 34.8267 47.8352 34.6002C47.8352 34.423 47.7546 34.2925 47.5935 34.2089C47.4323 34.1203 47.1326 34.0538 46.6944 34.0095L45.8708 33.9283C45.4629 33.8889 45.1355 33.8175 44.8887 33.7141C44.6469 33.6058 44.4731 33.4729 44.3673 33.3154C44.2616 33.153 44.2087 32.9733 44.2087 32.7764C44.2087 32.5056 44.2918 32.2792 44.458 32.097C44.6293 31.91 44.866 31.7697 45.1682 31.6762C45.4704 31.5777 45.8205 31.5285 46.2184 31.5285C46.6415 31.5285 47.0167 31.5876 47.3441 31.7057C47.6766 31.8238 47.941 31.9887 48.1374 32.2004C48.3339 32.4121 48.4422 32.6558 48.4623 32.9314H47.7597C47.7345 32.7739 47.6589 32.6312 47.533 32.5032C47.4071 32.3703 47.2308 32.2644 47.0041 32.1857C46.7825 32.1069 46.508 32.0675 46.1806 32.0675C45.7777 32.0675 45.4629 32.1241 45.2362 32.2373C45.0146 32.3506 44.9038 32.5155 44.9038 32.7321C44.9038 32.8896 44.9768 33.0151 45.1229 33.1087C45.2689 33.2022 45.5283 33.2686 45.9011 33.308L46.8379 33.404C47.2661 33.4434 47.6035 33.5123 47.8503 33.6108C48.0971 33.7092 48.2709 33.8372 48.3717 33.9947C48.4774 34.1523 48.5303 34.3418 48.5303 34.5633Z" fill="black"/>
<path d="M49.3996 30.096H50.0947V35.7816H49.3996V30.096ZM51.8476 31.5285C52.2455 31.5285 52.583 31.6072 52.86 31.7648C53.137 31.9174 53.3486 32.1414 53.4946 32.4367C53.6407 32.7271 53.7137 33.0791 53.7137 33.4926V35.7816H53.0186V33.6108C53.0186 33.1136 52.9028 32.7395 52.6711 32.4884C52.4394 32.2324 52.0969 32.1044 51.6436 32.1044C51.3363 32.1044 51.0643 32.1733 50.8276 32.3112C50.5959 32.449 50.4146 32.641 50.2836 32.8871C50.1577 33.1283 50.0947 33.4114 50.0947 33.7363L49.8152 33.5443C49.8504 33.1308 49.9587 32.7739 50.1401 32.4736C50.3214 32.1733 50.5581 31.942 50.8503 31.7795C51.1474 31.6122 51.4799 31.5285 51.8476 31.5285Z" fill="black"/>
<path d="M57.0297 35.8776C56.5411 35.8776 56.1079 35.7866 55.7302 35.6044C55.3574 35.4174 55.0628 35.1614 54.8462 34.8365C54.6347 34.5067 54.5289 34.1276 54.5289 33.6994C54.5289 33.2662 54.6296 32.8871 54.8311 32.5622C55.0326 32.2373 55.3121 31.9838 55.6697 31.8017C56.0274 31.6195 56.4379 31.5285 56.9013 31.5285C57.3596 31.5285 57.76 31.6269 58.1025 31.8238C58.4451 32.0207 58.7095 32.2989 58.8959 32.6582C59.0873 33.0127 59.183 33.4262 59.183 33.8987H55.0578V33.3597H58.8883L58.4803 33.6034C58.4652 33.2932 58.3896 33.025 58.2537 32.7985C58.1177 32.5721 57.9338 32.3973 57.7021 32.2743C57.4704 32.1512 57.2009 32.0897 56.8937 32.0897C56.5613 32.0897 56.2716 32.1561 56.0248 32.289C55.778 32.417 55.5841 32.5992 55.4431 32.8354C55.3071 33.0717 55.2391 33.3499 55.2391 33.6698C55.2391 34.0046 55.3172 34.295 55.4733 34.5411C55.6294 34.7873 55.8485 34.9768 56.1306 35.1097C56.4127 35.2426 56.7451 35.3091 57.1279 35.3091C57.4755 35.3091 57.8154 35.2525 58.1479 35.1392C58.4854 35.026 58.7876 34.871 59.0545 34.6741V35.2057C58.7926 35.4124 58.4803 35.5774 58.1177 35.7004C57.755 35.8186 57.3923 35.8776 57.0297 35.8776Z" fill="black"/>
<path d="M60.0464 30.096H60.7415V35.7816H60.0464V30.096Z" fill="black"/>
<path d="M64.2261 30.5538C63.8433 30.5538 63.5512 30.6399 63.3497 30.8122C63.1482 30.9796 63.0475 31.2602 63.0475 31.654V35.7816H62.3524V31.75C62.3524 31.4153 62.4129 31.1174 62.5337 30.8565C62.6546 30.5907 62.846 30.3815 63.1079 30.2289C63.3749 30.0763 63.7224 30 64.1506 30C64.3621 30 64.5485 30.0197 64.7097 30.0591C64.8759 30.0935 65.032 30.1378 65.1781 30.192V30.7605C65.032 30.6867 64.8809 30.635 64.7248 30.6055C64.5686 30.571 64.4024 30.5538 64.2261 30.5538ZM61.4156 32.4293V31.8755H65.1026V32.4293H61.4156Z" fill="black"/>
<path d="M68.4568 30.2437H69.0536C68.7111 30.7655 68.4593 31.2823 68.2981 31.7943C68.1369 32.3063 68.0563 32.8305 68.0563 33.3671C68.0563 33.8987 68.1369 34.4205 68.2981 34.9325C68.4593 35.4444 68.7111 35.9638 69.0536 36.4905H68.4568C68.079 35.9786 67.7969 35.4666 67.6106 34.9546C67.4292 34.4427 67.3386 33.9135 67.3386 33.3671C67.3386 32.8207 67.4292 32.2915 67.6106 31.7795C67.7969 31.2676 68.079 30.7556 68.4568 30.2437Z" fill="black"/>
<path d="M73.5239 30.2437V35.7816H72.8137V30.5169H73.1537L69.7613 34.2236L69.7538 33.9652H74.627V34.5411H69.1494V34.0316L72.6248 30.2437H73.5239Z" fill="black"/>
<path d="M75.0782 32.1044C75.1084 31.7106 75.2368 31.3685 75.4635 31.0781C75.6952 30.7827 75.9999 30.5538 76.3777 30.3914C76.7605 30.2289 77.1937 30.1477 77.6772 30.1477C78.1456 30.1477 78.5536 30.2191 78.9012 30.3618C79.2537 30.5046 79.5283 30.7064 79.7247 30.9673C79.9211 31.2282 80.0193 31.5309 80.0193 31.8755C80.0193 32.1414 79.9539 32.3899 79.8229 32.6213C79.697 32.8477 79.4829 33.0816 79.1807 33.3228C78.8835 33.564 78.4781 33.8397 77.9643 34.1498L75.9017 35.4051L75.811 35.1909H80.2082V35.7816H75.1008V35.25L77.4959 33.7732C77.9391 33.4975 78.2917 33.2588 78.5536 33.057C78.8206 32.8502 79.012 32.6558 79.1278 32.4736C79.2437 32.2915 79.3016 32.0995 79.3016 31.8977C79.3016 31.6663 79.2361 31.4645 79.1052 31.2922C78.9792 31.115 78.7929 30.9771 78.5461 30.8787C78.3043 30.7802 78.0096 30.731 77.6621 30.731C77.2591 30.731 76.9217 30.7925 76.6497 30.9156C76.3827 31.0338 76.1787 31.1962 76.0377 31.403C75.9017 31.6097 75.8211 31.8435 75.7959 32.1044H75.0782Z" fill="black"/>
<path d="M83.8393 35.8776C83.2349 35.8776 82.7136 35.7595 82.2754 35.5232C81.8422 35.282 81.5098 34.9473 81.2781 34.519C81.0464 34.0907 80.9305 33.5886 80.9305 33.0127C80.9305 32.4367 81.0464 31.9346 81.2781 31.5063C81.5098 31.0781 81.8422 30.7458 82.2754 30.5095C82.7136 30.2683 83.2349 30.1477 83.8393 30.1477C84.4438 30.1477 84.9626 30.2683 85.3957 30.5095C85.8289 30.7458 86.1613 31.0781 86.393 31.5063C86.6247 31.9346 86.7406 32.4367 86.7406 33.0127C86.7406 33.5837 86.6247 34.0858 86.393 34.519C86.1613 34.9473 85.8289 35.282 85.3957 35.5232C84.9626 35.7595 84.4438 35.8776 83.8393 35.8776ZM83.8393 35.2869C84.5243 35.2869 85.0583 35.0876 85.4411 34.6888C85.8239 34.2901 86.0153 33.7314 86.0153 33.0127C86.0153 32.294 85.8239 31.7352 85.4411 31.3365C85.0583 30.9328 84.5243 30.731 83.8393 30.731C83.1493 30.731 82.6128 30.9328 82.23 31.3365C81.8472 31.7352 81.6558 32.294 81.6558 33.0127C81.6558 33.7314 81.8472 34.2901 82.23 34.6888C82.6128 35.0876 83.1493 35.2869 83.8393 35.2869Z" fill="black"/>
<path d="M89.6065 31.6245H90.3015L90.5433 33.0348V35.7816H89.8482V32.9388L89.6065 31.6245ZM92.1677 31.5285C92.5354 31.5285 92.8477 31.6072 93.1046 31.7648C93.3614 31.9174 93.5579 32.1414 93.6939 32.4367C93.8299 32.7271 93.8979 33.0791 93.8979 33.4926V35.7816H93.2028V33.6108C93.2028 33.1136 93.097 32.7395 92.8855 32.4884C92.6739 32.2324 92.3667 32.1044 91.9637 32.1044C91.6766 32.1044 91.4248 32.1733 91.2082 32.3112C90.9966 32.449 90.8329 32.641 90.7171 32.8871C90.6012 33.1283 90.5433 33.4114 90.5433 33.7363L90.2638 33.5443C90.299 33.1308 90.3998 32.7739 90.566 32.4736C90.7372 32.1733 90.9589 31.942 91.2308 31.7795C91.5079 31.6122 91.8202 31.5285 92.1677 31.5285ZM95.5147 31.5285C95.8824 31.5285 96.1947 31.6072 96.4516 31.7648C96.7135 31.9174 96.9125 32.1414 97.0484 32.4367C97.1844 32.7271 97.2524 33.0791 97.2524 33.4926V35.7816H96.5573V33.6108C96.5573 33.1136 96.4516 32.7395 96.24 32.4884C96.0285 32.2324 95.7212 32.1044 95.3183 32.1044C95.0312 32.1044 94.7793 32.1733 94.5627 32.3112C94.3512 32.449 94.1875 32.641 94.0716 32.8871C93.9558 33.1283 93.8979 33.4114 93.8979 33.7363L93.6183 33.5443C93.6536 33.1308 93.7543 32.7739 93.9205 32.4736C94.0918 32.1733 94.3134 31.942 94.5854 31.7795C94.8624 31.6122 95.1722 31.5285 95.5147 31.5285Z" fill="black"/>
<path d="M98.1209 31.6245H98.816L99.0578 33.0348V35.7816H98.3627V32.9388L98.1209 31.6245ZM100.682 31.5285C101.05 31.5285 101.362 31.6072 101.619 31.7648C101.876 31.9174 102.072 32.1414 102.208 32.4367C102.344 32.7271 102.412 33.0791 102.412 33.4926V35.7816H101.717V33.6108C101.717 33.1136 101.612 32.7395 101.4 32.4884C101.188 32.2324 100.881 32.1044 100.478 32.1044C100.191 32.1044 99.9393 32.1733 99.7227 32.3112C99.5111 32.449 99.3474 32.641 99.2316 32.8871C99.1157 33.1283 99.0578 33.4114 99.0578 33.7363L98.7783 33.5443C98.8135 33.1308 98.9143 32.7739 99.0805 32.4736C99.2517 32.1733 99.4733 31.942 99.7453 31.7795C100.022 31.6122 100.335 31.5285 100.682 31.5285ZM104.029 31.5285C104.397 31.5285 104.709 31.6072 104.966 31.7648C105.228 31.9174 105.427 32.1414 105.563 32.4367C105.699 32.7271 105.767 33.0791 105.767 33.4926V35.7816H105.072V33.6108C105.072 33.1136 104.966 32.7395 104.755 32.4884C104.543 32.2324 104.236 32.1044 103.833 32.1044C103.546 32.1044 103.294 32.1733 103.077 32.3112C102.866 32.449 102.702 32.641 102.586 32.8871C102.47 33.1283 102.412 33.4114 102.412 33.7363L102.133 33.5443C102.168 33.1308 102.269 32.7739 102.435 32.4736C102.606 32.1733 102.828 31.942 103.1 31.7795C103.377 31.6122 103.687 31.5285 104.029 31.5285Z" fill="black"/>
<path d="M106.889 30.2437C107.262 30.7556 107.539 31.2676 107.72 31.7795C107.907 32.2915 108 32.8207 108 33.3671C108 33.9135 107.907 34.4427 107.72 34.9546C107.539 35.4666 107.262 35.9786 106.889 36.4905H106.292C106.63 35.9638 106.879 35.4444 107.04 34.9325C107.202 34.4205 107.282 33.8987 107.282 33.3671C107.282 32.8305 107.202 32.3063 107.04 31.7943C106.879 31.2823 106.63 30.7655 106.292 30.2437H106.889Z" fill="black"/>
<defs>
<linearGradient id="paint0_linear_218_1864" x1="68.5" y1="0" x2="68.5" y2="293" gradientUnits="userSpaceOnUse">
<stop stop-color="#DEDEDE"/>
<stop offset="0.161458" stop-color="#DCD9D5"/>
<stop offset="0.723958" stop-color="#EDEBE7"/>
<stop offset="1" stop-color="#E4E1D9"/>
</linearGradient>
<linearGradient id="paint1_linear_218_1864" x1="68.1465" y1="-0.646494" x2="68.1465" y2="5.59714" gradientUnits="userSpaceOnUse">
<stop stop-color="white"/>
<stop offset="0.31" stop-color="#FBFBFB"/>
<stop offset="0.59" stop-color="#F0F0F0"/>
<stop offset="0.86" stop-color="#DEDEDE"/>
<stop offset="1" stop-color="#D1D1D1"/>
</linearGradient>
<linearGradient id="paint2_linear_218_1864" x1="69.5" y1="25.7805" x2="69.5" y2="9.14049" gradientUnits="userSpaceOnUse">
<stop stop-color="white"/>
<stop offset="0.31" stop-color="#FBFBFB"/>
<stop offset="0.59" stop-color="#F0F0F0"/>
<stop offset="0.86" stop-color="#DEDEDE"/>
<stop offset="1" stop-color="#D1D1D1"/>
</linearGradient>
<linearGradient id="paint3_linear_218_1864" x1="72" y1="9.47112" x2="72" y2="3.05272" gradientUnits="userSpaceOnUse">
<stop stop-color="white"/>
<stop offset="0.31" stop-color="#FBFBFB"/>
<stop offset="0.59" stop-color="#F0F0F0"/>
<stop offset="0.86" stop-color="#DEDEDE"/>
<stop offset="1" stop-color="#D1D1D1"/>
</linearGradient>
<linearGradient id="paint4_linear_218_1864" x1="69.2622" y1="49.64" x2="69.2622" y2="43.4074" gradientUnits="userSpaceOnUse">
<stop stop-color="white"/>
<stop offset="0.31" stop-color="#FBFBFB"/>
<stop offset="0.59" stop-color="#F0F0F0"/>
<stop offset="0.86" stop-color="#DEDEDE"/>
<stop offset="1" stop-color="#D1D1D1"/>
</linearGradient>
<linearGradient id="paint5_linear_218_1864" x1="70.0974" y1="23.2195" x2="70.0974" y2="39.8595" gradientUnits="userSpaceOnUse">
<stop stop-color="white"/>
<stop offset="0.31" stop-color="#FBFBFB"/>
<stop offset="0.59" stop-color="#F0F0F0"/>
<stop offset="0.86" stop-color="#DEDEDE"/>
<stop offset="1" stop-color="#D1D1D1"/>
</linearGradient>
<linearGradient id="paint6_linear_218_1864" x1="68.5002" y1="27.6652" x2="68.5002" y2="45.8506" gradientUnits="userSpaceOnUse">
<stop stop-color="white"/>
<stop offset="0.31" stop-color="#FBFBFB"/>
<stop offset="0.59" stop-color="#F0F0F0"/>
<stop offset="0.86" stop-color="#DEDEDE"/>
<stop offset="1" stop-color="#D1D1D1"/>
</linearGradient>
<linearGradient id="paint7_linear_218_1864" x1="67.798" y1="99.3535" x2="67.798" y2="105.597" gradientUnits="userSpaceOnUse">
<stop stop-color="white"/>
<stop offset="0.31" stop-color="#FBFBFB"/>
<stop offset="0.59" stop-color="#F0F0F0"/>
<stop offset="0.86" stop-color="#DEDEDE"/>
<stop offset="1" stop-color="#D1D1D1"/>
</linearGradient>
<linearGradient id="paint8_linear_218_1864" x1="68.3546" y1="125.78" x2="68.3546" y2="109.14" gradientUnits="userSpaceOnUse">
<stop stop-color="white"/>
<stop offset="0.31" stop-color="#FBFBFB"/>
<stop offset="0.59" stop-color="#F0F0F0"/>
<stop offset="0.86" stop-color="#DEDEDE"/>
<stop offset="1" stop-color="#D1D1D1"/>
</linearGradient>
<linearGradient id="paint9_linear_218_1864" x1="67.766" y1="121.335" x2="67.766" y2="103.149" gradientUnits="userSpaceOnUse">
<stop stop-color="white"/>
<stop offset="0.31" stop-color="#FBFBFB"/>
<stop offset="0.59" stop-color="#F0F0F0"/>
<stop offset="0.86" stop-color="#DEDEDE"/>
<stop offset="1" stop-color="#D1D1D1"/>
</linearGradient>
<linearGradient id="paint10_linear_218_1864" x1="67.798" y1="163.354" x2="67.798" y2="169.597" gradientUnits="userSpaceOnUse">
<stop stop-color="white"/>
<stop offset="0.31" stop-color="#FBFBFB"/>
<stop offset="0.59" stop-color="#F0F0F0"/>
<stop offset="0.86" stop-color="#DEDEDE"/>
<stop offset="1" stop-color="#D1D1D1"/>
</linearGradient>
<linearGradient id="paint11_linear_218_1864" x1="68.3546" y1="189.78" x2="68.3546" y2="173.14" gradientUnits="userSpaceOnUse">
<stop stop-color="white"/>
<stop offset="0.31" stop-color="#FBFBFB"/>
<stop offset="0.59" stop-color="#F0F0F0"/>
<stop offset="0.86" stop-color="#DEDEDE"/>
<stop offset="1" stop-color="#D1D1D1"/>
</linearGradient>
<linearGradient id="paint12_linear_218_1864" x1="67.766" y1="185.335" x2="67.766" y2="167.149" gradientUnits="userSpaceOnUse">
<stop stop-color="white"/>
<stop offset="0.31" stop-color="#FBFBFB"/>
<stop offset="0.59" stop-color="#F0F0F0"/>
<stop offset="0.86" stop-color="#DEDEDE"/>
<stop offset="1" stop-color="#D1D1D1"/>
</linearGradient>
<linearGradient id="paint13_linear_218_1864" x1="67.798" y1="227.354" x2="67.798" y2="233.597" gradientUnits="userSpaceOnUse">
<stop stop-color="white"/>
<stop offset="0.31" stop-color="#FBFBFB"/>
<stop offset="0.59" stop-color="#F0F0F0"/>
<stop offset="0.86" stop-color="#DEDEDE"/>
<stop offset="1" stop-color="#D1D1D1"/>
</linearGradient>
<linearGradient id="paint14_linear_218_1864" x1="68.3546" y1="253.78" x2="68.3546" y2="237.14" gradientUnits="userSpaceOnUse">
<stop stop-color="white"/>
<stop offset="0.31" stop-color="#FBFBFB"/>
<stop offset="0.59" stop-color="#F0F0F0"/>
<stop offset="0.86" stop-color="#DEDEDE"/>
<stop offset="1" stop-color="#D1D1D1"/>
</linearGradient>
<linearGradient id="paint15_linear_218_1864" x1="67.766" y1="249.335" x2="67.766" y2="231.149" gradientUnits="userSpaceOnUse">
<stop stop-color="white"/>
<stop offset="0.31" stop-color="#FBFBFB"/>
<stop offset="0.59" stop-color="#F0F0F0"/>
<stop offset="0.86" stop-color="#DEDEDE"/>
<stop offset="1" stop-color="#D1D1D1"/>
</linearGradient>
</defs>
</svg>
