<svg width="70" height="70" viewBox="0 0 70 70" fill="none" xmlns="http://www.w3.org/2000/svg">
<circle cx="35" cy="35" r="35" fill="#F2F2F2"/>
<path d="M20.8718 16H50.9744V23.8407H24L28.2564 22.0078L26.1026 35.7037L23.4872 35.7546C24.2393 34.4648 25.265 33.2937 26.5641 32.2415C27.8632 31.1893 29.4701 30.3577 31.3846 29.7467C33.2991 29.1018 35.5214 28.7794 38.0513 28.7794C41.3333 28.7794 44.1538 29.3225 46.5128 30.4086C48.906 31.4608 50.7521 32.9373 52.0513 34.8381C53.3504 36.705 54 38.8773 54 41.3551C54 44.0026 53.2479 46.3616 51.7436 48.4321C50.2735 50.4687 48.1368 52.0809 45.3333 53.2689C42.5641 54.423 39.2137 55 35.2821 55C31.4872 55 28.1709 54.4569 25.3333 53.3708C22.5299 52.2507 20.3248 50.7572 18.7179 48.8903C17.1453 46.9896 16.2393 44.8681 16 42.5261H26.5641C26.906 43.8499 27.8291 44.9191 29.3333 45.7337C30.8376 46.5144 32.8205 46.9047 35.2821 46.9047C36.9915 46.9047 38.4444 46.6841 39.641 46.2428C40.8376 45.7676 41.7607 45.1227 42.4103 44.3081C43.0598 43.4595 43.3846 42.4582 43.3846 41.3042C43.3846 40.218 43.094 39.2507 42.5128 38.4021C41.9316 37.5535 41.0598 36.9086 39.8974 36.4674C38.735 35.9922 37.2991 35.7546 35.5897 35.7546C34.1538 35.7546 32.8718 35.9073 31.7436 36.2128C30.6154 36.5183 29.6239 36.9086 28.7692 37.3838C27.9487 37.859 27.2479 38.3681 26.6667 38.9112H17.4872L20.8718 16Z" fill="#303030"/>
</svg>
