<svg width="70" height="70" viewBox="0 0 70 70" fill="none" xmlns="http://www.w3.org/2000/svg">
<circle cx="35" cy="35" r="35" fill="#F2F2F2"/>
<path d="M52.0771 43.3245L44.2065 40.661C43.3336 40.366 42.3612 40.56 41.6688 41.1677L39.0669 43.4523C38.7101 43.7657 38.2056 43.8704 37.7504 43.7249C36.2503 43.2463 33.129 42.2505 30.4395 39.5605C27.7493 36.8703 26.7539 33.7492 26.2752 32.2494C26.1301 31.7941 26.2344 31.2894 26.5478 30.9328L28.8323 28.3312C29.4404 27.6388 29.6347 26.6661 29.3391 25.7934L26.6757 17.9226C26.194 16.4991 25.0307 15.4478 23.5637 15.1106C22.11 14.7768 20.6196 15.2089 19.5765 16.2669C15.9902 19.9051 9.30481 30.024 24.6408 45.3591C31.9892 52.7081 38.1388 55 42.9527 55C48.1846 55 51.8381 52.2913 53.7329 50.4236C54.7912 49.3803 55.2234 47.8899 54.8892 46.4362C54.5521 44.9692 53.5012 43.8058 52.0776 43.3242L52.0771 43.3245ZM52.8708 49.5495C50.9098 51.4825 47.6038 53.7778 42.9639 53.7778C42.9331 53.7778 42.9017 53.7778 42.8706 53.7774C37.4758 53.742 31.6339 50.6176 25.5083 44.4911C19.3824 38.3653 16.2581 32.5237 16.2222 27.1282C16.1911 22.4391 18.5039 19.1016 20.4499 17.1277C21.0266 16.5427 21.7959 16.2269 22.5962 16.2269C22.8257 16.2269 23.0575 16.253 23.2883 16.3058C24.3368 16.547 25.1683 17.2979 25.5125 18.3151L28.1759 26.1859C28.3315 26.6448 28.2291 27.1562 27.9094 27.5205L25.6249 30.1221C25.0292 30.8008 24.8302 31.7584 25.1054 32.6214C25.6132 34.2136 26.6701 37.5266 29.571 40.4276C32.4712 43.3283 35.7845 44.3853 37.3769 44.8933C38.2399 45.169 39.1979 44.9696 39.8762 44.3739L42.4778 42.0893C42.842 41.7695 43.3531 41.6672 43.8123 41.8227L51.6829 44.4862C52.7 44.8304 53.4512 45.6619 53.6921 46.7106C53.9302 47.7461 53.6232 48.8071 52.8703 49.549L52.8708 49.5495Z" fill="#303030"/>
<path d="M35.8127 20.5817C35.0428 20.9693 34.4383 21.506 34 22.1913L35.8932 23.4723C36.1605 23.079 36.492 22.7842 36.8879 22.5876C37.2835 22.3909 37.7274 22.2925 38.2196 22.2925C38.8077 22.2925 39.2543 22.4189 39.5589 22.6718C39.8639 22.9246 40.0162 23.2869 40.0162 23.7588C40.0162 24.0848 39.9358 24.4135 39.7755 24.7446C39.6153 25.0759 39.3049 25.4722 38.8451 25.9327L34.5134 30.2303V32H43L42.9997 29.7755H38.1709L40.7534 27.2136C41.4916 26.4946 41.9888 25.8541 42.2453 25.2922C42.5021 24.7305 42.6304 24.1293 42.6304 23.4888C42.6304 22.7808 42.4565 22.1656 42.1091 21.6433C41.7614 21.1209 41.275 20.7163 40.6492 20.4299C40.0234 20.1434 39.2934 20 38.4593 20C37.4649 20 36.5826 20.194 35.8127 20.5816L35.8127 20.5817Z" fill="#303030"/>
<path d="M49.5932 20.0001L44 27.6112V29.4799H50.3898V32H53.068V29.4799H55V27.2169H53.068V24.9712H50.4746V27.2169H47.2882L52.4748 20L49.5932 20.0001Z" fill="#303030"/>
</svg>
