<svg width="70" height="70" viewBox="0 0 70 70" fill="none" xmlns="http://www.w3.org/2000/svg">
<circle cx="35" cy="35" r="35" fill="#F2F2F2"/>
<path fill-rule="evenodd" clip-rule="evenodd" d="M17.078 21.1339H52.4017V24.3338H17.078V21.1339ZM54.4802 21.1339V32.8667C54.4802 33.4556 54.0147 33.9334 53.4411 33.9334C52.8675 33.9334 52.402 33.4556 52.402 32.8667H17.0783V44.5995H38.8963C39.4699 44.5995 39.935 45.0773 39.935 45.6662C39.935 46.2551 39.4699 46.733 38.8963 46.733H16.0391C15.4654 46.733 15 46.2551 15 45.6662V20.0668C15 19.4779 15.4654 19 16.0391 19H53.4413C54.0149 19 54.4804 19.4779 54.4804 20.0668L54.4802 21.1339ZM52.402 26.467V30.7337H17.0783V26.467H52.402ZM27.4672 42.4667C28.0412 42.4667 28.5063 41.9892 28.5063 41.3999C28.5063 40.811 28.0412 40.3335 27.4672 40.3335H21.2335C20.6599 40.3335 20.1948 40.811 20.1948 41.3999C20.1948 41.9892 20.6599 42.4667 21.2335 42.4667H27.4672ZM51.3637 39.5867C51.7926 39.9781 51.8312 40.6524 51.4499 41.0928L47.9845 45.0952C47.6172 45.5195 46.9907 45.5741 46.559 45.2195L44.7727 43.7527C44.3246 43.3845 44.2519 42.7135 44.6102 42.2535C44.9689 41.7935 45.6228 41.7189 46.0705 42.0867L47.0866 42.921L49.897 39.6753C50.2779 39.235 50.9347 39.1953 51.3637 39.5867ZM48.1669 34.0337C47.8882 33.9001 47.5664 33.9001 47.2882 34.0337L41.0545 37.02C40.6537 37.2122 40.4151 37.6436 40.46 38.095L40.8499 42.0189C41.1981 45.5206 43.2067 48.6209 46.2177 50.304L47.2307 50.8701C47.5403 51.0433 47.9146 51.0433 48.2242 50.8701L49.2368 50.304C52.2482 48.6209 54.2565 45.5206 54.6047 42.0189L54.9946 38.095C55.0395 37.6436 54.8009 37.2122 54.4005 37.02L48.1669 34.0337ZM42.9173 41.8021L42.6021 38.6329L47.7272 36.1772L52.8526 38.6329L52.5375 41.8021C52.2592 44.6039 50.6524 47.0838 48.2434 48.4305L47.7272 48.7187L47.2117 48.4305C44.8023 47.0838 43.1959 44.6039 42.9173 41.8021Z" fill="#303030"/>
</svg>
