<svg width="70" height="70" viewBox="0 0 70 70" fill="none" xmlns="http://www.w3.org/2000/svg">
<circle cx="35" cy="35" r="35" fill="#F2F2F2"/>
<path d="M18.5272 18.0007C16.5861 18.0007 15.0003 19.6167 15.0003 21.5925L15 21.5922V21.5964C15.0148 29.3569 15 37.0743 15 44.8109C14.9994 45.634 15.5105 46.3055 16.1569 46.582C16.8033 46.8586 17.6381 46.7614 18.2156 46.1849L23.8684 40.5247H28.5797V43.9144C28.5797 45.5917 29.9283 46.9644 31.5759 46.9644H47.6109L52.1652 51.5162C52.6719 52.0221 53.4107 52.1145 53.9798 51.8713C54.549 51.6281 55.0006 51.0292 55 50.3064C55 44.0257 54.988 37.7628 55 31.4636C55 29.7867 53.6514 28.4081 52.0038 28.4081L47.2211 28.4075V21.5918C47.2211 19.6159 45.6336 18 43.6926 18L18.5272 18.0007ZM18.5272 19.438H43.6927C44.8708 19.438 45.8077 20.3934 45.8077 21.5925V36.9333C45.8077 38.1326 44.8708 39.0879 43.6927 39.0879L23.5834 39.0876C23.3981 39.0876 23.2203 39.1617 23.0883 39.2939L17.2255 45.1551C17.0531 45.3274 16.8779 45.3361 16.7042 45.2617C16.5306 45.1872 16.4118 45.057 16.4121 44.8112C16.4121 37.0763 16.4269 29.3563 16.4121 21.5918C16.4121 20.3926 17.349 19.4372 18.5271 19.4372L18.5272 19.438ZM22.6885 24.3195H22.6882C22.5 24.3186 22.3194 24.3946 22.1864 24.53C22.0535 24.6654 21.9788 24.8492 21.9797 25.041C21.9803 25.2316 22.0553 25.4138 22.1883 25.5483C22.3213 25.6824 22.501 25.7574 22.6882 25.7568H39.5316C39.7191 25.7574 39.8987 25.6824 40.0317 25.5483C40.1647 25.4138 40.2397 25.2316 40.2404 25.041C40.2413 24.8492 40.1666 24.6654 40.0336 24.53C39.9006 24.3946 39.72 24.3186 39.5316 24.3195H22.6885ZM22.6885 28.5485H22.6882C22.501 28.5475 22.3213 28.6226 22.1883 28.757C22.0554 28.8911 21.9803 29.0737 21.9797 29.2642C21.9788 29.4558 22.0535 29.6396 22.1865 29.7753C22.3194 29.9107 22.5 29.9864 22.6882 29.9858H39.5316C39.7201 29.9864 39.9006 29.9107 40.0336 29.7753C40.1666 29.6396 40.2413 29.4558 40.2404 29.2642C40.2398 29.0737 40.1648 28.8911 40.0318 28.757C39.8988 28.6226 39.7191 28.5475 39.5316 28.5485H22.6885ZM47.2215 29.8469H52.0045C52.8885 29.8469 53.5888 30.5632 53.5888 31.4638C53.5769 37.765 53.5888 44.0295 53.5888 50.3066C53.5888 50.4519 53.5296 50.5039 53.4331 50.5453C53.3367 50.5867 53.2579 50.5953 53.1561 50.4933L48.3939 45.7337H48.3935C48.2615 45.6015 48.0838 45.5274 47.8984 45.5274H31.5762C30.6922 45.5274 29.9919 44.8149 29.9919 43.9147V40.525H43.6929C45.6339 40.525 47.2213 38.909 47.2213 36.9331L47.2215 29.8469ZM22.6885 32.7705H22.6882C22.501 32.7695 22.3213 32.8446 22.1883 32.979C22.0554 33.1131 21.9803 33.2957 21.9797 33.4862C21.9788 33.6777 22.0535 33.8616 22.1865 33.9973C22.3194 34.1327 22.5 34.2084 22.6882 34.2077H31.6726C31.8598 34.2068 32.0392 34.1304 32.1709 33.995C32.3029 33.86 32.3767 33.6768 32.3757 33.4862C32.3742 33.0916 32.0603 32.7718 31.6726 32.7705L22.6885 32.7705Z" fill="#303030"/>
</svg>
