<svg width="70" height="70" viewBox="0 0 70 70" fill="none" xmlns="http://www.w3.org/2000/svg">
<circle cx="35" cy="35" r="35" fill="#F2F2F2"/>
<path d="M34.0655 39.0211C34.0655 39.3908 33.9151 39.7455 33.6474 40.0069C33.3796 40.2683 33.0166 40.4152 32.6377 40.4152H16.4278C15.9175 40.4152 15.4462 40.1494 15.1912 39.7182C14.9363 39.2869 14.9363 38.7554 15.1912 38.3241C15.4462 37.8928 15.9175 37.627 16.4278 37.627H32.6377C33.0166 37.627 33.3796 37.7739 33.6474 38.0353C33.9151 38.2967 34.0655 38.6514 34.0655 39.0211ZM32.6377 43.2034H20.7111C20.2009 43.2034 19.7296 43.4691 19.4746 43.9004C19.2196 44.3317 19.2196 44.8632 19.4746 45.2945C19.7296 45.7258 20.2009 45.9915 20.7111 45.9915H32.6377C33.1479 45.9915 33.6193 45.7258 33.8743 45.2945C34.1295 44.8632 34.1295 44.3317 33.8743 43.9004C33.6193 43.4691 33.1479 43.2034 32.6377 43.2034ZM32.6377 48.7797H24.9949C24.4846 48.7797 24.0133 49.0454 23.7583 49.4767C23.5033 49.908 23.5033 50.4395 23.7583 50.8708C24.0133 51.3021 24.4846 51.5679 24.9949 51.5679H32.6377C33.1479 51.5679 33.6193 51.3021 33.8743 50.8708C34.1295 50.4395 34.1295 49.908 33.8743 49.4767C33.6193 49.0454 33.1479 48.7797 32.6377 48.7797ZM40.205 38.6499L45.9477 33.0499C46.298 32.6958 46.4309 32.1876 46.2977 31.7128C46.1645 31.2379 45.7846 30.867 45.2982 30.7369C44.8119 30.6068 44.2914 30.7366 43.9288 31.0786L38.1892 36.6745C37.9135 36.9343 37.7567 37.2913 37.7532 37.665C37.75 38.0391 37.9005 38.3988 38.1714 38.663C38.4423 38.9275 38.8104 39.0746 39.1934 39.0712C39.5765 39.0681 39.942 38.9147 40.2079 38.6458L40.205 38.6499ZM40.6235 22.3893V19.7882H41.9741C42.4844 19.7882 42.9557 19.5224 43.2107 19.0911C43.4657 18.6598 43.4657 18.1283 43.2107 17.697C42.9557 17.2657 42.4844 17 41.9741 17H36.4201C35.9099 17 35.4385 17.2657 35.1836 17.697C34.9286 18.1283 34.9286 18.6598 35.1836 19.0911C35.4385 19.5224 35.9099 19.7882 36.4201 19.7882H37.7708V22.3865C34.4623 22.6722 31.3327 23.9776 28.8345 26.1144L26.9583 24.2825C26.5975 23.93 26.0716 23.7921 25.5786 23.9206C25.0856 24.0491 24.7002 24.4251 24.5676 24.9061C24.4354 25.3875 24.5759 25.9013 24.9364 26.2538L26.8725 28.1427C25.693 29.599 24.7936 31.2523 24.2183 33.022C24.0819 33.4922 24.2075 33.9975 24.5495 34.3542C24.8911 34.7108 25.3991 34.867 25.8886 34.7656C26.3779 34.6641 26.7772 34.32 26.941 33.8585C27.7594 31.3149 29.3889 29.0934 31.5921 27.5182C33.7954 25.9433 36.4565 25.0972 39.1872 25.1037H39.2101C43.8036 25.1053 48.0469 27.4991 50.3428 31.3842C52.6382 35.269 52.6365 40.0546 50.3384 43.9382C48.0405 47.8217 43.7951 50.2131 39.2016 50.2115C38.953 50.2115 38.7031 50.1991 38.415 50.1851C38.0396 50.172 37.6744 50.304 37.398 50.552C37.1217 50.8003 36.9566 51.1448 36.9385 51.5107C36.9244 51.8823 37.0612 52.2442 37.319 52.5177C37.5768 52.7912 37.9347 52.9543 38.315 52.9717C38.6104 52.9857 38.9074 52.9997 39.2016 52.9997C43.2593 53.0231 47.1688 51.5123 50.1107 48.7835C53.0529 46.0551 54.7992 42.3203 54.9837 38.3622C55.1683 34.404 53.7768 30.5304 51.101 27.552C48.4251 24.5734 44.6724 22.7219 40.6291 22.3853L40.6235 22.3893Z" fill="#303030"/>
</svg>
