<svg width="20" height="20" viewBox="0 0 20 20" fill="none" xmlns="http://www.w3.org/2000/svg">
<rect x="0.5" y="0.5" width="19" height="19" rx="1.5" fill="white"/>
<path d="M8.575 11.175L14.475 5.275C14.6583 5.09167 14.8917 5 15.175 5C15.4583 5 15.6917 5.09167 15.875 5.275C16.0583 5.45833 16.15 5.69167 16.15 5.975C16.15 6.25833 16.0583 6.49167 15.875 6.675L9.275 13.275C9.075 13.475 8.84167 13.575 8.575 13.575C8.30833 13.575 8.075 13.475 7.875 13.275L5.275 10.675C5.09167 10.4917 5 10.2583 5 9.975C5 9.69167 5.09167 9.45833 5.275 9.275C5.45833 9.09167 5.69167 9 5.975 9C6.25833 9 6.49167 9.09167 6.675 9.275L8.575 11.175Z" fill="#303030"/>
<rect x="0.5" y="0.5" width="19" height="19" rx="1.5" stroke="#303030"/>
</svg>
