<svg width="70" height="70" viewBox="0 0 70 70" fill="none" xmlns="http://www.w3.org/2000/svg">
<circle cx="35" cy="35" r="35" fill="#F2F2F2"/>
<path d="M21.8065 24C21.4278 24.0016 21.1212 24.3227 21.1196 24.7196C21.1212 25.1161 21.4278 25.4372 21.8065 25.4388H40.8214V41.89H32.1463C31.9058 40.1695 30.4972 38.8307 28.8013 38.8307C27.1057 38.8307 25.6971 40.1692 25.4566 41.8897L22.4987 41.89V38.7604C22.4993 38.5679 22.4266 38.3829 22.2967 38.2468C22.1668 38.1108 21.99 38.0347 21.8062 38.0353C21.6233 38.036 21.4481 38.113 21.3194 38.2487C21.1904 38.3848 21.1184 38.5689 21.1193 38.7604V42.615C21.1208 43.0115 21.4275 43.3326 21.8062 43.3342H25.536C25.9221 44.8594 27.2393 46 28.8013 46C30.3633 46 31.6804 44.8598 32.0665 43.3342H44.648C45.034 44.8594 46.3512 46 47.9132 46C49.4751 46 50.7895 44.8598 51.1744 43.3342H54.3131C54.6918 43.3326 54.9985 43.0115 55 42.615V35.9083C55 35.8157 54.9831 35.7235 54.9501 35.6375L52.3678 28.9365V28.9369C52.2634 28.6648 52.0122 28.4859 51.732 28.4839H42.2017V24.7199C42.2002 24.3227 41.8926 24.0013 41.5132 24.0003L21.8065 24ZM18.8027 28.5684C18.6198 28.569 18.4447 28.6461 18.3156 28.7818C18.1869 28.9178 18.1149 29.1019 18.1158 29.2934C18.117 29.6899 18.424 30.011 18.8027 30.0126H29.2087C29.3916 30.0133 29.5671 29.9381 29.697 29.8031C29.827 29.6683 29.9002 29.4849 29.9008 29.2934C29.9018 29.1009 29.8291 28.9159 29.6989 28.7798C29.5689 28.6438 29.3925 28.5677 29.2087 28.5684L18.8027 28.5684ZM42.2024 29.9282H51.2637L53.2896 35.1891L42.2018 35.1887L42.2024 29.9282ZM15.6925 33.1732C15.5093 33.1726 15.3334 33.248 15.2035 33.3834C15.0736 33.5185 15.0003 33.7022 15 33.8941C15.0009 34.0855 15.0742 34.269 15.2038 34.4037C15.3338 34.5388 15.5096 34.6143 15.6925 34.6133H29.2087C29.3916 34.6143 29.5671 34.5388 29.697 34.4037C29.827 34.269 29.9002 34.0855 29.9009 33.8941C29.9005 33.7022 29.8276 33.5185 29.6976 33.3834C29.5677 33.248 29.3919 33.1726 29.2087 33.1732H15.6925ZM42.2024 36.633H53.6212V41.8896H51.2532C51.0136 40.1691 49.6096 38.8306 47.9138 38.8306C46.2182 38.8306 44.8108 40.1692 44.5703 41.8896H42.2023L42.2024 36.633ZM28.7508 40.2746C28.768 40.2742 28.7846 40.2746 28.8019 40.2746C29.9084 40.2746 30.8023 41.2152 30.8023 42.4113C30.8023 43.6073 29.9084 44.5552 28.8019 44.5552C27.6953 44.5552 26.8015 43.6074 26.8015 42.4113C26.8015 41.234 27.6682 40.3033 28.7508 40.2746ZM47.8625 40.2746C47.8798 40.2742 47.8964 40.2746 47.9137 40.2746C49.0202 40.2746 49.9153 41.2152 49.9153 42.4113C49.9153 43.6073 49.0203 44.5552 47.9137 44.5552C46.8071 44.5552 45.9132 43.6074 45.9132 42.4113C45.9132 41.234 46.78 40.3033 47.8625 40.2746Z" fill="#303030"/>
</svg>
