<svg width="137" height="251" viewBox="0 0 137 251" fill="none" xmlns="http://www.w3.org/2000/svg">
<path d="M137 0.227173H0V250.227H137V0.227173Z" fill="url(#paint0_linear_523_260)"/>
<path d="M134 0.227173H3V246.227H134V0.227173Z" fill="#C8C6C6"/>
<path d="M116.036 11.7351H20.6738V235.596H116.036V11.7351Z" fill="#DDDDDD"/>
<path d="M115.195 20.6499H21.5142L3.01416 8.76343H133.695L115.195 20.6499Z" fill="#B9B7B7"/>
<path d="M124 39.4701H12V45.4133H124V39.4701Z" fill="url(#paint1_linear_523_260)"/>
<path d="M124 137.227H12V143.17H124V137.227Z" fill="url(#paint2_linear_523_260)"/>
<path d="M12 38.4796H11V46.4039H12V38.4796Z" fill="url(#paint3_linear_523_260)"/>
<path d="M124 38.4796H123V46.4039H124V38.4796Z" fill="url(#paint4_linear_523_260)"/>
<defs>
<linearGradient id="paint0_linear_523_260" x1="68.5" y1="0.227173" x2="68.5" y2="250.227" gradientUnits="userSpaceOnUse">
<stop stop-color="#DEDEDE"/>
<stop offset="0.161458" stop-color="#DCD9D5"/>
<stop offset="0.723958" stop-color="#EDEBE7"/>
<stop offset="1" stop-color="#E4E1D9"/>
</linearGradient>
<linearGradient id="paint1_linear_523_260" x1="68" y1="39.4701" x2="68" y2="45.4133" gradientUnits="userSpaceOnUse">
<stop offset="0.09375" stop-color="#ADADAD"/>
<stop offset="0.348958" stop-color="white"/>
<stop offset="0.65625" stop-color="#D5D4D4"/>
<stop offset="1" stop-color="#A6A5A5"/>
</linearGradient>
<linearGradient id="paint2_linear_523_260" x1="68" y1="137.227" x2="68" y2="143.17" gradientUnits="userSpaceOnUse">
<stop offset="0.09375" stop-color="#ADADAD"/>
<stop offset="0.348958" stop-color="white"/>
<stop offset="0.65625" stop-color="#D5D4D4"/>
<stop offset="1" stop-color="#A6A5A5"/>
</linearGradient>
<linearGradient id="paint3_linear_523_260" x1="11.5" y1="38.4796" x2="11.5" y2="46.4039" gradientUnits="userSpaceOnUse">
<stop stop-color="#F2E1C5"/>
<stop offset="0.06" stop-color="#EEDDC2"/>
<stop offset="0.11" stop-color="#E1D1B8"/>
<stop offset="0.17" stop-color="#CDBEA7"/>
<stop offset="0.23" stop-color="#B0A390"/>
<stop offset="0.24" stop-color="#AA9D8B"/>
<stop offset="1" stop-color="#E4E1D9"/>
</linearGradient>
<linearGradient id="paint4_linear_523_260" x1="123.5" y1="38.4796" x2="123.5" y2="46.4039" gradientUnits="userSpaceOnUse">
<stop stop-color="#F2E1C5"/>
<stop offset="0.06" stop-color="#EEDDC2"/>
<stop offset="0.11" stop-color="#E1D1B8"/>
<stop offset="0.17" stop-color="#CDBEA7"/>
<stop offset="0.23" stop-color="#B0A390"/>
<stop offset="0.24" stop-color="#AA9D8B"/>
<stop offset="1" stop-color="#E4E1D9"/>
</linearGradient>
</defs>
</svg>
