<svg width="5" height="12" viewBox="0 0 5 12" fill="none" xmlns="http://www.w3.org/2000/svg">
<path d="M2.49709 0.823223C2.39946 0.725592 2.24117 0.725592 2.14354 0.823223L0.552546 2.41421C0.454915 2.51184 0.454915 2.67014 0.552546 2.76777C0.650177 2.8654 0.808468 2.8654 0.906099 2.76777L2.32031 1.35355L3.73453 2.76777C3.83216 2.8654 3.99045 2.8654 4.08808 2.76777C4.18571 2.67014 4.18571 2.51184 4.08808 2.41421L2.49709 0.823223ZM2.14354 11.1768C2.24117 11.2744 2.39946 11.2744 2.49709 11.1768L4.08808 9.58579C4.18571 9.48816 4.18571 9.32986 4.08808 9.23223C3.99045 9.1346 3.83216 9.1346 3.73453 9.23223L2.32031 10.6464L0.906099 9.23223C0.808468 9.1346 0.650177 9.1346 0.552546 9.23223C0.454915 9.32986 0.454915 9.48816 0.552546 9.58579L2.14354 11.1768ZM2.07031 1L2.07031 11L2.57031 11L2.57031 1L2.07031 1Z" fill="#303030"/>
</svg>
