<svg width="70" height="70" viewBox="0 0 70 70" fill="none" xmlns="http://www.w3.org/2000/svg">
<circle cx="35" cy="35" r="35" fill="#F2F2F2"/>
<path fill-rule="evenodd" clip-rule="evenodd" d="M42.721 30.5785C42.9429 30.8224 43.0596 31.1455 43.0453 31.4762C43.031 31.807 42.8868 32.1186 42.6449 32.3421L34.9108 39.4978C34.6823 39.7092 34.3837 39.8267 34.0737 39.827C34.05 39.8279 34.0264 39.8262 34.0033 39.8212C33.6697 39.8032 33.3574 39.65 33.1373 39.3965L29.258 34.887C28.9749 34.5489 28.8902 34.085 29.035 33.6671C29.1798 33.2494 29.5324 32.9399 29.9626 32.8533C30.3929 32.767 30.8362 32.9163 31.1287 33.2459L34.1747 36.7846L40.9705 30.5001C41.2134 30.2774 41.5336 30.1605 41.8617 30.1752C42.1895 30.1899 42.4986 30.3348 42.721 30.5784L42.721 30.5785ZM52.2911 40.6856C52.4887 40.546 52.5707 40.2909 52.4919 40.0609L51.2236 35.9031V35.9028C51.0382 35.3146 51.0382 34.6829 51.2236 34.0945L52.4919 29.9367C52.5704 29.7064 52.4887 29.4513 52.2911 29.3114L48.8426 26.6992H48.8424C48.3493 26.3343 47.9815 25.8231 47.7901 25.2369L46.3957 21.1236C46.3257 20.8894 46.1091 20.7319 45.8671 20.7387L41.5561 20.6715C40.9452 20.6662 40.3506 20.4712 39.8532 20.1137L36.3257 17.6076C36.1339 17.4589 35.8666 17.4589 35.6748 17.6076L32.1475 20.114L32.1473 20.1137C31.6496 20.4712 31.055 20.6659 30.4441 20.6715L26.1331 20.7387C25.8908 20.7316 25.674 20.8895 25.6045 21.1236L24.208 25.2369C24.0168 25.823 23.6488 26.3343 23.1558 26.6993L19.7094 29.3108C19.5118 29.4507 19.4297 29.7058 19.5083 29.9361L20.7769 34.0939V34.0942C20.9622 34.6823 20.9622 35.3141 20.7769 35.9025L19.5083 40.0603C19.4297 40.2906 19.512 40.5454 19.7094 40.6853L23.1578 43.2974H23.1581C23.6511 43.6623 24.0189 44.1736 24.2103 44.7595L25.6068 48.8728L25.6065 48.8731C25.6739 49.1087 25.892 49.2677 26.1351 49.2583L30.4467 49.3308C31.0576 49.3316 31.6528 49.5269 32.1473 49.8889L35.6745 52.3888L35.6748 52.3891C35.8677 52.5343 36.1328 52.5343 36.3257 52.3891L39.8532 49.8889C40.3483 49.5266 40.9444 49.331 41.5561 49.3308L45.8671 49.2583C46.1102 49.2677 46.3283 49.1087 46.3957 48.8731L47.7922 44.7598L47.7919 44.7595C47.9834 44.1737 48.3512 43.6623 48.8442 43.2974L52.2926 40.6853L52.2911 40.6856ZM54.86 39.3237L53.5917 35.166C53.5535 35.0579 53.5535 34.9395 53.5917 34.8314L54.86 30.673C55.0492 30.0693 55.0465 29.4208 54.8527 28.8184C54.6589 28.2161 54.2832 27.6901 53.7785 27.3134L50.3302 24.7013V24.7016C50.2347 24.6365 50.1652 24.5396 50.1343 24.4276L48.7378 20.3143H48.7381C48.5385 19.7141 48.1584 19.1916 47.6508 18.8193C47.1432 18.4474 46.5331 18.2441 45.9058 18.2383L41.5943 18.1711C41.4799 18.1735 41.3681 18.1361 41.2776 18.0654L37.7506 15.5649C37.2395 15.1973 36.6277 15 36.0001 15C35.3725 15 34.7607 15.1973 34.2496 15.5649L30.7224 18.0663C30.6316 18.137 30.5201 18.1744 30.4057 18.172L26.0947 18.2392H26.0944C25.4672 18.2451 24.8571 18.4483 24.3495 18.8203C23.8419 19.1925 23.4618 19.715 23.2621 20.3152L21.8657 24.4286H21.866C21.835 24.5405 21.7656 24.6374 21.6701 24.7025L18.2217 27.3134C17.717 27.6901 17.3414 28.2161 17.1475 28.8184C16.9534 29.4207 16.9508 30.0693 17.14 30.673L18.4086 34.8314C18.4465 34.9398 18.4465 35.0579 18.4086 35.1659L17.14 39.3237V39.324C16.9508 39.9278 16.9534 40.5763 17.1475 41.1787C17.3414 41.7813 17.717 42.3073 18.2217 42.684L21.6701 45.2961C21.7656 45.3609 21.8347 45.4578 21.866 45.5694L23.2624 49.6828H23.2621C23.4598 50.2842 23.8392 50.8081 24.3474 51.1804C24.8556 51.553 25.4665 51.7553 26.0944 51.7588L30.4053 51.826H30.4056C30.5194 51.8269 30.6304 51.864 30.7223 51.932L34.2495 54.4345V54.4348C34.7604 54.8024 35.3724 55 36.0001 55C36.6277 55 37.2397 54.8024 37.7506 54.4348L41.2775 51.9334C41.3694 51.8654 41.4804 51.8283 41.5945 51.8271L45.9054 51.7599H45.9057C46.5336 51.7564 47.1445 51.5541 47.6527 51.1818C48.1609 50.8092 48.5404 50.2855 48.738 49.6842L50.1344 45.5709L50.1341 45.5706C50.1654 45.4589 50.2345 45.362 50.33 45.2973L53.7784 42.6851V42.6854C54.2831 42.3087 54.6587 41.7824 54.8526 41.1801C55.0464 40.5775 55.049 39.9292 54.8599 39.3252L54.86 39.3237ZM36.0002 44.7267C38.5575 44.727 41.01 43.7024 42.8186 41.8781C44.6268 40.0539 45.6432 37.5796 45.6432 34.9993C45.6435 32.419 44.6277 29.9444 42.8195 28.1199C41.0115 26.2954 38.5589 25.2704 36.0017 25.2704C33.4444 25.2707 30.9922 26.2957 29.184 28.1205C27.376 29.945 26.3605 32.4197 26.3608 34.9999C26.3637 37.5784 27.3804 40.0507 29.1875 41.8744C30.9946 43.6978 33.4448 44.7236 36.0003 44.7268L36.0002 44.7267ZM36.0002 22.771V22.7707C32.7858 22.7701 29.7029 24.058 27.4293 26.3512C25.156 28.644 23.8786 31.7544 23.8781 34.9977C23.8778 38.241 25.1543 41.3517 27.427 43.6451C29.6996 45.9388 32.7823 47.2277 35.9964 47.228C39.2108 47.228 42.2937 45.94 44.5666 43.6466C46.8396 41.3535 48.1166 38.243 48.1169 35C48.1134 31.7582 46.8358 28.6498 44.5643 26.3572C42.2928 24.0643 39.2124 22.7746 35.9993 22.7705L36.0002 22.771Z" fill="#303030"/>
</svg>
