<svg width="70" height="70" viewBox="0 0 70 70" fill="none" xmlns="http://www.w3.org/2000/svg">
<circle cx="35" cy="35" r="35" fill="#F2F2F2"/>
<path d="M54.1211 45.9998C53.6357 45.9998 53.242 45.6127 53.242 45.1356V18.6171C53.242 17.5754 52.4515 16.7283 51.4795 16.7283C50.5144 16.7283 49.7582 17.5579 49.7582 18.6171V26.9233C49.7582 27.4004 49.3645 27.7875 48.8791 27.7875C48.3937 27.7875 48 27.4005 48 26.9233V18.6171C48 16.5888 49.5283 15 51.4794 15C53.4208 15 55 16.6228 55 18.6171V45.1356C55 45.613 54.6063 46 54.1209 46L54.1211 45.9998ZM48.8792 45.9998C48.3938 45.9998 48.0001 45.6127 48.0001 45.1356V31.2443C48.0001 30.7671 48.3938 30.3801 48.8792 30.3801C49.3645 30.3801 49.7582 30.7671 49.7582 31.2443V45.1356C49.7582 45.6127 49.3649 45.9998 48.8792 45.9998Z" fill="#303030"/>
<path d="M49.633 51L15.8515 50.9365C15.3811 50.9356 15 50.5477 15 50.0698V47.4228C15 46.9442 15.382 46.556 15.8531 46.556C16.3241 46.556 16.7061 46.9442 16.7061 47.4228V49.2046L49.6344 49.2665C51.4133 49.2665 52.96 48.0075 53.3113 46.2728C53.406 45.8038 53.8572 45.502 54.3188 45.5986C54.7803 45.6949 55.0773 46.1533 54.9823 46.6223C54.469 49.1591 52.2191 51 49.6329 51L49.633 51ZM49.1529 46.5279C49.1447 46.5279 49.1368 46.5279 49.1285 46.5276C48.667 46.5146 48.2993 46.1304 48.2993 45.6611V19.7336H46.2956C45.9718 20.053 45.6232 20.3725 45.2592 20.7065C44.7684 21.1562 44.2611 21.6212 43.7542 22.1407C43.594 22.305 43.3758 22.3973 43.1483 22.3973C42.9207 22.3973 42.7026 22.305 42.5423 22.1407C42.036 21.6218 41.5297 21.1572 41.0398 20.7081C40.6751 20.3734 40.326 20.0537 40.0021 19.7336H38.9029C38.4319 19.7336 38.0498 19.3454 38.0498 18.8668C38.0498 18.3882 38.4319 18 38.9029 18H40.3539C40.583 18 40.8027 18.0938 40.9629 18.2597C41.3203 18.6299 41.7395 19.0141 42.1828 19.4208C42.4981 19.7099 42.8201 20.0052 43.1485 20.3204C43.4775 20.0047 43.8002 19.7087 44.1164 19.4193C44.5593 19.0132 44.9779 18.6296 45.3353 18.2597C45.4958 18.0938 45.7152 18 45.944 18H49.1523C49.6233 18 50.0053 18.3882 50.0053 18.8668V42.6721C50.4961 42.3799 51.0652 42.2149 51.6757 42.2149C51.8972 42.2149 52.119 42.2375 52.3353 42.2818C52.7968 42.3768 53.0954 42.834 53.0019 43.3033C52.9083 43.7723 52.459 44.076 51.9965 43.9806C51.8917 43.959 51.7835 43.9481 51.6757 43.9481C50.7782 43.9481 50.0595 44.705 50.004 45.7086C49.9788 46.1692 49.6037 46.5273 49.1529 46.5273L49.1529 46.5279ZM15.8534 43.9561C15.3824 43.9561 15.0003 43.5679 15.0003 43.0893V18.8672C15.0003 18.3886 15.3823 18.0004 15.8534 18.0004H34.6436C35.1146 18.0004 35.4966 18.3886 35.4966 18.8672C35.4966 19.3457 35.1146 19.734 34.6436 19.734H16.7066V43.0892C16.7066 43.5677 16.3245 43.956 15.8535 43.956L15.8534 43.9561Z" fill="#303030"/>
<path d="M19 51C18.4479 51 18 50.6193 18 50.15V34.85C18 34.3807 18.4478 34 19 34C19.5522 34 20 34.3807 20 34.85V50.15C20 50.6196 19.5522 51 19 51Z" fill="#303030"/>
<path d="M39.8168 41.9999C39.7528 41.9999 39.6857 41.9974 39.6156 41.9944C39.5679 41.9923 39.5183 41.9898 39.4672 41.9898C39.2887 41.9892 39.108 41.9892 38.9274 41.9892L38.6139 41.9895C37.7889 41.9895 37.0829 41.4062 36.9347 40.6024C36.868 40.2398 36.7874 40.0533 36.7385 39.9662C36.6154 39.9786 36.5033 39.985 36.3986 39.985C35.9275 39.985 35.1425 39.8359 35.016 38.8678C34.964 38.8414 34.9113 38.8153 34.859 38.7889L34.6242 38.675C34.4503 38.5909 34.2749 38.5059 34.0949 38.4166C33.6953 38.2204 33.418 37.914 33.2345 37.7115C33.229 37.7054 33.2235 37.699 33.2174 37.6926H30.1547C30.137 38.0674 30.0785 39.1794 28.7143 39.1794C28.5664 39.1794 28.4036 39.17 28.215 39.1591C28.0086 39.1469 27.7625 39.1326 27.4689 39.1272C27.3446 39.2474 27.1676 39.4387 27.0489 39.5669C26.4757 40.1851 26.1301 40.5584 25.6158 40.5584H25.4903C24.8379 40.5584 24.4438 40.5584 24.0988 40.4257C23.5775 40.2255 23.313 39.7913 23.313 39.1357C23.313 38.9917 23.3225 38.8338 23.3335 38.6507C23.3473 38.4254 23.3638 38.1512 23.3672 37.8174C23.1645 37.3233 22.2094 35.4676 21.8829 34.8336C21.7727 34.6192 21.6864 34.4516 21.6389 34.358C21.203 33.4929 21 32.813 21 32.2178C21 30.5455 22.4753 30.0584 23.9019 29.5871C23.9975 29.5555 24.0945 29.5233 24.1937 29.4905C24.4224 29.411 24.6425 29.3454 24.8556 29.2819C25.0625 29.2203 25.2579 29.1623 25.4397 29.0973C25.5585 29.0548 25.6552 29.0229 25.7358 28.9962C25.755 28.9898 25.7759 28.9828 25.7958 28.9764C25.8273 28.9263 25.8686 28.8577 25.909 28.7909L25.9148 28.7812C26.3389 28.0721 26.736 27.418 27.1388 26.7551C27.186 26.6777 27.2276 26.6085 27.2686 26.5402C27.3246 26.4472 27.3794 26.3561 27.4428 26.2532C27.9299 25.453 28.4797 24.6683 29.3449 24.6683C29.7402 24.6683 30.042 24.8329 30.3084 24.9781C30.4713 25.0667 30.6289 25.1527 30.8209 25.2082C30.8429 25.1375 30.8628 25.0704 30.8775 25.0212C30.909 24.9158 30.9378 24.8196 30.9632 24.7446C30.9822 24.6872 31.0043 24.6119 31.0281 24.5308C31.2167 23.8918 31.4512 23.0966 32.2506 23.0966C32.8154 23.0966 33.3246 23.0665 33.774 23.0398C34.1353 23.0182 34.4472 23 34.7289 23C35.2206 23 35.5497 23.0586 35.8292 23.1965C36.2915 23.4242 36.5566 23.86 36.5566 24.3926C36.5566 24.7491 36.4443 25.1573 36.1923 25.7151L37.765 26.4804C37.9557 26.1934 38.038 25.7841 38.1326 25.3119C38.1752 25.1011 38.219 24.8828 38.2762 24.6547C38.2931 24.587 38.3087 24.512 38.3243 24.4364C38.4146 24.0019 38.6029 23.0972 39.4721 23.0972C39.5541 23.0972 39.6267 23.0948 39.6894 23.093C39.754 23.0911 39.8116 23.0893 39.8621 23.0893C40.7374 23.0893 40.9709 23.7288 40.9709 24.1069V25.4537C41.8104 25.8575 41.9564 26.7346 42.0856 27.5089C42.1267 27.7537 42.1686 28.0072 42.2304 28.2535C42.243 28.303 42.2534 28.3479 42.2626 28.3886C42.3152 28.4135 42.3749 28.4421 42.4423 28.4758C42.6437 28.5757 42.7934 28.6449 42.9135 28.7008C43.4758 28.9611 43.6072 29.0783 43.9161 29.5957C43.9446 29.6437 43.977 29.6978 44.0147 29.7597C44.0557 29.8274 44.1298 29.9465 44.2247 30.0995C46 32.9619 46 33.0885 46 33.394C46 34.8577 45.7983 35.9788 45.3458 37.0289C45.1599 37.4607 44.6563 37.6615 44.2207 37.4765C43.7854 37.2919 43.5833 36.7924 43.7694 36.3606C44.1169 35.5544 44.2731 34.7047 44.285 33.5416C44.1298 33.2252 43.6194 32.3689 42.7647 30.9906C42.6664 30.8323 42.5902 30.7091 42.5473 30.6386C42.5066 30.5715 42.4717 30.5135 42.4414 30.4622C42.4114 30.4121 42.379 30.3577 42.3554 30.3201C42.3122 30.2988 42.2479 30.269 42.1891 30.2417C42.0661 30.1849 41.8977 30.1069 41.6748 29.996C41.5671 29.9426 41.4829 29.9034 41.4161 29.8728C40.9542 29.659 40.7294 29.4683 40.6192 28.9037C40.6067 28.8382 40.592 28.7638 40.5669 28.6626C40.4888 28.3511 40.4389 28.051 40.3948 27.786C40.3483 27.5072 40.2791 27.0912 40.2007 26.9727C39.968 26.8619 39.7691 26.6985 39.6144 26.5005C39.5162 26.8279 39.3809 27.151 39.1687 27.4583C38.8549 27.9126 38.3329 28.1837 37.7724 28.1837C37.5122 28.1837 37.251 28.1236 37.0171 28.0097L35.4307 27.2378C34.8417 26.9512 34.4758 26.369 34.4758 25.7179C34.4758 25.4777 34.5263 25.2445 34.6261 25.0247C34.6858 24.8929 34.7293 24.786 34.7605 24.7004H34.7299C34.4994 24.7004 34.211 24.7174 33.8773 24.7374C33.5338 24.7577 33.1569 24.7802 32.7402 24.7908C32.7154 24.8701 32.6919 24.9497 32.6747 25.0086C32.6444 25.1109 32.6165 25.2053 32.5908 25.2819C32.5697 25.3444 32.5473 25.4207 32.5226 25.5039C32.3275 26.158 32.0848 26.9724 31.2888 26.9724C30.408 26.9724 29.8521 26.6694 29.4841 26.4689C29.4596 26.4556 29.432 26.4407 29.4048 26.4261C29.313 26.5279 29.1553 26.7319 28.9091 27.1361C28.8467 27.2375 28.7947 27.3241 28.7414 27.4127C28.6988 27.4835 28.6554 27.5555 28.6073 27.6347C28.2065 28.294 27.8113 28.945 27.3888 29.6517L27.3815 29.6641C27.026 30.2535 26.8818 30.4114 26.2775 30.6107C26.2083 30.6334 26.125 30.6608 26.0222 30.6975C25.7959 30.7783 25.5688 30.8457 25.3493 30.911C25.1445 30.972 24.951 31.0294 24.7584 31.0968C24.7547 31.098 24.7511 31.0993 24.7477 31.1005C24.6451 31.1348 24.5441 31.1682 24.4449 31.201C23.0231 31.6705 22.7161 31.8511 22.7161 32.218C22.7161 32.433 22.7954 32.8469 23.1734 33.5969C23.2194 33.6874 23.3036 33.8514 23.4113 34.0606C25.0838 37.3098 25.0838 37.4137 25.0838 37.6909C25.0838 38.134 25.063 38.4771 25.0465 38.7528C25.0443 38.7881 25.0422 38.8221 25.0403 38.8549C25.1441 38.8567 25.2583 38.8573 25.3661 38.8576C25.4904 38.7373 25.6689 38.5448 25.7883 38.4158C26.3614 37.7975 26.7073 37.424 27.2216 37.424C27.6781 37.424 28.0326 37.4446 28.3171 37.4613C28.3654 37.4641 28.412 37.4668 28.456 37.4692C28.565 36.6305 29.2826 35.9919 30.1481 35.9919H33.4817C33.9835 35.9919 34.2884 36.3289 34.5113 36.5746C34.6243 36.6994 34.7526 36.8409 34.86 36.8938C35.0376 36.9818 35.2084 37.0647 35.3774 37.1464L35.6199 37.2642C35.623 37.2657 35.626 37.2673 35.6291 37.2688C35.7623 37.3356 35.8951 37.4024 36.0298 37.4704C36.4349 37.68 36.5965 37.9994 36.6642 38.2624C36.7257 38.2548 36.7882 38.2512 36.8494 38.2512C37.3701 38.2512 38.2919 38.5163 38.6213 40.2888L38.929 40.2885C39.1112 40.2885 39.2936 40.2888 39.4758 40.2891C39.552 40.2894 39.6231 40.2924 39.6916 40.2952C39.7125 40.2961 39.733 40.297 39.7532 40.2976C39.8276 40.2278 39.8646 40.178 39.9007 40.1294C40.2341 39.68 40.5782 39.5977 41.1367 39.5977C41.1713 39.5977 41.2089 39.598 41.2487 39.5986C41.2965 39.5989 41.3684 39.6007 41.4508 39.6028C41.561 39.6059 41.692 39.6092 41.809 39.6092H41.8102C42.1356 39.3811 42.5893 39.4012 42.8915 39.6815C43.2375 40.0021 43.2577 40.5382 42.9344 40.881C42.721 41.1075 42.4938 41.239 42.2403 41.283C42.1341 41.3019 42.0046 41.3098 41.8093 41.3098C41.6777 41.3098 41.5298 41.3058 41.4055 41.3028C41.3363 41.301 41.2757 41.2994 41.2328 41.2988C41.2044 41.2985 41.1793 41.2982 41.156 41.2982C41.0638 41.4069 40.9297 41.5469 40.7286 41.7094C40.3652 42 39.9525 42 39.8169 42L39.8168 41.9999Z" fill="#303030"/>
</svg>
