<svg width="505" height="341" viewBox="0 0 505 341" fill="none" xmlns="http://www.w3.org/2000/svg">
<g clip-path="url(#clip0_210_67)">
<g style="mix-blend-mode:multiply" opacity="0.4">
<path d="M327.329 33H26V310H327.329V33Z" fill="#9B6C40"/>
</g>
<path d="M323.889 34.1655H26.9102V308.061H323.889V34.1655Z" fill="#D1D3D4"/>
<path d="M174.007 35.4414H28.8911V306.564H174.007V35.4414Z" fill="#F1F2F2"/>
<path d="M321.734 34.5273H177.033V305.65H321.734V34.5273Z" fill="#F1F2F2"/>
<path d="M44.2718 259.433C49.233 243.405 55.756 227.672 63.7883 212.362C78.7671 183.406 97.4136 155.807 121.2 130.608C135.069 115.707 151.077 101.994 168.934 89.7164V41.6709H35.6245V289.554C38.5962 279.537 41.2466 269.45 44.2718 259.433Z" fill="white"/>
<path d="M221.019 66.6178C239.032 58.6884 258.279 52.4558 278.323 48.0608C290.451 45.4184 302.686 43.3386 315.001 41.5201V40.7866H182.106V87.8475C194.139 79.8502 207.17 72.7408 221.019 66.6178Z" fill="white"/>
<g style="mix-blend-mode:multiply" opacity="0.4">
<path d="M131.976 273.318C112.526 284.607 90.9724 293.689 68.0046 300.274C59.7857 302.645 51.4731 304.705 43.1069 306.564H174.007V245.025C160.897 255.183 146.852 264.638 131.976 273.318Z" fill="#BFBFC5"/>
</g>
<g style="mix-blend-mode:multiply" opacity="0.4">
<path d="M478 33H327.329V310H478V33Z" fill="#9B6C40"/>
</g>
<path d="M476.273 34.1655H327.784V308.061H476.273V34.1655Z" fill="#D1D3D4"/>
<path d="M475.336 35.4414H330.22V306.564H475.336V35.4414Z" fill="#F1F2F2"/>
<path d="M345.614 259.433C350.563 243.403 357.086 227.669 365.13 212.362C380.096 183.406 398.742 155.807 422.502 130.608C436.371 115.707 452.378 101.994 470.236 89.7164V41.6709H336.953V289.554C339.925 279.537 342.575 269.45 345.614 259.433Z" fill="white"/>
<g style="mix-blend-mode:multiply" opacity="0.4">
<path d="M433.305 273.318C413.855 284.607 392.301 293.689 369.334 300.274C361.115 302.645 352.802 304.705 344.436 306.564H475.336V245.025C462.226 255.183 448.181 264.638 433.305 273.318Z" fill="#BFBFC5"/>
</g>
<g style="mix-blend-mode:multiply" opacity="0.4">
<path d="M315.75 63.0712C309.74 75.9416 302.177 88.3901 295.484 101.07C279.073 132.216 259.663 162.628 233.909 190.077C216.715 208.647 197.695 226.225 177.006 242.664V305.65H321.707V47.9302C320.129 53.0626 318.14 58.1189 315.75 63.0712Z" fill="#BFBFC5"/>
</g>
</g>
<path d="M505 154.706C505 155.821 504.793 156.802 504.38 157.65C503.967 158.497 503.387 159.158 502.64 159.63C501.901 160.103 501.04 160.34 500.055 160.34C499.08 160.34 498.218 160.103 497.471 159.63C496.732 159.158 496.152 158.497 495.73 157.65C495.317 156.802 495.111 155.821 495.111 154.706V150.41H505V154.706ZM495.44 151.668L496.205 150.865V154.759C496.205 155.616 496.368 156.365 496.693 157.007C497.018 157.65 497.471 158.149 498.051 158.506C498.631 158.872 499.299 159.055 500.055 159.055C500.829 159.055 501.501 158.872 502.073 158.506C502.653 158.149 503.106 157.65 503.431 157.007C503.756 156.365 503.919 155.616 503.919 154.759V150.865L504.67 151.668H495.44Z" fill="#303030"/>
<path d="M493.37 160.836L495.48 161.813L495.045 161.879C495.045 161.71 495.08 161.558 495.15 161.424C495.229 161.3 495.335 161.197 495.467 161.117C495.598 161.045 495.739 161.01 495.889 161.01C496.047 161.01 496.187 161.045 496.311 161.117C496.442 161.197 496.543 161.3 496.614 161.424C496.693 161.558 496.732 161.705 496.732 161.866C496.732 162.045 496.693 162.196 496.614 162.321C496.535 162.455 496.425 162.558 496.284 162.629C496.152 162.709 496.003 162.749 495.836 162.749C495.66 162.749 495.48 162.714 495.295 162.642C495.111 162.58 494.864 162.459 494.557 162.281L493.37 161.612V160.836Z" fill="#303030"/>
<path d="M495.111 167.669H502.534V169.489L495.612 173.076V172.433L502.534 176.006V177.826H495.111V176.662H502.191V177.077L495.111 173.357V172.139L502.178 168.418V168.833H495.111V167.669Z" fill="#303030"/>
<path d="M495.111 179.836H502.534V181.656L495.612 185.243V184.6L502.534 188.174V189.994H495.111V188.829H502.191V189.244L495.111 185.524V184.306L502.178 180.586V181H495.111V179.836Z" fill="#303030"/>
<path d="M6.25008 179.729C7.03244 179.818 7.72689 180.1 8.33344 180.572C8.9312 181.045 9.39709 181.665 9.73114 182.433C10.0652 183.191 10.2322 184.061 10.2322 185.042C10.2322 186.148 10.0168 187.121 9.58609 187.96C9.15536 188.789 8.5576 189.436 7.79282 189.9C7.01925 190.364 6.12701 190.596 5.1161 190.596C4.0964 190.596 3.20415 190.364 2.43938 189.9C1.6746 189.436 1.07684 188.789 0.646105 187.96C0.215368 187.121 4.76466e-08 186.148 0 185.042C-4.22672e-08 184.061 0.16702 183.191 0.501061 182.433C0.835102 181.665 1.301 181.045 1.89876 180.572C2.48772 180.1 3.17778 179.818 3.96893 179.729V181.001C3.38876 181.108 2.88769 181.34 2.46575 181.697C2.03501 182.053 1.70537 182.517 1.47681 183.088C1.23947 183.659 1.12079 184.315 1.12079 185.056C1.12079 185.921 1.28342 186.675 1.60867 187.317C1.93392 187.951 2.39542 188.441 2.99318 188.789C3.59094 189.137 4.29858 189.311 5.1161 189.311C5.92483 189.311 6.62807 189.137 7.22583 188.789C7.82359 188.441 8.28949 187.951 8.62353 187.317C8.94878 186.675 9.1114 185.921 9.1114 185.056C9.1114 184.315 8.99713 183.659 8.76857 183.088C8.53123 182.517 8.20158 182.053 7.77963 181.697C7.3489 181.34 6.83905 181.108 6.25008 181.001V179.729Z" fill="#303030"/>
<path d="M11.8013 179.138L9.69158 178.161L10.1267 178.094C10.1267 178.263 10.0915 178.415 10.0212 178.549C9.94211 178.674 9.83662 178.776 9.70476 178.857C9.57291 178.928 9.43226 178.964 9.28282 178.964C9.12459 178.964 8.98394 178.928 8.86087 178.857C8.72901 178.776 8.62792 178.674 8.5576 178.549C8.47848 178.415 8.43893 178.268 8.43893 178.107C8.43893 177.929 8.47848 177.777 8.5576 177.652C8.63671 177.518 8.74659 177.416 8.88724 177.344C9.0191 177.264 9.16854 177.224 9.33556 177.224C9.51137 177.224 9.69158 177.26 9.87618 177.331C10.0608 177.393 10.3069 177.514 10.6146 177.692L11.8013 178.361V179.138Z" fill="#303030"/>
<path d="M10.0608 172.304H2.63716V170.484L9.55972 166.898V167.54L2.63716 163.967V162.147H10.0608V163.311L2.97999 163.311V162.896L10.0608 166.617V167.835L2.99318 171.555V171.14H10.0608V172.304Z" fill="#303030"/>
<path d="M10.0608 160.137H2.63716L2.63716 158.317L9.55972 154.731V155.373L2.63716 151.8V149.98H10.0608V151.144L2.97999 151.144V150.729L10.0608 154.449V155.667L2.99318 159.388V158.973H10.0608V160.137Z" fill="#303030"/>
<path d="M237.309 321.015L237.454 320.694C238.254 320.703 238.9 320.828 239.392 321.069C239.885 321.301 240.245 321.618 240.474 322.019C240.702 322.412 240.816 322.849 240.816 323.331C240.816 323.857 240.689 324.325 240.434 324.736C240.188 325.137 239.823 325.454 239.34 325.686C238.856 325.918 238.258 326.034 237.546 326.034H231.309L232.087 320.882L231.309 315.997H237.322C238.236 315.997 238.935 316.216 239.419 316.653C239.911 317.081 240.157 317.67 240.157 318.419C240.157 318.812 240.06 319.2 239.867 319.584C239.682 319.958 239.384 320.279 238.97 320.547C238.557 320.806 238.003 320.962 237.309 321.015ZM232.575 325.619L232.101 324.99H237.48C238.131 324.99 238.636 324.843 238.997 324.548C239.366 324.245 239.551 323.812 239.551 323.25C239.551 322.653 239.335 322.193 238.904 321.872C238.474 321.551 237.836 321.39 236.993 321.39H232.72V320.373H236.927C237.489 320.373 237.955 320.217 238.324 319.905C238.702 319.592 238.891 319.137 238.891 318.54C238.891 318.103 238.737 317.746 238.43 317.469C238.131 317.184 237.687 317.041 237.098 317.041H232.101L232.575 316.412L233.287 320.882L232.575 325.619Z" fill="#303030"/>
<path d="M241.835 327.8L242.797 325.659L242.863 326.101C242.696 326.101 242.547 326.065 242.415 325.994C242.292 325.914 242.191 325.806 242.112 325.673C242.041 325.539 242.006 325.396 242.006 325.244C242.006 325.084 242.041 324.941 242.112 324.816C242.191 324.682 242.292 324.58 242.415 324.508C242.547 324.428 242.692 324.388 242.85 324.388C243.026 324.388 243.175 324.428 243.298 324.508C243.43 324.589 243.531 324.7 243.602 324.843C243.681 324.977 243.72 325.128 243.72 325.298C243.72 325.476 243.685 325.659 243.615 325.847C243.553 326.034 243.434 326.284 243.259 326.596L242.599 327.8H241.835Z" fill="#303030"/>
<path d="M248.567 326.034V318.5H250.361L253.894 325.525H253.262L256.782 318.5H258.575V326.034H257.428V318.847H257.837L254.171 326.034H252.971L249.306 318.861H249.715V326.034H248.567Z" fill="#303030"/>
<path d="M260.556 326.034V318.5H262.349L265.883 325.525H265.25L268.77 318.5H270.564V326.034H269.417V318.847H269.825L266.16 326.034H264.96L261.294 318.861H261.703V326.034H260.556Z" fill="#303030"/>
<path d="M232.668 19.5678V18.4972H239.63V19.5678H232.668ZM236.927 12.02L241.792 22.057H240.447L235.872 12.4483H236.531L231.942 22.057H230.597L235.463 12.02H236.927Z" fill="#303030"/>
<path d="M242.453 23.8235L243.415 21.6823L243.481 22.1239C243.314 22.1239 243.165 22.0882 243.033 22.0168C242.91 21.9366 242.809 21.8295 242.73 21.6957C242.659 21.5618 242.624 21.4191 242.624 21.2674C242.624 21.1068 242.659 20.9641 242.73 20.8392C242.809 20.7053 242.91 20.6027 243.033 20.5314C243.165 20.4511 243.31 20.4109 243.468 20.4109C243.644 20.4109 243.793 20.4511 243.916 20.5314C244.048 20.6117 244.149 20.7232 244.22 20.8659C244.299 20.9998 244.338 21.1514 244.338 21.3209C244.338 21.4994 244.303 21.6823 244.233 21.8696C244.171 22.057 244.053 22.3068 243.877 22.6191L243.217 23.8235H242.453Z" fill="#303030"/>
<path d="M249.185 22.057V14.5226H250.979L254.513 21.5485H253.88L257.4 14.5226H259.194V22.057H258.046V14.8705H258.455L254.789 22.057H253.59L249.924 14.8839H250.333V22.057H249.185Z" fill="#303030"/>
<path d="M261.174 22.057V14.5226H262.967L266.501 21.5485H265.868L269.389 14.5226H271.182V22.057H270.035V14.8705H270.443L266.778 22.057H265.578L261.912 14.8839H262.321V22.057H261.174Z" fill="#303030"/>
<path d="M18.3536 29.9428C18.1583 29.7476 17.8417 29.7476 17.6464 29.9428L14.4645 33.1248C14.2692 33.3201 14.2692 33.6367 14.4645 33.8319C14.6597 34.0272 14.9763 34.0272 15.1716 33.8319L18 31.0035L20.8284 33.8319C21.0237 34.0272 21.3403 34.0272 21.5355 33.8319C21.7308 33.6367 21.7308 33.3201 21.5355 33.1248L18.3536 29.9428ZM17.6465 309.877C17.8417 310.072 18.1583 310.072 18.3536 309.877L21.5355 306.695C21.7308 306.5 21.7308 306.183 21.5355 305.988C21.3403 305.793 21.0237 305.793 20.8284 305.988L18 308.816L15.1716 305.988C14.9763 305.793 14.6597 305.793 14.4645 305.988C14.2692 306.183 14.2692 306.5 14.4645 306.695L17.6465 309.877ZM17.5 30.2964L17.5 309.523L18.5 309.523L18.5 30.2964L17.5 30.2964Z" fill="black"/>
<path d="M33.3536 313.231C33.1583 313.036 32.8417 313.036 32.6464 313.231L29.4645 316.413C29.2692 316.609 29.2692 316.925 29.4645 317.12C29.6597 317.316 29.9763 317.316 30.1716 317.12L33 314.292L35.8284 317.12C36.0237 317.316 36.3403 317.316 36.5355 317.12C36.7308 316.925 36.7308 316.609 36.5355 316.413L33.3536 313.231ZM32.6464 333.231C32.8417 333.426 33.1583 333.426 33.3536 333.231L36.5355 330.049C36.7308 329.853 36.7308 329.537 36.5355 329.341C36.3403 329.146 36.0237 329.146 35.8284 329.341L33 332.17L30.1716 329.341C29.9763 329.146 29.6597 329.146 29.4645 329.341C29.2692 329.537 29.2692 329.853 29.4645 330.049L32.6464 333.231ZM32.5 313.585L32.5 332.877L33.5 332.877L33.5 313.585L32.5 313.585Z" fill="black"/>
<path d="M33.3536 7.60445C33.1583 7.40919 32.8417 7.40919 32.6464 7.60445L29.4645 10.7864C29.2692 10.9817 29.2692 11.2983 29.4645 11.4935C29.6597 11.6888 29.9763 11.6888 30.1716 11.4935L33 8.66511L35.8284 11.4935C36.0237 11.6888 36.3403 11.6888 36.5355 11.4935C36.7308 11.2983 36.7308 10.9817 36.5355 10.7864L33.3536 7.60445ZM32.6464 27.6036C32.8417 27.7989 33.1583 27.7989 33.3536 27.6036L36.5355 24.4216C36.7308 24.2264 36.7308 23.9098 36.5355 23.7145C36.3403 23.5193 36.0237 23.5193 35.8284 23.7145L33 26.543L30.1716 23.7145C29.9763 23.5193 29.6597 23.5193 29.4645 23.7145C29.2692 23.9098 29.2692 24.2264 29.4645 24.4216L32.6464 27.6036ZM32.5 7.95801L32.5 27.2501L33.5 27.2501L33.5 7.95801L32.5 7.95801Z" fill="black"/>
<path d="M474.354 313.231C474.158 313.036 473.842 313.036 473.646 313.231L470.464 316.413C470.269 316.609 470.269 316.925 470.464 317.12C470.66 317.316 470.976 317.316 471.172 317.12L474 314.292L476.828 317.12C477.024 317.316 477.34 317.316 477.536 317.12C477.731 316.925 477.731 316.609 477.536 316.413L474.354 313.231ZM473.646 333.231C473.842 333.426 474.158 333.426 474.354 333.231L477.536 330.049C477.731 329.853 477.731 329.537 477.536 329.341C477.34 329.146 477.024 329.146 476.828 329.341L474 332.17L471.172 329.341C470.976 329.146 470.66 329.146 470.464 329.341C470.269 329.537 470.269 329.853 470.464 330.049L473.646 333.231ZM473.5 313.585L473.5 332.877L474.5 332.877L474.5 313.585L473.5 313.585Z" fill="black"/>
<path d="M474.354 7.60445C474.158 7.40919 473.842 7.40919 473.646 7.60445L470.464 10.7864C470.269 10.9817 470.269 11.2983 470.464 11.4935C470.66 11.6888 470.976 11.6888 471.172 11.4935L474 8.66511L476.828 11.4935C477.024 11.6888 477.34 11.6888 477.536 11.4935C477.731 11.2983 477.731 10.9817 477.536 10.7864L474.354 7.60445ZM473.646 27.6036C473.842 27.7989 474.158 27.7989 474.354 27.6036L477.536 24.4216C477.731 24.2264 477.731 23.9098 477.536 23.7145C477.34 23.5193 477.024 23.5193 476.828 23.7145L474 26.543L471.172 23.7145C470.976 23.5193 470.66 23.5193 470.464 23.7145C470.269 23.9098 470.269 24.2264 470.464 24.4216L473.646 27.6036ZM473.5 7.95801L473.5 27.2501L474.5 27.2501L474.5 7.95801L473.5 7.95801Z" fill="black"/>
<path d="M489.354 29.9428C489.158 29.7476 488.842 29.7476 488.646 29.9428L485.464 33.1248C485.269 33.3201 485.269 33.6367 485.464 33.8319C485.66 34.0272 485.976 34.0272 486.172 33.8319L489 31.0035L491.828 33.8319C492.024 34.0272 492.34 34.0272 492.536 33.8319C492.731 33.6367 492.731 33.3201 492.536 33.1248L489.354 29.9428ZM488.646 309.877C488.842 310.072 489.158 310.072 489.354 309.877L492.536 306.695C492.731 306.5 492.731 306.183 492.536 305.988C492.34 305.793 492.024 305.793 491.828 305.988L489 308.816L486.172 305.988C485.976 305.793 485.66 305.793 485.464 305.988C485.269 306.183 485.269 306.5 485.464 306.695L488.646 309.877ZM488.5 30.2964L488.5 309.523L489.5 309.523L489.5 30.2964L488.5 30.2964Z" fill="black"/>
<line x1="29" y1="338.5" x2="479" y2="338.5" stroke="#D9DADC" stroke-width="5"/>
<line x1="29" y1="3.42773" x2="479" y2="3.42773" stroke="#D9DADC" stroke-width="5"/>
<defs>
<clipPath id="clip0_210_67">
<rect width="452" height="277" fill="white" transform="translate(26 33)"/>
</clipPath>
</defs>
</svg>
