<svg width="70" height="70" viewBox="0 0 70 70" fill="none" xmlns="http://www.w3.org/2000/svg">
<circle cx="35" cy="35" r="35" fill="#F2F2F2"/>
<path d="M32.5606 34.5609C32.842 34.2795 33 33.8979 33 33.5001C33 33.1023 32.842 32.7208 32.5606 32.4394C32.2795 32.158 31.8979 32 31.4999 32C31.1021 32 30.7205 32.158 30.4394 32.4394C30.158 32.7207 30 33.1023 30 33.5001C30 33.8979 30.158 34.2795 30.4394 34.5609C30.7208 34.842 31.1021 35 31.4999 35C31.8979 35 32.2792 34.842 32.5606 34.5609Z" fill="#303030"/>
<path d="M30.4394 42.4394C30.158 42.7208 30 43.1021 30 43.5001C30 43.8979 30.158 44.2792 30.4394 44.5606C30.7208 44.842 31.1021 45 31.5001 45C31.8979 45 32.2792 44.842 32.5606 44.5606C32.842 44.2792 33 43.8977 33 43.4999C33 43.1021 32.842 42.7205 32.5606 42.4394C32.2792 42.158 31.8979 42 31.4999 42C31.1021 42 30.7205 42.158 30.4394 42.4394Z" fill="#303030"/>
<path d="M37.8746 38.0003L25.1254 38C24.504 38 24 38.4477 24 38.9997C24 39.552 24.504 39.9997 25.1254 39.9997L37.8746 40C38.496 40 39 39.5523 39 39.0003C39 38.448 38.496 38.0003 37.8746 38.0003Z" fill="#303030"/>
<path d="M52.5254 17.479C50.4822 15.4213 47.5209 14.5641 44.6942 15.2126C41.8675 15.8612 39.5761 17.9229 38.6344 20.6656L34.0332 20.1545C33.7153 20.1187 33.3987 20.2298 33.1727 20.456L15.3083 38.3184C14.8972 38.7295 14.8972 39.3959 15.3083 39.8069L30.1948 54.6917C30.6059 55.1028 31.2724 55.1028 31.6834 54.6917L49.5478 36.8293C49.7741 36.6034 49.8849 36.2868 49.8494 35.969L49.3388 31.3739C52.0799 30.4282 54.1394 28.1361 54.7873 25.3104C55.4353 22.4843 54.5802 19.5239 52.5252 17.4788L52.5254 17.479ZM30.9391 52.4592L17.5412 39.0628L34.3035 22.3024L46.3614 23.6422L47.0374 29.7233V29.7236C45.2054 29.8636 43.4039 29.1974 42.1045 27.8988C41.6931 27.4896 41.0278 27.4905 40.6177 27.901C40.2072 28.311 40.2066 28.9759 40.6158 29.3873C42.3674 31.1381 44.8022 32.0269 47.2699 31.8164L47.7014 35.699L30.9391 52.4592ZM49.0984 29.2143L48.3603 22.5728C48.306 22.084 47.9197 21.6977 47.4309 21.6435L40.7858 20.9052H40.7855C41.6183 18.9874 43.3461 17.6063 45.3999 17.2156C47.454 16.8249 49.5681 17.4757 51.0467 18.9539C52.5253 20.4317 53.1768 22.5455 52.7867 24.5994C52.397 26.6533 51.016 28.3809 49.0984 29.2143Z" fill="#303030"/>
</svg>
