<svg width="271" height="255" viewBox="0 0 271 255" fill="none" xmlns="http://www.w3.org/2000/svg">
<path d="M137 0.5H0V254.5H137V0.5Z" fill="url(#paint0_linear_523_189)"/>
<path d="M271 0.5H134V254.5H271V0.5Z" fill="url(#paint1_linear_523_189)"/>
<path d="M134 0.5H3V250.5H134V0.5Z" fill="#C8C6C6"/>
<path d="M268 1.5H137V250.5H268V1.5Z" fill="#C8C6C6"/>
<path d="M116.036 13H20.6738V239H116.036V13Z" fill="#DDDDDD"/>
<path d="M250.036 13H154.674V239H250.036V13Z" fill="#DDDDDD"/>
<path d="M115.195 22H21.5141L3.01414 10H133.695L115.195 22Z" fill="#B9B7B7"/>
<path d="M249.195 22H155.514L137.014 10H267.695L249.195 22Z" fill="#B9B7B7"/>
<path d="M2.99982 9.99999L268 10L268 7.00001L2.99983 7L2.99982 9.99999Z" fill="white"/>
<path d="M31.1815 1L240.176 1.00001L268 7L2.99999 6.99999L31.1815 1Z" fill="#C6C6C6"/>
<path style="mix-blend-mode:multiply" opacity="0.5" d="M5.02289 6.99999L268 7L254 1L17 0.5L5.02289 6.99999Z" fill="url(#paint2_linear_523_189)"/>
<path d="M137 9.99999L268 10L268 7.00001L137 7L137 9.99999Z" fill="white"/>
<path d="M133.695 61H3.01418V64H133.695V61Z" fill="white"/>
<path d="M119.567 69.9085H16.7083L3.01418 63.8362H133.437L119.567 69.9085Z" fill="#C6C6C6"/>
<path style="mix-blend-mode:multiply" opacity="0.5" d="M133.106 64H3.01418L16.7083 70.0106H118.979L133.106 64Z" fill="url(#paint3_linear_523_189)"/>
<path style="mix-blend-mode:multiply" d="M119.567 70H17.1418V86H119.567V70Z" fill="url(#paint4_linear_523_189)"/>
<path style="mix-blend-mode:multiply" d="M130.099 81H4.98473L1.8369 64H133.695L130.099 81Z" fill="url(#paint5_linear_523_189)"/>
<path d="M133.695 125H3.01418V128H133.695V125Z" fill="white"/>
<path d="M119.567 133.909H16.7083L3.01418 127.836H133.437L119.567 133.909Z" fill="#C6C6C6"/>
<path style="mix-blend-mode:multiply" opacity="0.5" d="M133.106 128H3.01418L16.7083 134.011H118.979L133.106 128Z" fill="url(#paint6_linear_523_189)"/>
<path style="mix-blend-mode:multiply" d="M119.567 134H17.1418V150H119.567V134Z" fill="url(#paint7_linear_523_189)"/>
<path style="mix-blend-mode:multiply" d="M130.099 145H4.98473L1.8369 128H133.695L130.099 145Z" fill="url(#paint8_linear_523_189)"/>
<path d="M133.695 189H3.01418V192H133.695V189Z" fill="white"/>
<path d="M119.567 197.909H16.7083L3.01418 191.836H133.437L119.567 197.909Z" fill="#C6C6C6"/>
<path style="mix-blend-mode:multiply" opacity="0.5" d="M133.106 192H3.01418L16.7083 198.011H118.979L133.106 192Z" fill="url(#paint9_linear_523_189)"/>
<path style="mix-blend-mode:multiply" d="M119.567 198H17.1418V214H119.567V198Z" fill="url(#paint10_linear_523_189)"/>
<path style="mix-blend-mode:multiply" d="M130.099 209H4.98473L1.8369 192H133.695L130.099 209Z" fill="url(#paint11_linear_523_189)"/>
<path d="M267.695 61H137.014V64H267.695V61Z" fill="white"/>
<path d="M253.567 69.9085H150.708L137.014 63.8362H267.437L253.567 69.9085Z" fill="#C6C6C6"/>
<path style="mix-blend-mode:multiply" opacity="0.5" d="M267.106 64H137.014L150.708 70.0106H252.979L267.106 64Z" fill="url(#paint12_linear_523_189)"/>
<path style="mix-blend-mode:multiply" d="M253.567 70H151.142V86H253.567V70Z" fill="url(#paint13_linear_523_189)"/>
<path style="mix-blend-mode:multiply" d="M264.099 81H138.985L135.837 64H267.695L264.099 81Z" fill="url(#paint14_linear_523_189)"/>
<path d="M267.695 125H137.014V128H267.695V125Z" fill="white"/>
<path d="M253.567 133.909H150.708L137.014 127.836H267.437L253.567 133.909Z" fill="#C6C6C6"/>
<path style="mix-blend-mode:multiply" opacity="0.5" d="M267.106 128H137.014L150.708 134.011H252.979L267.106 128Z" fill="url(#paint15_linear_523_189)"/>
<path style="mix-blend-mode:multiply" d="M253.567 134H151.142V150H253.567V134Z" fill="url(#paint16_linear_523_189)"/>
<path style="mix-blend-mode:multiply" d="M264.099 145H138.985L135.837 128H267.695L264.099 145Z" fill="url(#paint17_linear_523_189)"/>
<path d="M267.695 189H137.014V192H267.695V189Z" fill="white"/>
<path d="M253.567 197.909H150.708L137.014 191.836H267.437L253.567 197.909Z" fill="#C6C6C6"/>
<path style="mix-blend-mode:multiply" opacity="0.5" d="M267.106 192H137.014L150.708 198.011H252.979L267.106 192Z" fill="url(#paint18_linear_523_189)"/>
<path style="mix-blend-mode:multiply" d="M253.567 198H151.142V214H253.567V198Z" fill="url(#paint19_linear_523_189)"/>
<path style="mix-blend-mode:multiply" d="M264.099 209H138.985L135.837 192H267.695L264.099 209Z" fill="url(#paint20_linear_523_189)"/>
<defs>
<linearGradient id="paint0_linear_523_189" x1="68.5" y1="0.5" x2="68.5" y2="254.5" gradientUnits="userSpaceOnUse">
<stop stop-color="#DEDEDE"/>
<stop offset="0.161458" stop-color="#DCD9D5"/>
<stop offset="0.723958" stop-color="#EDEBE7"/>
<stop offset="1" stop-color="#E4E1D9"/>
</linearGradient>
<linearGradient id="paint1_linear_523_189" x1="202.5" y1="0.5" x2="202.5" y2="254.5" gradientUnits="userSpaceOnUse">
<stop stop-color="#DEDEDE"/>
<stop offset="0.161458" stop-color="#DCD9D5"/>
<stop offset="0.723958" stop-color="#EDEBE7"/>
<stop offset="1" stop-color="#E4E1D9"/>
</linearGradient>
<linearGradient id="paint2_linear_523_189" x1="137.042" y1="10.64" x2="137.042" y2="4.40744" gradientUnits="userSpaceOnUse">
<stop stop-color="white"/>
<stop offset="0.31" stop-color="#FBFBFB"/>
<stop offset="0.59" stop-color="#F0F0F0"/>
<stop offset="0.86" stop-color="#DEDEDE"/>
<stop offset="1" stop-color="#D1D1D1"/>
</linearGradient>
<linearGradient id="paint3_linear_523_189" x1="67.798" y1="60.3535" x2="67.798" y2="66.5971" gradientUnits="userSpaceOnUse">
<stop stop-color="white"/>
<stop offset="0.31" stop-color="#FBFBFB"/>
<stop offset="0.59" stop-color="#F0F0F0"/>
<stop offset="0.86" stop-color="#DEDEDE"/>
<stop offset="1" stop-color="#D1D1D1"/>
</linearGradient>
<linearGradient id="paint4_linear_523_189" x1="68.3546" y1="86.7805" x2="68.3546" y2="70.1405" gradientUnits="userSpaceOnUse">
<stop stop-color="white"/>
<stop offset="0.31" stop-color="#FBFBFB"/>
<stop offset="0.59" stop-color="#F0F0F0"/>
<stop offset="0.86" stop-color="#DEDEDE"/>
<stop offset="1" stop-color="#D1D1D1"/>
</linearGradient>
<linearGradient id="paint5_linear_523_189" x1="67.766" y1="82.3348" x2="67.766" y2="64.1494" gradientUnits="userSpaceOnUse">
<stop stop-color="white"/>
<stop offset="0.31" stop-color="#FBFBFB"/>
<stop offset="0.59" stop-color="#F0F0F0"/>
<stop offset="0.86" stop-color="#DEDEDE"/>
<stop offset="1" stop-color="#D1D1D1"/>
</linearGradient>
<linearGradient id="paint6_linear_523_189" x1="67.798" y1="124.354" x2="67.798" y2="130.597" gradientUnits="userSpaceOnUse">
<stop stop-color="white"/>
<stop offset="0.31" stop-color="#FBFBFB"/>
<stop offset="0.59" stop-color="#F0F0F0"/>
<stop offset="0.86" stop-color="#DEDEDE"/>
<stop offset="1" stop-color="#D1D1D1"/>
</linearGradient>
<linearGradient id="paint7_linear_523_189" x1="68.3546" y1="150.78" x2="68.3546" y2="134.14" gradientUnits="userSpaceOnUse">
<stop stop-color="white"/>
<stop offset="0.31" stop-color="#FBFBFB"/>
<stop offset="0.59" stop-color="#F0F0F0"/>
<stop offset="0.86" stop-color="#DEDEDE"/>
<stop offset="1" stop-color="#D1D1D1"/>
</linearGradient>
<linearGradient id="paint8_linear_523_189" x1="67.766" y1="146.335" x2="67.766" y2="128.149" gradientUnits="userSpaceOnUse">
<stop stop-color="white"/>
<stop offset="0.31" stop-color="#FBFBFB"/>
<stop offset="0.59" stop-color="#F0F0F0"/>
<stop offset="0.86" stop-color="#DEDEDE"/>
<stop offset="1" stop-color="#D1D1D1"/>
</linearGradient>
<linearGradient id="paint9_linear_523_189" x1="67.798" y1="188.354" x2="67.798" y2="194.597" gradientUnits="userSpaceOnUse">
<stop stop-color="white"/>
<stop offset="0.31" stop-color="#FBFBFB"/>
<stop offset="0.59" stop-color="#F0F0F0"/>
<stop offset="0.86" stop-color="#DEDEDE"/>
<stop offset="1" stop-color="#D1D1D1"/>
</linearGradient>
<linearGradient id="paint10_linear_523_189" x1="68.3546" y1="214.78" x2="68.3546" y2="198.14" gradientUnits="userSpaceOnUse">
<stop stop-color="white"/>
<stop offset="0.31" stop-color="#FBFBFB"/>
<stop offset="0.59" stop-color="#F0F0F0"/>
<stop offset="0.86" stop-color="#DEDEDE"/>
<stop offset="1" stop-color="#D1D1D1"/>
</linearGradient>
<linearGradient id="paint11_linear_523_189" x1="67.766" y1="210.335" x2="67.766" y2="192.149" gradientUnits="userSpaceOnUse">
<stop stop-color="white"/>
<stop offset="0.31" stop-color="#FBFBFB"/>
<stop offset="0.59" stop-color="#F0F0F0"/>
<stop offset="0.86" stop-color="#DEDEDE"/>
<stop offset="1" stop-color="#D1D1D1"/>
</linearGradient>
<linearGradient id="paint12_linear_523_189" x1="201.798" y1="60.3535" x2="201.798" y2="66.5971" gradientUnits="userSpaceOnUse">
<stop stop-color="white"/>
<stop offset="0.31" stop-color="#FBFBFB"/>
<stop offset="0.59" stop-color="#F0F0F0"/>
<stop offset="0.86" stop-color="#DEDEDE"/>
<stop offset="1" stop-color="#D1D1D1"/>
</linearGradient>
<linearGradient id="paint13_linear_523_189" x1="202.355" y1="86.7805" x2="202.355" y2="70.1405" gradientUnits="userSpaceOnUse">
<stop stop-color="white"/>
<stop offset="0.31" stop-color="#FBFBFB"/>
<stop offset="0.59" stop-color="#F0F0F0"/>
<stop offset="0.86" stop-color="#DEDEDE"/>
<stop offset="1" stop-color="#D1D1D1"/>
</linearGradient>
<linearGradient id="paint14_linear_523_189" x1="201.766" y1="82.3348" x2="201.766" y2="64.1494" gradientUnits="userSpaceOnUse">
<stop stop-color="white"/>
<stop offset="0.31" stop-color="#FBFBFB"/>
<stop offset="0.59" stop-color="#F0F0F0"/>
<stop offset="0.86" stop-color="#DEDEDE"/>
<stop offset="1" stop-color="#D1D1D1"/>
</linearGradient>
<linearGradient id="paint15_linear_523_189" x1="201.798" y1="124.354" x2="201.798" y2="130.597" gradientUnits="userSpaceOnUse">
<stop stop-color="white"/>
<stop offset="0.31" stop-color="#FBFBFB"/>
<stop offset="0.59" stop-color="#F0F0F0"/>
<stop offset="0.86" stop-color="#DEDEDE"/>
<stop offset="1" stop-color="#D1D1D1"/>
</linearGradient>
<linearGradient id="paint16_linear_523_189" x1="202.355" y1="150.78" x2="202.355" y2="134.14" gradientUnits="userSpaceOnUse">
<stop stop-color="white"/>
<stop offset="0.31" stop-color="#FBFBFB"/>
<stop offset="0.59" stop-color="#F0F0F0"/>
<stop offset="0.86" stop-color="#DEDEDE"/>
<stop offset="1" stop-color="#D1D1D1"/>
</linearGradient>
<linearGradient id="paint17_linear_523_189" x1="201.766" y1="146.335" x2="201.766" y2="128.149" gradientUnits="userSpaceOnUse">
<stop stop-color="white"/>
<stop offset="0.31" stop-color="#FBFBFB"/>
<stop offset="0.59" stop-color="#F0F0F0"/>
<stop offset="0.86" stop-color="#DEDEDE"/>
<stop offset="1" stop-color="#D1D1D1"/>
</linearGradient>
<linearGradient id="paint18_linear_523_189" x1="201.798" y1="188.354" x2="201.798" y2="194.597" gradientUnits="userSpaceOnUse">
<stop stop-color="white"/>
<stop offset="0.31" stop-color="#FBFBFB"/>
<stop offset="0.59" stop-color="#F0F0F0"/>
<stop offset="0.86" stop-color="#DEDEDE"/>
<stop offset="1" stop-color="#D1D1D1"/>
</linearGradient>
<linearGradient id="paint19_linear_523_189" x1="202.355" y1="214.78" x2="202.355" y2="198.14" gradientUnits="userSpaceOnUse">
<stop stop-color="white"/>
<stop offset="0.31" stop-color="#FBFBFB"/>
<stop offset="0.59" stop-color="#F0F0F0"/>
<stop offset="0.86" stop-color="#DEDEDE"/>
<stop offset="1" stop-color="#D1D1D1"/>
</linearGradient>
<linearGradient id="paint20_linear_523_189" x1="201.766" y1="210.335" x2="201.766" y2="192.149" gradientUnits="userSpaceOnUse">
<stop stop-color="white"/>
<stop offset="0.31" stop-color="#FBFBFB"/>
<stop offset="0.59" stop-color="#F0F0F0"/>
<stop offset="0.86" stop-color="#DEDEDE"/>
<stop offset="1" stop-color="#D1D1D1"/>
</linearGradient>
</defs>
</svg>
