<svg width="294" height="317" viewBox="0 0 294 317" fill="none" xmlns="http://www.w3.org/2000/svg">
<path d="M14.0638 304.5H280.977L294 316.5H0L14.0638 304.5Z" fill="#B9B7B7"/>
<path d="M125.262 297.19C125.294 296.85 125.427 296.554 125.662 296.303C125.903 296.048 126.219 295.851 126.611 295.71C127.008 295.57 127.458 295.5 127.96 295.5C128.446 295.5 128.87 295.562 129.23 295.685C129.596 295.808 129.881 295.982 130.085 296.208C130.289 296.433 130.391 296.694 130.391 296.992C130.391 297.222 130.323 297.436 130.187 297.636C130.056 297.832 129.834 298.033 129.52 298.242C129.212 298.45 128.791 298.688 128.258 298.956L126.117 300.04L126.023 299.855H130.587V300.365H125.286V299.906L127.772 298.631C128.232 298.393 128.598 298.187 128.87 298.012C129.147 297.834 129.345 297.666 129.466 297.509C129.586 297.351 129.646 297.185 129.646 297.011C129.646 296.811 129.578 296.637 129.442 296.488C129.311 296.335 129.118 296.216 128.862 296.131C128.611 296.046 128.305 296.004 127.944 296.004C127.526 296.004 127.176 296.057 126.893 296.163C126.616 296.265 126.405 296.405 126.258 296.584C126.117 296.762 126.033 296.964 126.007 297.19H125.262Z" fill="#303030"/>
<path d="M131.909 295.583H136.05V296.08H132.176L132.482 295.895L132.152 298.057L131.901 298.063C132.032 297.91 132.205 297.77 132.419 297.642C132.638 297.511 132.895 297.404 133.187 297.324C133.48 297.243 133.802 297.202 134.152 297.202C134.67 297.202 135.103 297.275 135.454 297.419C135.804 297.564 136.068 297.757 136.246 297.999C136.429 298.242 136.52 298.514 136.52 298.816C136.52 299.134 136.413 299.417 136.199 299.664C135.984 299.906 135.684 300.097 135.297 300.238C134.91 300.378 134.455 300.448 133.932 300.448C133.399 300.448 132.939 300.384 132.552 300.257C132.165 300.125 131.857 299.948 131.627 299.727C131.402 299.506 131.258 299.258 131.196 298.981H131.941C132.024 299.275 132.236 299.509 132.576 299.683C132.921 299.857 133.373 299.944 133.932 299.944C134.304 299.944 134.625 299.897 134.897 299.804C135.174 299.71 135.388 299.581 135.54 299.415C135.697 299.245 135.775 299.045 135.775 298.816C135.775 298.59 135.707 298.395 135.571 298.229C135.435 298.059 135.239 297.927 134.983 297.834C134.732 297.74 134.424 297.693 134.058 297.693C133.739 297.693 133.451 297.73 133.195 297.802C132.939 297.87 132.717 297.957 132.529 298.063C132.34 298.17 132.186 298.282 132.066 298.401H131.486L131.909 295.583Z" fill="#303030"/>
<path d="M140.291 300.448C139.664 300.448 139.123 300.346 138.668 300.142C138.218 299.934 137.873 299.645 137.633 299.275C137.392 298.905 137.272 298.471 137.272 297.974C137.272 297.477 137.392 297.043 137.633 296.673C137.873 296.303 138.218 296.016 138.668 295.812C139.123 295.604 139.664 295.5 140.291 295.5C140.918 295.5 141.457 295.604 141.906 295.812C142.356 296.016 142.701 296.303 142.942 296.673C143.182 297.043 143.302 297.477 143.302 297.974C143.302 298.467 143.182 298.901 142.942 299.275C142.701 299.645 142.356 299.934 141.906 300.142C141.457 300.346 140.918 300.448 140.291 300.448ZM140.291 299.938C141.002 299.938 141.556 299.766 141.954 299.421C142.351 299.077 142.55 298.595 142.55 297.974C142.55 297.353 142.351 296.871 141.954 296.527C141.556 296.178 141.002 296.004 140.291 296.004C139.575 296.004 139.018 296.178 138.621 296.527C138.223 296.871 138.025 297.353 138.025 297.974C138.025 298.595 138.223 299.077 138.621 299.421C139.018 299.766 139.575 299.938 140.291 299.938Z" fill="#303030"/>
<path d="M144.11 296.775H144.831L145.082 297.993V300.365H144.361V297.91L144.11 296.775ZM146.768 296.692C147.15 296.692 147.474 296.76 147.741 296.896C148.007 297.028 148.211 297.222 148.352 297.477C148.493 297.727 148.564 298.031 148.564 298.388V300.365H147.843V298.49C147.843 298.061 147.733 297.738 147.513 297.521C147.294 297.3 146.975 297.19 146.556 297.19C146.258 297.19 145.997 297.249 145.772 297.368C145.553 297.487 145.383 297.653 145.263 297.866C145.142 298.074 145.082 298.318 145.082 298.599L144.792 298.433C144.829 298.076 144.933 297.768 145.106 297.509C145.283 297.249 145.513 297.049 145.796 296.909C146.083 296.765 146.407 296.692 146.768 296.692ZM150.242 296.692C150.624 296.692 150.948 296.76 151.215 296.896C151.486 297.028 151.693 297.222 151.834 297.477C151.975 297.727 152.046 298.031 152.046 298.388V300.365H151.324V298.49C151.324 298.061 151.215 297.738 150.995 297.521C150.775 297.3 150.457 297.19 150.038 297.19C149.74 297.19 149.479 297.249 149.254 297.368C149.035 297.487 148.865 297.653 148.744 297.866C148.624 298.074 148.564 298.318 148.564 298.599L148.274 298.433C148.31 298.076 148.415 297.768 148.588 297.509C148.765 297.249 148.995 297.049 149.278 296.909C149.565 296.765 149.887 296.692 150.242 296.692Z" fill="#303030"/>
<path d="M152.947 296.775H153.669L153.92 297.993V300.365H153.198V297.91L152.947 296.775ZM155.606 296.692C155.987 296.692 156.312 296.76 156.578 296.896C156.845 297.028 157.049 297.222 157.19 297.477C157.331 297.727 157.402 298.031 157.402 298.388V300.365H156.68V298.49C156.68 298.061 156.57 297.738 156.351 297.521C156.131 297.3 155.812 297.19 155.394 297.19C155.096 297.19 154.835 297.249 154.61 297.368C154.39 297.487 154.22 297.653 154.1 297.866C153.98 298.074 153.92 298.318 153.92 298.599L153.63 298.433C153.666 298.076 153.771 297.768 153.943 297.509C154.121 297.249 154.351 297.049 154.633 296.909C154.921 296.765 155.245 296.692 155.606 296.692ZM159.08 296.692C159.461 296.692 159.786 296.76 160.052 296.896C160.324 297.028 160.531 297.222 160.672 297.477C160.813 297.727 160.884 298.031 160.884 298.388V300.365H160.162V298.49C160.162 298.061 160.052 297.738 159.833 297.521C159.613 297.3 159.294 297.19 158.876 297.19C158.578 297.19 158.317 297.249 158.092 297.368C157.872 297.487 157.702 297.653 157.582 297.866C157.462 298.074 157.402 298.318 157.402 298.599L157.111 298.433C157.148 298.076 157.253 297.768 157.425 297.509C157.603 297.249 157.833 297.049 158.115 296.909C158.403 296.765 158.724 296.692 159.08 296.692Z" fill="#303030"/>
<path d="M168.265 299.491V298.848L168.297 298.752V298.159L168.265 298.031V296.775H168.987V299.409C168.987 299.876 168.869 300.265 168.634 300.575C168.404 300.886 168.09 301.117 167.693 301.27C167.296 301.423 166.843 301.5 166.336 301.5C165.955 301.5 165.599 301.455 165.27 301.366C164.946 301.281 164.635 301.149 164.337 300.971V300.454C164.65 300.663 164.972 300.807 165.301 300.888C165.636 300.969 165.968 301.009 166.297 301.009C166.935 301.009 167.421 300.873 167.756 300.601C168.095 300.333 168.265 299.963 168.265 299.491ZM166.023 300.135C165.625 300.135 165.265 300.063 164.94 299.919C164.621 299.774 164.368 299.574 164.18 299.319C163.991 299.06 163.897 298.758 163.897 298.414C163.897 298.065 163.991 297.764 164.18 297.509C164.368 297.249 164.621 297.049 164.94 296.909C165.265 296.765 165.625 296.692 166.023 296.692C166.321 296.692 166.598 296.731 166.854 296.807C167.11 296.879 167.343 296.977 167.552 297.1C167.761 297.224 167.939 297.362 168.085 297.515C168.231 297.668 168.344 297.823 168.422 297.98C168.506 298.133 168.548 298.278 168.548 298.414C168.548 298.588 168.485 298.775 168.36 298.975C168.239 299.171 168.064 299.358 167.834 299.536C167.609 299.71 167.343 299.855 167.034 299.97C166.731 300.08 166.394 300.135 166.023 300.135ZM166.219 299.664C166.626 299.664 167.003 299.566 167.348 299.37C167.693 299.175 168.009 298.856 168.297 298.414C168.014 297.963 167.698 297.642 167.348 297.451C167.003 297.256 166.626 297.158 166.219 297.158C165.879 297.158 165.589 297.213 165.348 297.324C165.113 297.43 164.933 297.577 164.807 297.764C164.687 297.951 164.627 298.167 164.627 298.414C164.627 298.652 164.687 298.867 164.807 299.058C164.933 299.245 165.113 299.394 165.348 299.504C165.589 299.611 165.879 299.664 166.219 299.664Z" fill="#303030"/>
<path d="M174.325 300.365L174.168 299.007L174.364 298.567L174.168 298.133L174.325 296.775H175.062L174.858 298.567L175.062 300.365H174.325ZM174.607 298.567C174.492 298.941 174.315 299.27 174.074 299.555C173.839 299.836 173.551 300.055 173.212 300.212C172.877 300.369 172.506 300.448 172.098 300.448C171.664 300.448 171.28 300.369 170.945 300.212C170.611 300.05 170.347 299.829 170.153 299.549C169.965 299.264 169.871 298.937 169.871 298.567C169.871 298.193 169.965 297.866 170.153 297.585C170.347 297.304 170.611 297.086 170.945 296.928C171.28 296.771 171.664 296.692 172.098 296.692C172.506 296.692 172.877 296.771 173.212 296.928C173.551 297.086 173.842 297.304 174.082 297.585C174.322 297.866 174.498 298.193 174.607 298.567ZM170.608 298.567C170.608 298.839 170.676 299.079 170.812 299.287C170.953 299.496 171.144 299.659 171.384 299.778C171.63 299.893 171.907 299.951 172.216 299.951C172.529 299.951 172.817 299.893 173.078 299.778C173.345 299.659 173.58 299.496 173.784 299.287C173.993 299.079 174.163 298.839 174.294 298.567C174.163 298.295 173.993 298.055 173.784 297.846C173.58 297.638 173.345 297.477 173.078 297.362C172.817 297.243 172.529 297.183 172.216 297.183C171.907 297.183 171.63 297.243 171.384 297.362C171.144 297.477 170.953 297.638 170.812 297.846C170.676 298.055 170.608 298.295 170.608 298.567Z" fill="#303030"/>
<path d="M176.141 296.775H176.863V298.133L176.824 298.248V298.828L176.863 299.013V301.417H176.141V296.775ZM176.526 298.567C176.641 298.193 176.816 297.866 177.051 297.585C177.292 297.304 177.579 297.086 177.914 296.928C178.253 296.771 178.627 296.692 179.035 296.692C179.469 296.692 179.853 296.771 180.188 296.928C180.522 297.086 180.784 297.304 180.972 297.585C181.165 297.866 181.262 298.193 181.262 298.567C181.262 298.937 181.165 299.264 180.972 299.549C180.784 299.829 180.522 300.05 180.188 300.212C179.853 300.369 179.469 300.448 179.035 300.448C178.627 300.448 178.253 300.369 177.914 300.212C177.579 300.055 177.292 299.836 177.051 299.555C176.816 299.27 176.641 298.941 176.526 298.567ZM180.525 298.567C180.525 298.295 180.454 298.055 180.313 297.846C180.177 297.638 179.987 297.477 179.741 297.362C179.5 297.243 179.226 297.183 178.917 297.183C178.604 297.183 178.314 297.243 178.047 297.362C177.786 297.477 177.553 297.638 177.349 297.846C177.145 298.055 176.975 298.295 176.839 298.567C176.975 298.839 177.145 299.079 177.349 299.287C177.553 299.496 177.786 299.659 178.047 299.778C178.314 299.893 178.604 299.951 178.917 299.951C179.226 299.951 179.5 299.893 179.741 299.778C179.987 299.659 180.177 299.496 180.313 299.287C180.454 299.079 180.525 298.839 180.525 298.567Z" fill="#303030"/>
<path d="M114.177 295.323C114.079 295.226 113.921 295.226 113.823 295.323L112.232 296.914C112.135 297.012 112.135 297.17 112.232 297.268C112.33 297.365 112.488 297.365 112.586 297.268L114 295.854L115.414 297.268C115.512 297.365 115.67 297.365 115.768 297.268C115.865 297.17 115.865 297.012 115.768 296.914L114.177 295.323ZM113.823 301.958C113.921 302.056 114.079 302.056 114.177 301.958L115.768 300.367C115.865 300.27 115.865 300.111 115.768 300.014C115.67 299.916 115.512 299.916 115.414 300.014L114 301.428L112.586 300.014C112.488 299.916 112.33 299.916 112.232 300.014C112.135 300.111 112.135 300.27 112.232 300.367L113.823 301.958ZM113.75 295.5L113.75 301.781L114.25 301.781L114.25 295.5L113.75 295.5Z" fill="#303030"/>
<path d="M148 0.5H11V293.5H148V0.5Z" fill="url(#paint0_linear_218_1921)"/>
<path d="M282 0.5H145V293.5H282V0.5Z" fill="url(#paint1_linear_218_1921)"/>
<path d="M145 3.5H14V289.5H145V3.5Z" fill="#C8C6C6"/>
<path d="M279 3.5H148V289.5H279V3.5Z" fill="#C8C6C6"/>
<path d="M127.036 52.5H31.6738V278.5H127.036V52.5Z" fill="#DDDDDD"/>
<path d="M261.036 52.5H165.674V278.5H261.036V52.5Z" fill="#DDDDDD"/>
<path d="M126.195 61.5H32.5142L14.0142 49.5H144.695L126.195 61.5Z" fill="#B9B7B7"/>
<path d="M260.195 61.5H166.514L148.014 49.5H278.695L260.195 61.5Z" fill="#B9B7B7"/>
<rect x="29" y="9.5" width="104" height="31" fill="white"/>
<path d="M279 0.5H14V3.5H279V0.5Z" fill="#E0DDDD"/>
<path d="M250.775 9.40852H42.1733L14.401 3.33618H278.904L250.775 9.40852Z" fill="#C6C6C6"/>
<path style="mix-blend-mode:multiply" opacity="0.5" d="M278.233 3.5H14.401L28.0001 9.51062H265L278.233 3.5Z" fill="url(#paint2_linear_218_1921)"/>
<path style="mix-blend-mode:multiply" d="M254.725 9.5H42.3206V25.5H254.725V9.5Z" fill="url(#paint3_linear_218_1921)"/>
<path d="M13.9998 49.5L279 49.5L279 46.5L13.9998 46.5L13.9998 49.5Z" fill="white"/>
<path d="M42.1815 40.5L251.176 40.5L279 46.5L14 46.5L42.1815 40.5Z" fill="#C6C6C6"/>
<path style="mix-blend-mode:multiply" opacity="0.5" d="M16.0229 46.5L279 46.5L265 40.5L28 40L16.0229 46.5Z" fill="url(#paint4_linear_218_1921)"/>
<path style="mix-blend-mode:multiply" d="M43.347 40.5L256.116 40.5L256.116 24.5L43.347 24.5L43.347 40.5Z" fill="url(#paint5_linear_218_1921)"/>
<path d="M148 49.5L279 49.5L279 46.5L148 46.5L148 49.5Z" fill="white"/>
<path style="mix-blend-mode:multiply" d="M163 40.5L265 40.5L265 24.5L163 24.5L163 40.5Z" fill="url(#paint6_linear_218_1921)"/>
<path d="M144.695 100.5H14.0142V103.5H144.695V100.5Z" fill="white"/>
<path d="M130.567 109.409H27.7083L14.0142 103.336H144.437L130.567 109.409Z" fill="#C6C6C6"/>
<path style="mix-blend-mode:multiply" opacity="0.5" d="M144.106 103.5H14.0142L27.7083 109.511H129.979L144.106 103.5Z" fill="url(#paint7_linear_218_1921)"/>
<path style="mix-blend-mode:multiply" d="M130.567 109.5H28.1418V125.5H130.567V109.5Z" fill="url(#paint8_linear_218_1921)"/>
<path style="mix-blend-mode:multiply" d="M141.099 120.5H15.9847L12.8369 103.5H144.695L141.099 120.5Z" fill="url(#paint9_linear_218_1921)"/>
<path d="M144.695 164.5H14.0142V167.5H144.695V164.5Z" fill="white"/>
<path d="M130.567 173.409H27.7083L14.0142 167.336H144.437L130.567 173.409Z" fill="#C6C6C6"/>
<path style="mix-blend-mode:multiply" opacity="0.5" d="M144.106 167.5H14.0142L27.7083 173.511H129.979L144.106 167.5Z" fill="url(#paint10_linear_218_1921)"/>
<path style="mix-blend-mode:multiply" d="M130.567 173.5H28.1418V189.5H130.567V173.5Z" fill="url(#paint11_linear_218_1921)"/>
<path style="mix-blend-mode:multiply" d="M141.099 184.5H15.9847L12.8369 167.5H144.695L141.099 184.5Z" fill="url(#paint12_linear_218_1921)"/>
<path d="M144.695 228.5H14.0142V231.5H144.695V228.5Z" fill="white"/>
<path d="M130.567 237.409H27.7083L14.0142 231.336H144.437L130.567 237.409Z" fill="#C6C6C6"/>
<path style="mix-blend-mode:multiply" opacity="0.5" d="M144.106 231.5H14.0142L27.7083 237.511H129.979L144.106 231.5Z" fill="url(#paint13_linear_218_1921)"/>
<path style="mix-blend-mode:multiply" d="M130.567 237.5H28.1418V253.5H130.567V237.5Z" fill="url(#paint14_linear_218_1921)"/>
<path style="mix-blend-mode:multiply" d="M141.099 248.5H15.9847L12.8369 231.5H144.695L141.099 248.5Z" fill="url(#paint15_linear_218_1921)"/>
<path d="M278.695 100.5H148.014V103.5H278.695V100.5Z" fill="white"/>
<path d="M264.567 109.409H161.708L148.014 103.336H278.437L264.567 109.409Z" fill="#C6C6C6"/>
<path style="mix-blend-mode:multiply" opacity="0.5" d="M278.106 103.5H148.014L161.708 109.511H263.979L278.106 103.5Z" fill="url(#paint16_linear_218_1921)"/>
<path style="mix-blend-mode:multiply" d="M264.567 109.5H162.142V125.5H264.567V109.5Z" fill="url(#paint17_linear_218_1921)"/>
<path style="mix-blend-mode:multiply" d="M275.099 120.5H149.985L146.837 103.5H278.695L275.099 120.5Z" fill="url(#paint18_linear_218_1921)"/>
<path d="M278.695 164.5H148.014V167.5H278.695V164.5Z" fill="white"/>
<path d="M264.567 173.409H161.708L148.014 167.336H278.437L264.567 173.409Z" fill="#C6C6C6"/>
<path style="mix-blend-mode:multiply" opacity="0.5" d="M278.106 167.5H148.014L161.708 173.511H263.979L278.106 167.5Z" fill="url(#paint19_linear_218_1921)"/>
<path style="mix-blend-mode:multiply" d="M264.567 173.5H162.142V189.5H264.567V173.5Z" fill="url(#paint20_linear_218_1921)"/>
<path style="mix-blend-mode:multiply" d="M275.099 184.5H149.985L146.837 167.5H278.695L275.099 184.5Z" fill="url(#paint21_linear_218_1921)"/>
<path d="M278.695 228.5H148.014V231.5H278.695V228.5Z" fill="white"/>
<path d="M264.567 237.409H161.708L148.014 231.336H278.437L264.567 237.409Z" fill="#C6C6C6"/>
<path style="mix-blend-mode:multiply" opacity="0.5" d="M278.106 231.5H148.014L161.708 237.511H263.979L278.106 231.5Z" fill="url(#paint22_linear_218_1921)"/>
<path style="mix-blend-mode:multiply" d="M264.567 237.5H162.142V253.5H264.567V237.5Z" fill="url(#paint23_linear_218_1921)"/>
<path style="mix-blend-mode:multiply" d="M275.099 248.5H149.985L146.837 231.5H278.695L275.099 248.5Z" fill="url(#paint24_linear_218_1921)"/>
<rect x="28" y="9.5" width="237" height="31" fill="#FCFCFC"/>
<path d="M28.3798 40.5832C28.4202 40.4609 28.3399 40.3245 28.2005 40.2786L25.929 39.5294C25.7896 39.4834 25.6439 39.5453 25.6036 39.6676C25.5632 39.7899 25.6435 39.9263 25.7829 39.9723L27.802 40.6382L27.2177 42.4098C27.1774 42.5321 27.2577 42.6685 27.3971 42.7145C27.5365 42.7604 27.6822 42.6985 27.7225 42.5762L28.3798 40.5832ZM13.7474 46.4168C13.7071 46.5391 13.7874 46.6755 13.9267 46.7214L16.1982 47.4706C16.3376 47.5166 16.4833 47.4547 16.5237 47.3324C16.564 47.2101 16.4837 47.0737 16.3443 47.0277L14.3252 46.3618L14.9095 44.5902C14.9498 44.4679 14.8695 44.3315 14.7301 44.2855C14.5907 44.2396 14.445 44.3015 14.4047 44.4238L13.7474 46.4168ZM28.0006 40.2846L13.873 46.2846L14.1266 46.7154L28.2543 40.7154L28.0006 40.2846Z" fill="#303030"/>
<path d="M278.165 46.7344C278.295 46.6864 278.361 46.5425 278.313 46.413L277.53 44.3035C277.482 44.1741 277.338 44.1081 277.209 44.1561C277.079 44.2041 277.013 44.348 277.061 44.4775L277.757 46.3526L275.882 47.0482C275.752 47.0963 275.686 47.2401 275.734 47.3696C275.782 47.499 275.926 47.565 276.056 47.517L278.165 46.7344ZM264.913 40.2656C264.784 40.3136 264.718 40.4575 264.766 40.587L265.548 42.6965C265.596 42.8259 265.74 42.8919 265.87 42.8439C265.999 42.7959 266.065 42.652 266.017 42.5225L265.322 40.6474L267.197 39.9518C267.326 39.9037 267.392 39.7599 267.344 39.6304C267.296 39.501 267.152 39.435 267.023 39.483L264.913 40.2656ZM278.182 46.2728L265.104 40.2728L264.896 40.7272L277.974 46.7272L278.182 46.2728Z" fill="#303030"/>
<path d="M70.8063 25.5696H72.2094V35.2373H70.8063V25.5696ZM66 24.9525H77.0157V26.0907H66V24.9525Z" fill="black"/>
<path d="M79.9882 35.4156C79.0031 35.4156 78.1324 35.2465 77.3761 34.9082C76.6298 34.57 76.0477 34.0946 75.6297 33.4821C75.2118 32.8696 75.0028 32.1656 75.0028 31.3703C75.0028 30.5658 75.2118 29.8618 75.6297 29.2584C76.0477 28.6551 76.6298 28.1842 77.3761 27.846C78.1324 27.5077 79.0031 27.3386 79.9882 27.3386C80.9833 27.3386 81.854 27.5077 82.6003 27.846C83.3466 28.1842 83.9288 28.6551 84.3467 29.2584C84.7746 29.8618 84.9885 30.5658 84.9885 31.3703C84.9885 32.1656 84.7746 32.8696 84.3467 33.4821C83.9288 34.0946 83.3466 34.57 82.6003 34.9082C81.854 35.2465 80.9833 35.4156 79.9882 35.4156ZM79.9882 34.3597C80.7246 34.3597 81.3614 34.2409 81.8988 34.0032C82.4361 33.7563 82.8491 33.4089 83.1377 32.961C83.4362 32.513 83.5855 31.9828 83.5855 31.3703C83.5855 30.7669 83.4362 30.2412 83.1377 29.7932C82.8491 29.3453 82.4361 28.9979 81.8988 28.7511C81.3614 28.5042 80.7246 28.3808 79.9882 28.3808C79.2618 28.3808 78.6249 28.5042 78.0776 28.7511C77.5403 28.9979 77.1273 29.3453 76.8388 29.7932C76.5502 30.2412 76.4059 30.7669 76.4059 31.3703C76.4059 31.9828 76.5502 32.513 76.8388 32.961C77.1273 33.4089 77.5403 33.7563 78.0776 34.0032C78.6249 34.2409 79.2618 34.3597 79.9882 34.3597Z" fill="black"/>
<path d="M86.7051 27.5169H88.0783V30.4378L88.0037 30.6846V31.9325L88.0783 32.3302V37.5H86.7051V27.5169ZM87.4365 31.3703C87.6554 30.5658 87.9887 29.8618 88.4365 29.2584C88.8943 28.6551 89.4416 28.1842 90.0784 27.846C90.7252 27.5077 91.4367 27.3386 92.2129 27.3386C93.0388 27.3386 93.7702 27.5077 94.4071 27.846C95.0439 28.1842 95.5415 28.6551 95.8997 29.2584C96.2679 29.8618 96.452 30.5658 96.452 31.3703C96.452 32.1656 96.2679 32.8696 95.8997 33.4821C95.5415 34.0854 95.0439 34.5608 94.4071 34.9082C93.7702 35.2465 93.0388 35.4156 92.2129 35.4156C91.4367 35.4156 90.7252 35.2465 90.0784 34.9082C89.4416 34.57 88.8943 34.0992 88.4365 33.4958C87.9887 32.8833 87.6554 32.1748 87.4365 31.3703ZM95.0489 31.3703C95.0489 30.7852 94.9146 30.2686 94.6459 29.8207C94.3872 29.3727 94.024 29.0253 93.5563 28.7785C93.0985 28.5225 92.5761 28.3945 91.989 28.3945C91.392 28.3945 90.8397 28.5225 90.3322 28.7785C89.8346 29.0253 89.3918 29.3727 89.0037 29.8207C88.6157 30.2686 88.2922 30.7852 88.0335 31.3703C88.2922 31.9553 88.6157 32.4719 89.0037 32.9198C89.3918 33.3678 89.8346 33.7198 90.3322 33.9757C90.8397 34.2226 91.392 34.346 91.989 34.346C92.5761 34.346 93.0985 34.2226 93.5563 33.9757C94.024 33.7198 94.3872 33.3678 94.6459 32.9198C94.9146 32.4719 95.0489 31.9553 95.0489 31.3703Z" fill="black"/>
<path d="M110.511 32.9747C110.511 33.4684 110.347 33.898 110.019 34.2637C109.7 34.6294 109.227 34.9128 108.601 35.1139C107.984 35.3151 107.232 35.4156 106.347 35.4156C105.441 35.4156 104.64 35.3013 103.944 35.0728C103.257 34.8351 102.72 34.506 102.331 34.0854C101.943 33.6649 101.734 33.1758 101.705 32.6181H103.108C103.167 32.9747 103.341 33.2901 103.63 33.5643C103.919 33.8295 104.297 34.0352 104.764 34.1814C105.232 34.3277 105.765 34.4008 106.362 34.4008C107.227 34.4008 107.904 34.282 108.392 34.0443C108.889 33.7975 109.138 33.4638 109.138 33.0432C109.138 32.7141 108.979 32.4719 108.66 32.3165C108.342 32.1519 107.75 32.0285 106.884 31.9462L105.257 31.7954C104.451 31.7222 103.804 31.5897 103.317 31.3977C102.839 31.1966 102.496 30.9497 102.287 30.6572C102.078 30.3555 101.973 30.0218 101.973 29.6561C101.973 29.1533 102.137 28.7328 102.466 28.3945C102.804 28.0471 103.272 27.7866 103.869 27.6129C104.466 27.43 105.158 27.3386 105.944 27.3386C106.78 27.3386 107.521 27.4483 108.168 27.6677C108.824 27.8871 109.347 28.1934 109.735 28.5865C110.123 28.9796 110.337 29.4321 110.377 29.9441H108.989C108.939 29.6515 108.79 29.3864 108.541 29.1487C108.292 28.9019 107.944 28.7053 107.496 28.5591C107.058 28.4128 106.516 28.3397 105.869 28.3397C105.073 28.3397 104.451 28.4448 104.003 28.6551C103.565 28.8653 103.346 29.1716 103.346 29.5738C103.346 29.8664 103.491 30.0995 103.779 30.2732C104.068 30.4469 104.58 30.5703 105.317 30.6435L107.168 30.8217C108.013 30.8949 108.68 31.0229 109.168 31.2057C109.655 31.3885 109.999 31.6262 110.198 31.9188C110.407 32.2113 110.511 32.5633 110.511 32.9747Z" fill="black"/>
<path d="M112.229 24.6783H113.602V35.2373H112.229V24.6783ZM117.065 27.3386C117.851 27.3386 118.518 27.4849 119.065 27.7774C119.612 28.0608 120.03 28.4768 120.319 29.0253C120.607 29.5647 120.752 30.2184 120.752 30.9863V35.2373H119.378V31.2057C119.378 30.2823 119.149 29.5876 118.692 29.1213C118.234 28.6459 117.557 28.4082 116.662 28.4082C116.055 28.4082 115.517 28.5362 115.05 28.7922C114.592 29.0482 114.234 29.4047 113.975 29.8618C113.726 30.3098 113.602 30.8354 113.602 31.4388L113.05 31.0823C113.119 30.3143 113.333 29.6515 113.691 29.0939C114.05 28.5362 114.517 28.1065 115.094 27.8049C115.682 27.494 116.338 27.3386 117.065 27.3386Z" fill="black"/>
<path d="M127.303 35.4156C126.337 35.4156 125.482 35.2465 124.735 34.9082C123.999 34.5608 123.417 34.0854 122.989 33.4821C122.571 32.8696 122.362 32.1656 122.362 31.3703C122.362 30.5658 122.561 29.8618 122.959 29.2584C123.357 28.6551 123.909 28.1842 124.616 27.846C125.322 27.5077 126.133 27.3386 127.049 27.3386C127.954 27.3386 128.745 27.5214 129.422 27.8871C130.099 28.2528 130.621 28.7693 130.989 29.4367C131.368 30.0949 131.557 30.8629 131.557 31.7405H123.407V30.7395H130.974L130.168 31.192C130.139 30.616 129.989 30.1178 129.721 29.6973C129.452 29.2767 129.089 28.9522 128.631 28.7236C128.173 28.4951 127.641 28.3808 127.034 28.3808C126.377 28.3808 125.805 28.5042 125.317 28.7511C124.83 28.9887 124.447 29.327 124.168 29.7658C123.899 30.2046 123.765 30.7212 123.765 31.3154C123.765 31.9371 123.919 32.4764 124.228 32.9335C124.536 33.3906 124.969 33.7426 125.526 33.9895C126.084 34.2363 126.74 34.3597 127.497 34.3597C128.183 34.3597 128.855 34.2546 129.512 34.0443C130.178 33.834 130.775 33.5461 131.303 33.1804V34.1677C130.785 34.5517 130.168 34.8579 129.452 35.0865C128.735 35.3059 128.019 35.4156 127.303 35.4156Z" fill="black"/>
<path d="M133.262 24.6783H134.636V35.2373H133.262V24.6783Z" fill="black"/>
<path d="M141.52 25.5285C140.764 25.5285 140.187 25.6885 139.788 26.0084C139.39 26.3193 139.191 26.8404 139.191 27.5717V35.2373H137.818V27.75C137.818 27.1283 137.938 26.5752 138.176 26.0907C138.415 25.597 138.793 25.2085 139.311 24.9251C139.838 24.6417 140.525 24.5 141.371 24.5C141.789 24.5 142.157 24.5366 142.475 24.6097C142.804 24.6737 143.112 24.756 143.401 24.8565V25.9124C143.112 25.7753 142.814 25.6793 142.505 25.6245C142.197 25.5605 141.868 25.5285 141.52 25.5285ZM135.967 29.0116V27.9831H143.251V29.0116H135.967Z" fill="black"/>
<path d="M149.878 24.9525H151.057C150.381 25.9216 149.883 26.8815 149.565 27.8323C149.246 28.7831 149.087 29.7567 149.087 30.7532C149.087 31.7405 149.246 32.7096 149.565 33.6603C149.883 34.6111 150.381 35.5756 151.057 36.5538H149.878C149.132 35.603 148.574 34.6523 148.206 33.7015C147.848 32.7507 147.669 31.7679 147.669 30.7532C147.669 29.7384 147.848 28.7556 148.206 27.8049C148.574 26.8541 149.132 25.9033 149.878 24.9525Z" fill="black"/>
<path d="M159.889 24.9525V35.2373H158.486V25.4599H159.157L152.455 32.3439L152.44 31.8639H162.068V32.9335H151.246V31.9873L158.112 24.9525H159.889Z" fill="black"/>
<path d="M162.959 28.4082C163.019 27.6769 163.273 27.0415 163.721 26.5021C164.178 25.9536 164.78 25.5285 165.527 25.2268C166.283 24.9251 167.139 24.7743 168.094 24.7743C169.019 24.7743 169.825 24.9068 170.512 25.1719C171.209 25.4371 171.751 25.8119 172.139 26.2964C172.527 26.7809 172.721 27.3432 172.721 27.9831C172.721 28.4768 172.592 28.9385 172.333 29.3681C172.084 29.7887 171.661 30.2229 171.064 30.6709C170.477 31.1188 169.676 31.6308 168.661 32.2068L164.586 34.538L164.407 34.1403H173.094V35.2373H163.004V34.25L167.736 31.5074C168.611 30.9954 169.308 30.552 169.825 30.1772C170.353 29.7932 170.731 29.4321 170.96 29.0939C171.189 28.7556 171.303 28.3991 171.303 28.0243C171.303 27.5946 171.174 27.2198 170.915 26.8998C170.666 26.5707 170.298 26.3147 169.811 26.1319C169.333 25.949 168.751 25.8576 168.064 25.8576C167.268 25.8576 166.601 25.9719 166.064 26.2004C165.537 26.4198 165.134 26.7215 164.855 27.1055C164.586 27.4895 164.427 27.9237 164.377 28.4082H162.959Z" fill="black"/>
<path d="M180.268 35.4156C179.074 35.4156 178.044 35.1962 177.178 34.7574C176.322 34.3094 175.666 33.6878 175.208 32.8924C174.75 32.097 174.521 31.1646 174.521 30.0949C174.521 29.0253 174.75 28.0928 175.208 27.2975C175.666 26.5021 176.322 25.885 177.178 25.4462C178.044 24.9982 179.074 24.7743 180.268 24.7743C181.462 24.7743 182.487 24.9982 183.343 25.4462C184.199 25.885 184.855 26.5021 185.313 27.2975C185.771 28.0928 186 29.0253 186 30.0949C186 31.1554 185.771 32.0879 185.313 32.8924C184.855 33.6878 184.199 34.3094 183.343 34.7574C182.487 35.1962 181.462 35.4156 180.268 35.4156ZM180.268 34.3186C181.621 34.3186 182.676 33.9483 183.432 33.2078C184.189 32.4673 184.567 31.4297 184.567 30.0949C184.567 28.7602 184.189 27.7226 183.432 26.9821C182.676 26.2324 181.621 25.8576 180.268 25.8576C178.905 25.8576 177.845 26.2324 177.089 26.9821C176.332 27.7226 175.954 28.7602 175.954 30.0949C175.954 31.4297 176.332 32.4673 177.089 33.2078C177.845 33.9483 178.905 34.3186 180.268 34.3186Z" fill="black"/>
<path d="M191.662 27.5169H193.035L193.512 30.1361V35.2373H192.139V29.9578L191.662 27.5169ZM196.722 27.3386C197.448 27.3386 198.065 27.4849 198.572 27.7774C199.08 28.0608 199.468 28.4768 199.737 29.0253C200.005 29.5647 200.14 30.2184 200.14 30.9863V35.2373H198.766V31.2057C198.766 30.2823 198.558 29.5876 198.14 29.1213C197.722 28.6459 197.115 28.4082 196.319 28.4082C195.751 28.4082 195.254 28.5362 194.826 28.7922C194.408 29.0482 194.085 29.4047 193.856 29.8618C193.627 30.3098 193.512 30.8354 193.512 31.4388L192.96 31.0823C193.03 30.3143 193.229 29.6515 193.557 29.0939C193.896 28.5362 194.333 28.1065 194.871 27.8049C195.418 27.494 196.035 27.3386 196.722 27.3386ZM203.334 27.3386C204.06 27.3386 204.677 27.4849 205.185 27.7774C205.702 28.0608 206.095 28.4768 206.364 29.0253C206.633 29.5647 206.767 30.2184 206.767 30.9863V35.2373H205.394V31.2057C205.394 30.2823 205.185 29.5876 204.767 29.1213C204.349 28.6459 203.742 28.4082 202.946 28.4082C202.379 28.4082 201.881 28.5362 201.453 28.7922C201.035 29.0482 200.712 29.4047 200.483 29.8618C200.254 30.3098 200.14 30.8354 200.14 31.4388L199.587 31.0823C199.657 30.3143 199.856 29.6515 200.184 29.0939C200.523 28.5362 200.961 28.1065 201.498 27.8049C202.045 27.494 202.657 27.3386 203.334 27.3386Z" fill="black"/>
<path d="M208.483 27.5169H209.856L210.334 30.1361V35.2373H208.96V29.9578L208.483 27.5169ZM213.543 27.3386C214.269 27.3386 214.886 27.4849 215.394 27.7774C215.901 28.0608 216.289 28.4768 216.558 29.0253C216.827 29.5647 216.961 30.2184 216.961 30.9863V35.2373H215.588V31.2057C215.588 30.2823 215.379 29.5876 214.961 29.1213C214.543 28.6459 213.936 28.4082 213.14 28.4082C212.573 28.4082 212.075 28.5362 211.647 28.7922C211.229 29.0482 210.906 29.4047 210.677 29.8618C210.448 30.3098 210.334 30.8354 210.334 31.4388L209.781 31.0823C209.851 30.3143 210.05 29.6515 210.378 29.0939C210.717 28.5362 211.155 28.1065 211.692 27.8049C212.239 27.494 212.856 27.3386 213.543 27.3386ZM220.155 27.3386C220.882 27.3386 221.499 27.4849 222.006 27.7774C222.524 28.0608 222.917 28.4768 223.185 29.0253C223.454 29.5647 223.588 30.2184 223.588 30.9863V35.2373H222.215V31.2057C222.215 30.2823 222.006 29.5876 221.588 29.1213C221.17 28.6459 220.563 28.4082 219.767 28.4082C219.2 28.4082 218.702 28.5362 218.275 28.7922C217.857 29.0482 217.533 29.4047 217.304 29.8618C217.075 30.3098 216.961 30.8354 216.961 31.4388L216.409 31.0823C216.478 30.3143 216.677 29.6515 217.006 29.0939C217.344 28.5362 217.782 28.1065 218.319 27.8049C218.867 27.494 219.479 27.3386 220.155 27.3386Z" fill="black"/>
<path d="M225.806 24.9525C226.542 25.9033 227.089 26.8541 227.448 27.8049C227.816 28.7556 228 29.7384 228 30.7532C228 31.7679 227.816 32.7507 227.448 33.7015C227.089 34.6523 226.542 35.603 225.806 36.5538H224.627C225.293 35.5756 225.786 34.6111 226.104 33.6603C226.423 32.7096 226.582 31.7405 226.582 30.7532C226.582 29.7567 226.423 28.7831 226.104 27.8323C225.786 26.8815 225.293 25.9216 224.627 24.9525H225.806Z" fill="black"/>
<defs>
<linearGradient id="paint0_linear_218_1921" x1="79.5" y1="0.5" x2="79.5" y2="293.5" gradientUnits="userSpaceOnUse">
<stop stop-color="#DEDEDE"/>
<stop offset="0.161458" stop-color="#DCD9D5"/>
<stop offset="0.723958" stop-color="#EDEBE7"/>
<stop offset="1" stop-color="#E4E1D9"/>
</linearGradient>
<linearGradient id="paint1_linear_218_1921" x1="213.5" y1="0.5" x2="213.5" y2="293.5" gradientUnits="userSpaceOnUse">
<stop stop-color="#DEDEDE"/>
<stop offset="0.161458" stop-color="#DCD9D5"/>
<stop offset="0.723958" stop-color="#EDEBE7"/>
<stop offset="1" stop-color="#E4E1D9"/>
</linearGradient>
<linearGradient id="paint2_linear_218_1921" x1="145.785" y1="-0.146494" x2="145.785" y2="6.09714" gradientUnits="userSpaceOnUse">
<stop stop-color="white"/>
<stop offset="0.31" stop-color="#FBFBFB"/>
<stop offset="0.59" stop-color="#F0F0F0"/>
<stop offset="0.86" stop-color="#DEDEDE"/>
<stop offset="1" stop-color="#D1D1D1"/>
</linearGradient>
<linearGradient id="paint3_linear_218_1921" x1="148.523" y1="26.2805" x2="148.523" y2="9.64049" gradientUnits="userSpaceOnUse">
<stop stop-color="white"/>
<stop offset="0.31" stop-color="#FBFBFB"/>
<stop offset="0.59" stop-color="#F0F0F0"/>
<stop offset="0.86" stop-color="#DEDEDE"/>
<stop offset="1" stop-color="#D1D1D1"/>
</linearGradient>
<linearGradient id="paint4_linear_218_1921" x1="148.042" y1="50.14" x2="148.042" y2="43.9074" gradientUnits="userSpaceOnUse">
<stop stop-color="white"/>
<stop offset="0.31" stop-color="#FBFBFB"/>
<stop offset="0.59" stop-color="#F0F0F0"/>
<stop offset="0.86" stop-color="#DEDEDE"/>
<stop offset="1" stop-color="#D1D1D1"/>
</linearGradient>
<linearGradient id="paint5_linear_218_1921" x1="149.731" y1="23.7195" x2="149.731" y2="40.3595" gradientUnits="userSpaceOnUse">
<stop stop-color="white"/>
<stop offset="0.31" stop-color="#FBFBFB"/>
<stop offset="0.59" stop-color="#F0F0F0"/>
<stop offset="0.86" stop-color="#DEDEDE"/>
<stop offset="1" stop-color="#D1D1D1"/>
</linearGradient>
<linearGradient id="paint6_linear_218_1921" x1="214" y1="23.7195" x2="214" y2="40.3595" gradientUnits="userSpaceOnUse">
<stop stop-color="white"/>
<stop offset="0.31" stop-color="#FBFBFB"/>
<stop offset="0.59" stop-color="#F0F0F0"/>
<stop offset="0.86" stop-color="#DEDEDE"/>
<stop offset="1" stop-color="#D1D1D1"/>
</linearGradient>
<linearGradient id="paint7_linear_218_1921" x1="78.798" y1="99.8535" x2="78.798" y2="106.097" gradientUnits="userSpaceOnUse">
<stop stop-color="white"/>
<stop offset="0.31" stop-color="#FBFBFB"/>
<stop offset="0.59" stop-color="#F0F0F0"/>
<stop offset="0.86" stop-color="#DEDEDE"/>
<stop offset="1" stop-color="#D1D1D1"/>
</linearGradient>
<linearGradient id="paint8_linear_218_1921" x1="79.3546" y1="126.28" x2="79.3546" y2="109.64" gradientUnits="userSpaceOnUse">
<stop stop-color="white"/>
<stop offset="0.31" stop-color="#FBFBFB"/>
<stop offset="0.59" stop-color="#F0F0F0"/>
<stop offset="0.86" stop-color="#DEDEDE"/>
<stop offset="1" stop-color="#D1D1D1"/>
</linearGradient>
<linearGradient id="paint9_linear_218_1921" x1="78.766" y1="121.835" x2="78.766" y2="103.649" gradientUnits="userSpaceOnUse">
<stop stop-color="white"/>
<stop offset="0.31" stop-color="#FBFBFB"/>
<stop offset="0.59" stop-color="#F0F0F0"/>
<stop offset="0.86" stop-color="#DEDEDE"/>
<stop offset="1" stop-color="#D1D1D1"/>
</linearGradient>
<linearGradient id="paint10_linear_218_1921" x1="78.798" y1="163.854" x2="78.798" y2="170.097" gradientUnits="userSpaceOnUse">
<stop stop-color="white"/>
<stop offset="0.31" stop-color="#FBFBFB"/>
<stop offset="0.59" stop-color="#F0F0F0"/>
<stop offset="0.86" stop-color="#DEDEDE"/>
<stop offset="1" stop-color="#D1D1D1"/>
</linearGradient>
<linearGradient id="paint11_linear_218_1921" x1="79.3546" y1="190.28" x2="79.3546" y2="173.64" gradientUnits="userSpaceOnUse">
<stop stop-color="white"/>
<stop offset="0.31" stop-color="#FBFBFB"/>
<stop offset="0.59" stop-color="#F0F0F0"/>
<stop offset="0.86" stop-color="#DEDEDE"/>
<stop offset="1" stop-color="#D1D1D1"/>
</linearGradient>
<linearGradient id="paint12_linear_218_1921" x1="78.766" y1="185.835" x2="78.766" y2="167.649" gradientUnits="userSpaceOnUse">
<stop stop-color="white"/>
<stop offset="0.31" stop-color="#FBFBFB"/>
<stop offset="0.59" stop-color="#F0F0F0"/>
<stop offset="0.86" stop-color="#DEDEDE"/>
<stop offset="1" stop-color="#D1D1D1"/>
</linearGradient>
<linearGradient id="paint13_linear_218_1921" x1="78.798" y1="227.854" x2="78.798" y2="234.097" gradientUnits="userSpaceOnUse">
<stop stop-color="white"/>
<stop offset="0.31" stop-color="#FBFBFB"/>
<stop offset="0.59" stop-color="#F0F0F0"/>
<stop offset="0.86" stop-color="#DEDEDE"/>
<stop offset="1" stop-color="#D1D1D1"/>
</linearGradient>
<linearGradient id="paint14_linear_218_1921" x1="79.3546" y1="254.28" x2="79.3546" y2="237.64" gradientUnits="userSpaceOnUse">
<stop stop-color="white"/>
<stop offset="0.31" stop-color="#FBFBFB"/>
<stop offset="0.59" stop-color="#F0F0F0"/>
<stop offset="0.86" stop-color="#DEDEDE"/>
<stop offset="1" stop-color="#D1D1D1"/>
</linearGradient>
<linearGradient id="paint15_linear_218_1921" x1="78.766" y1="249.835" x2="78.766" y2="231.649" gradientUnits="userSpaceOnUse">
<stop stop-color="white"/>
<stop offset="0.31" stop-color="#FBFBFB"/>
<stop offset="0.59" stop-color="#F0F0F0"/>
<stop offset="0.86" stop-color="#DEDEDE"/>
<stop offset="1" stop-color="#D1D1D1"/>
</linearGradient>
<linearGradient id="paint16_linear_218_1921" x1="212.798" y1="99.8535" x2="212.798" y2="106.097" gradientUnits="userSpaceOnUse">
<stop stop-color="white"/>
<stop offset="0.31" stop-color="#FBFBFB"/>
<stop offset="0.59" stop-color="#F0F0F0"/>
<stop offset="0.86" stop-color="#DEDEDE"/>
<stop offset="1" stop-color="#D1D1D1"/>
</linearGradient>
<linearGradient id="paint17_linear_218_1921" x1="213.355" y1="126.28" x2="213.355" y2="109.64" gradientUnits="userSpaceOnUse">
<stop stop-color="white"/>
<stop offset="0.31" stop-color="#FBFBFB"/>
<stop offset="0.59" stop-color="#F0F0F0"/>
<stop offset="0.86" stop-color="#DEDEDE"/>
<stop offset="1" stop-color="#D1D1D1"/>
</linearGradient>
<linearGradient id="paint18_linear_218_1921" x1="212.766" y1="121.835" x2="212.766" y2="103.649" gradientUnits="userSpaceOnUse">
<stop stop-color="white"/>
<stop offset="0.31" stop-color="#FBFBFB"/>
<stop offset="0.59" stop-color="#F0F0F0"/>
<stop offset="0.86" stop-color="#DEDEDE"/>
<stop offset="1" stop-color="#D1D1D1"/>
</linearGradient>
<linearGradient id="paint19_linear_218_1921" x1="212.798" y1="163.854" x2="212.798" y2="170.097" gradientUnits="userSpaceOnUse">
<stop stop-color="white"/>
<stop offset="0.31" stop-color="#FBFBFB"/>
<stop offset="0.59" stop-color="#F0F0F0"/>
<stop offset="0.86" stop-color="#DEDEDE"/>
<stop offset="1" stop-color="#D1D1D1"/>
</linearGradient>
<linearGradient id="paint20_linear_218_1921" x1="213.355" y1="190.28" x2="213.355" y2="173.64" gradientUnits="userSpaceOnUse">
<stop stop-color="white"/>
<stop offset="0.31" stop-color="#FBFBFB"/>
<stop offset="0.59" stop-color="#F0F0F0"/>
<stop offset="0.86" stop-color="#DEDEDE"/>
<stop offset="1" stop-color="#D1D1D1"/>
</linearGradient>
<linearGradient id="paint21_linear_218_1921" x1="212.766" y1="185.835" x2="212.766" y2="167.649" gradientUnits="userSpaceOnUse">
<stop stop-color="white"/>
<stop offset="0.31" stop-color="#FBFBFB"/>
<stop offset="0.59" stop-color="#F0F0F0"/>
<stop offset="0.86" stop-color="#DEDEDE"/>
<stop offset="1" stop-color="#D1D1D1"/>
</linearGradient>
<linearGradient id="paint22_linear_218_1921" x1="212.798" y1="227.854" x2="212.798" y2="234.097" gradientUnits="userSpaceOnUse">
<stop stop-color="white"/>
<stop offset="0.31" stop-color="#FBFBFB"/>
<stop offset="0.59" stop-color="#F0F0F0"/>
<stop offset="0.86" stop-color="#DEDEDE"/>
<stop offset="1" stop-color="#D1D1D1"/>
</linearGradient>
<linearGradient id="paint23_linear_218_1921" x1="213.355" y1="254.28" x2="213.355" y2="237.64" gradientUnits="userSpaceOnUse">
<stop stop-color="white"/>
<stop offset="0.31" stop-color="#FBFBFB"/>
<stop offset="0.59" stop-color="#F0F0F0"/>
<stop offset="0.86" stop-color="#DEDEDE"/>
<stop offset="1" stop-color="#D1D1D1"/>
</linearGradient>
<linearGradient id="paint24_linear_218_1921" x1="212.766" y1="249.835" x2="212.766" y2="231.649" gradientUnits="userSpaceOnUse">
<stop stop-color="white"/>
<stop offset="0.31" stop-color="#FBFBFB"/>
<stop offset="0.59" stop-color="#F0F0F0"/>
<stop offset="0.86" stop-color="#DEDEDE"/>
<stop offset="1" stop-color="#D1D1D1"/>
</linearGradient>
</defs>
</svg>
