<svg width="242" height="520" viewBox="0 0 242 520" fill="none" xmlns="http://www.w3.org/2000/svg">
<path d="M11.632 304.312V304.936L3.312 301.544L3.312 300.04L12.32 303.8V305.304L3.936 308.712V308.024L12.32 311.48V312.984L3.312 316.744V315.224L11.632 311.816V312.472L3.312 309.128V307.608L11.632 304.312Z" fill="#303030"/>
<path d="M12.32 290.365L8.912 290.685L7.808 290.285L6.72 290.685L3.312 290.365L3.312 288.861L7.808 289.277L12.32 288.861V290.365ZM7.808 289.789C8.74667 290.024 9.57333 290.386 10.288 290.877C10.992 291.357 11.5413 291.944 11.936 292.637C12.3307 293.32 12.528 294.077 12.528 294.909C12.528 295.794 12.3307 296.578 11.936 297.261C11.5307 297.944 10.976 298.482 10.272 298.877C9.55733 299.261 8.736 299.453 7.808 299.453C6.86933 299.453 6.048 299.261 5.344 298.877C4.64 298.482 4.09067 297.944 3.696 297.261C3.30133 296.578 3.104 295.794 3.104 294.909C3.104 294.077 3.30133 293.32 3.696 292.637C4.09067 291.944 4.64 291.352 5.344 290.861C6.048 290.37 6.86933 290.013 7.808 289.789ZM7.808 297.949C8.49067 297.949 9.09333 297.81 9.616 297.533C10.1387 297.245 10.5493 296.856 10.848 296.365C11.136 295.864 11.28 295.298 11.28 294.669C11.28 294.029 11.136 293.442 10.848 292.909C10.5493 292.365 10.1387 291.885 9.616 291.469C9.09333 291.042 8.49067 290.696 7.808 290.429C7.12533 290.696 6.52267 291.042 6 291.469C5.47733 291.885 5.072 292.365 4.784 292.909C4.48533 293.442 4.336 294.029 4.336 294.669C4.336 295.298 4.48533 295.864 4.784 296.365C5.072 296.856 5.47733 297.245 6 297.533C6.52267 297.81 7.12533 297.949 7.808 297.949Z" fill="#303030"/>
<path d="M2.33042e-07 286.659L1.68699e-07 285.187H12.32V286.659H2.33042e-07Z" fill="#303030"/>
<path d="M6.43431e-08 282.8L0 281.328H12.32V282.8H6.43431e-08Z" fill="#303030"/>
<path d="M14.432 279.517L11.872 278.349L12.4 278.269C12.4 278.471 12.3573 278.653 12.272 278.813C12.176 278.962 12.048 279.085 11.888 279.181C11.728 279.266 11.5573 279.309 11.376 279.309C11.184 279.309 11.0133 279.266 10.864 279.181C10.704 279.085 10.5813 278.962 10.496 278.813C10.4 278.653 10.352 278.477 10.352 278.285C10.352 278.071 10.4 277.89 10.496 277.741C10.592 277.581 10.7253 277.458 10.896 277.373C11.056 277.277 11.2373 277.229 11.44 277.229C11.6533 277.229 11.872 277.271 12.096 277.357C12.32 277.431 12.6187 277.575 12.992 277.789L14.432 278.589V279.517Z" fill="#303030"/>
<path d="M3.312 271.763V270.291L6.368 269.779H12.32L12.32 271.251H6.16L3.312 271.763ZM3.104 266.339C3.104 265.56 3.27467 264.899 3.616 264.355C3.94667 263.811 4.432 263.395 5.072 263.107C5.70133 262.819 6.464 262.675 7.36 262.675L12.32 262.675V264.147L7.616 264.147C6.53867 264.147 5.728 264.371 5.184 264.819C4.62933 265.267 4.352 265.917 4.352 266.771C4.352 267.379 4.50133 267.912 4.8 268.371C5.09867 268.819 5.51467 269.165 6.048 269.411C6.57067 269.656 7.184 269.779 7.888 269.779L7.472 270.371C6.576 270.296 5.80267 270.083 5.152 269.731C4.50133 269.368 4 268.899 3.648 268.323C3.28533 267.736 3.104 267.075 3.104 266.339ZM3.104 259.251C3.104 258.472 3.27467 257.811 3.616 257.267C3.94667 256.712 4.432 256.291 5.072 256.003C5.70133 255.715 6.464 255.571 7.36 255.571H12.32V257.043L7.616 257.043C6.53867 257.043 5.728 257.267 5.184 257.715C4.62933 258.163 4.352 258.813 4.352 259.667C4.352 260.275 4.50133 260.808 4.8 261.267C5.09867 261.715 5.51467 262.061 6.048 262.307C6.57067 262.552 7.184 262.675 7.888 262.675L7.472 263.267C6.576 263.192 5.80267 262.979 5.152 262.627C4.50133 262.264 4 261.795 3.648 261.219C3.28533 260.632 3.104 259.976 3.104 259.251Z" fill="#303030"/>
<path d="M3.312 253.732V252.26L6.368 251.748H12.32V253.22H6.16L3.312 253.732ZM3.104 248.308C3.104 247.529 3.27467 246.868 3.616 246.324C3.94667 245.78 4.432 245.364 5.072 245.076C5.70133 244.788 6.464 244.644 7.36 244.644H12.32V246.116H7.616C6.53867 246.116 5.728 246.34 5.184 246.788C4.62933 247.236 4.352 247.886 4.352 248.74C4.352 249.348 4.50133 249.881 4.8 250.34C5.09867 250.788 5.51467 251.134 6.048 251.38C6.57067 251.625 7.184 251.748 7.888 251.748L7.472 252.34C6.576 252.265 5.80267 252.052 5.152 251.7C4.50133 251.337 4 250.868 3.648 250.292C3.28533 249.705 3.104 249.044 3.104 248.308ZM3.104 241.22C3.104 240.441 3.27466 239.78 3.616 239.236C3.94667 238.681 4.432 238.26 5.072 237.972C5.70133 237.684 6.464 237.54 7.36 237.54L12.32 237.54V239.012L7.616 239.012C6.53867 239.012 5.728 239.236 5.184 239.684C4.62933 240.132 4.352 240.782 4.352 241.636C4.352 242.244 4.50133 242.777 4.8 243.236C5.09867 243.684 5.51467 244.03 6.048 244.276C6.57067 244.521 7.184 244.644 7.888 244.644L7.472 245.236C6.576 245.161 5.80267 244.948 5.152 244.596C4.50133 244.233 4 243.764 3.648 243.188C3.28533 242.601 3.104 241.945 3.104 241.22Z" fill="#303030"/>
<path d="M31.844 500H231.575L241.32 520H21.3201L31.844 500Z" fill="#B9B7B7"/>
<path d="M98.9521 509.068H105.384V510.064H98.9521V509.068ZM105.564 505V505.996H98.8321L99.5401 505.276V514H98.4121V505H105.564Z" fill="white"/>
<path d="M106.904 504.76H108.008V514H106.904V504.76Z" fill="white"/>
<path d="M113.398 514.156C112.606 514.156 111.906 514.008 111.298 513.712C110.698 513.416 110.23 513 109.894 512.464C109.558 511.928 109.39 511.312 109.39 510.616C109.39 509.912 109.558 509.296 109.894 508.768C110.23 508.24 110.698 507.828 111.298 507.532C111.906 507.236 112.606 507.088 113.398 507.088C114.198 507.088 114.898 507.236 115.498 507.532C116.098 507.828 116.566 508.24 116.902 508.768C117.246 509.296 117.418 509.912 117.418 510.616C117.418 511.312 117.246 511.928 116.902 512.464C116.566 513 116.098 513.416 115.498 513.712C114.898 514.008 114.198 514.156 113.398 514.156ZM113.398 513.232C113.99 513.232 114.502 513.128 114.934 512.92C115.366 512.704 115.698 512.4 115.93 512.008C116.17 511.616 116.29 511.152 116.29 510.616C116.29 510.088 116.17 509.628 115.93 509.236C115.698 508.844 115.366 508.54 114.934 508.324C114.502 508.108 113.99 508 113.398 508C112.814 508 112.302 508.108 111.862 508.324C111.43 508.54 111.098 508.844 110.866 509.236C110.634 509.628 110.518 510.088 110.518 510.616C110.518 511.152 110.634 511.616 110.866 512.008C111.098 512.4 111.43 512.704 111.862 512.92C112.302 513.128 112.814 513.232 113.398 513.232Z" fill="white"/>
<path d="M122.398 514.156C121.606 514.156 120.906 514.008 120.298 513.712C119.698 513.416 119.23 513 118.894 512.464C118.558 511.928 118.39 511.312 118.39 510.616C118.39 509.912 118.558 509.296 118.894 508.768C119.23 508.24 119.698 507.828 120.298 507.532C120.906 507.236 121.606 507.088 122.398 507.088C123.198 507.088 123.898 507.236 124.498 507.532C125.098 507.828 125.566 508.24 125.902 508.768C126.246 509.296 126.418 509.912 126.418 510.616C126.418 511.312 126.246 511.928 125.902 512.464C125.566 513 125.098 513.416 124.498 513.712C123.898 514.008 123.198 514.156 122.398 514.156ZM122.398 513.232C122.99 513.232 123.502 513.128 123.934 512.92C124.366 512.704 124.698 512.4 124.93 512.008C125.17 511.616 125.29 511.152 125.29 510.616C125.29 510.088 125.17 509.628 124.93 509.236C124.698 508.844 124.366 508.54 123.934 508.324C123.502 508.108 122.99 508 122.398 508C121.814 508 121.302 508.108 120.862 508.324C120.43 508.54 120.098 508.844 119.866 509.236C119.634 509.628 119.518 510.088 119.518 510.616C119.518 511.152 119.634 511.616 119.866 512.008C120.098 512.4 120.43 512.704 120.862 512.92C121.302 513.128 121.814 513.232 122.398 513.232Z" fill="white"/>
<path d="M127.486 507.244H128.59L128.974 509.548V514H127.87V509.344L127.486 507.244ZM132.562 507.22V508.216C132.41 508.168 132.23 508.132 132.022 508.108C131.822 508.084 131.63 508.072 131.446 508.072C130.966 508.072 130.538 508.18 130.162 508.396C129.786 508.612 129.494 508.928 129.286 509.344C129.078 509.752 128.974 510.236 128.974 510.796L128.662 510.364C128.678 509.892 128.754 509.456 128.89 509.056C129.026 508.656 129.218 508.312 129.466 508.024C129.722 507.728 130.026 507.5 130.378 507.34C130.738 507.172 131.142 507.088 131.59 507.088C131.758 507.088 131.93 507.1 132.106 507.124C132.29 507.148 132.442 507.18 132.562 507.22Z" fill="white"/>
<path d="M136.564 504.76H137.668V514H136.564V504.76Z" fill="white"/>
<path d="M143.022 514.156C142.246 514.156 141.558 514.008 140.958 513.712C140.366 513.408 139.898 512.992 139.554 512.464C139.218 511.928 139.05 511.312 139.05 510.616C139.05 509.912 139.21 509.296 139.53 508.768C139.85 508.24 140.294 507.828 140.862 507.532C141.43 507.236 142.082 507.088 142.818 507.088C143.546 507.088 144.182 507.248 144.726 507.568C145.27 507.888 145.69 508.34 145.986 508.924C146.29 509.5 146.442 510.172 146.442 510.94H139.89V510.064H145.974L145.326 510.46C145.302 509.956 145.182 509.52 144.966 509.152C144.75 508.784 144.458 508.5 144.09 508.3C143.722 508.1 143.294 508 142.806 508C142.278 508 141.818 508.108 141.426 508.324C141.034 508.532 140.726 508.828 140.502 509.212C140.286 509.596 140.178 510.048 140.178 510.568C140.178 511.112 140.302 511.584 140.55 511.984C140.798 512.384 141.146 512.692 141.594 512.908C142.042 513.124 142.57 513.232 143.178 513.232C143.73 513.232 144.27 513.14 144.798 512.956C145.334 512.772 145.814 512.52 146.238 512.2V513.064C145.822 513.4 145.326 513.668 144.75 513.868C144.174 514.06 143.598 514.156 143.022 514.156Z" fill="white"/>
<path d="M150.93 513.484H150.498L153.486 507.244H154.662L151.302 514H150.078L146.706 507.244H147.93L150.93 513.484Z" fill="white"/>
<path d="M158.925 514.156C158.149 514.156 157.461 514.008 156.861 513.712C156.269 513.408 155.801 512.992 155.457 512.464C155.121 511.928 154.953 511.312 154.953 510.616C154.953 509.912 155.113 509.296 155.433 508.768C155.753 508.24 156.197 507.828 156.765 507.532C157.333 507.236 157.985 507.088 158.721 507.088C159.449 507.088 160.085 507.248 160.629 507.568C161.173 507.888 161.593 508.34 161.889 508.924C162.193 509.5 162.345 510.172 162.345 510.94H155.793V510.064H161.877L161.229 510.46C161.205 509.956 161.085 509.52 160.869 509.152C160.653 508.784 160.361 508.5 159.993 508.3C159.625 508.1 159.197 508 158.709 508C158.181 508 157.721 508.108 157.329 508.324C156.937 508.532 156.629 508.828 156.405 509.212C156.189 509.596 156.081 510.048 156.081 510.568C156.081 511.112 156.205 511.584 156.453 511.984C156.701 512.384 157.049 512.692 157.497 512.908C157.945 513.124 158.473 513.232 159.081 513.232C159.633 513.232 160.173 513.14 160.701 512.956C161.237 512.772 161.717 512.52 162.141 512.2V513.064C161.725 513.4 161.229 513.668 160.653 513.868C160.077 514.06 159.501 514.156 158.925 514.156Z" fill="white"/>
<path d="M163.716 504.76H164.82V514H163.716V504.76Z" fill="white"/>
<path d="M100.872 488.024C100.92 487.384 101.124 486.828 101.484 486.356C101.852 485.876 102.336 485.504 102.936 485.24C103.544 484.976 104.232 484.844 105 484.844C105.744 484.844 106.392 484.96 106.944 485.192C107.504 485.424 107.94 485.752 108.252 486.176C108.564 486.6 108.72 487.092 108.72 487.652C108.72 488.084 108.616 488.488 108.408 488.864C108.208 489.232 107.868 489.612 107.388 490.004C106.916 490.396 106.272 490.844 105.456 491.348L102.18 493.388L102.036 493.04H109.02V494H100.908V493.136L104.712 490.736C105.416 490.288 105.976 489.9 106.392 489.572C106.816 489.236 107.12 488.92 107.304 488.624C107.488 488.328 107.58 488.016 107.58 487.688C107.58 487.312 107.476 486.984 107.268 486.704C107.068 486.416 106.772 486.192 106.38 486.032C105.996 485.872 105.528 485.792 104.976 485.792C104.336 485.792 103.8 485.892 103.368 486.092C102.944 486.284 102.62 486.548 102.396 486.884C102.18 487.22 102.052 487.6 102.012 488.024H100.872Z" fill="#303030"/>
<path d="M111.043 485H117.379V485.936H111.451L111.919 485.588L111.415 489.656L111.031 489.668C111.231 489.38 111.495 489.116 111.823 488.876C112.159 488.628 112.551 488.428 112.999 488.276C113.447 488.124 113.939 488.048 114.475 488.048C115.267 488.048 115.931 488.184 116.467 488.456C117.003 488.728 117.407 489.092 117.679 489.548C117.959 490.004 118.099 490.516 118.099 491.084C118.099 491.684 117.935 492.216 117.607 492.68C117.279 493.136 116.819 493.496 116.227 493.76C115.635 494.024 114.939 494.156 114.139 494.156C113.323 494.156 112.619 494.036 112.027 493.796C111.435 493.548 110.963 493.216 110.611 492.8C110.267 492.384 110.047 491.916 109.951 491.396H111.091C111.219 491.948 111.543 492.388 112.063 492.716C112.591 493.044 113.283 493.208 114.139 493.208C114.707 493.208 115.199 493.12 115.615 492.944C116.039 492.768 116.367 492.524 116.599 492.212C116.839 491.892 116.959 491.516 116.959 491.084C116.959 490.66 116.855 490.292 116.647 489.98C116.439 489.66 116.139 489.412 115.747 489.236C115.363 489.06 114.891 488.972 114.331 488.972C113.843 488.972 113.403 489.04 113.011 489.176C112.619 489.304 112.279 489.468 111.991 489.668C111.703 489.868 111.467 490.08 111.283 490.304H110.395L111.043 485Z" fill="#303030"/>
<path d="M123.869 494.156C122.909 494.156 122.081 493.964 121.385 493.58C120.697 493.188 120.169 492.644 119.801 491.948C119.433 491.252 119.249 490.436 119.249 489.5C119.249 488.564 119.433 487.748 119.801 487.052C120.169 486.356 120.697 485.816 121.385 485.432C122.081 485.04 122.909 484.844 123.869 484.844C124.829 484.844 125.653 485.04 126.341 485.432C127.029 485.816 127.557 486.356 127.925 487.052C128.293 487.748 128.477 488.564 128.477 489.5C128.477 490.428 128.293 491.244 127.925 491.948C127.557 492.644 127.029 493.188 126.341 493.58C125.653 493.964 124.829 494.156 123.869 494.156ZM123.869 493.196C124.957 493.196 125.805 492.872 126.413 492.224C127.021 491.576 127.325 490.668 127.325 489.5C127.325 488.332 127.021 487.424 126.413 486.776C125.805 486.12 124.957 485.792 123.869 485.792C122.773 485.792 121.921 486.12 121.313 486.776C120.705 487.424 120.401 488.332 120.401 489.5C120.401 490.668 120.705 491.576 121.313 492.224C121.921 492.872 122.773 493.196 123.869 493.196Z" fill="#303030"/>
<path d="M129.713 487.244H130.817L131.201 489.536V494H130.097V489.38L129.713 487.244ZM133.781 487.088C134.365 487.088 134.861 487.216 135.269 487.472C135.677 487.72 135.989 488.084 136.205 488.564C136.421 489.036 136.529 489.608 136.529 490.28V494H135.425V490.472C135.425 489.664 135.257 489.056 134.921 488.648C134.585 488.232 134.097 488.024 133.457 488.024C133.001 488.024 132.601 488.136 132.257 488.36C131.921 488.584 131.661 488.896 131.477 489.296C131.293 489.688 131.201 490.148 131.201 490.676L130.757 490.364C130.813 489.692 130.973 489.112 131.237 488.624C131.509 488.136 131.861 487.76 132.293 487.496C132.733 487.224 133.229 487.088 133.781 487.088ZM139.097 487.088C139.681 487.088 140.177 487.216 140.585 487.472C141.001 487.72 141.317 488.084 141.533 488.564C141.749 489.036 141.857 489.608 141.857 490.28V494H140.753V490.472C140.753 489.664 140.585 489.056 140.249 488.648C139.913 488.232 139.425 488.024 138.785 488.024C138.329 488.024 137.929 488.136 137.585 488.36C137.249 488.584 136.989 488.896 136.805 489.296C136.621 489.688 136.529 490.148 136.529 490.676L136.085 490.364C136.141 489.692 136.301 489.112 136.565 488.624C136.837 488.136 137.189 487.76 137.621 487.496C138.061 487.224 138.553 487.088 139.097 487.088Z" fill="#303030"/>
<path d="M143.236 487.244H144.34L144.724 489.536V494H143.62V489.38L143.236 487.244ZM147.304 487.088C147.888 487.088 148.384 487.216 148.792 487.472C149.2 487.72 149.512 488.084 149.728 488.564C149.944 489.036 150.052 489.608 150.052 490.28V494H148.948V490.472C148.948 489.664 148.78 489.056 148.444 488.648C148.108 488.232 147.62 488.024 146.98 488.024C146.524 488.024 146.124 488.136 145.78 488.36C145.444 488.584 145.184 488.896 145 489.296C144.816 489.688 144.724 490.148 144.724 490.676L144.28 490.364C144.336 489.692 144.496 489.112 144.76 488.624C145.032 488.136 145.384 487.76 145.816 487.496C146.256 487.224 146.752 487.088 147.304 487.088ZM152.62 487.088C153.204 487.088 153.7 487.216 154.108 487.472C154.524 487.72 154.84 488.084 155.056 488.564C155.272 489.036 155.38 489.608 155.38 490.28V494H154.276V490.472C154.276 489.664 154.108 489.056 153.772 488.648C153.436 488.232 152.948 488.024 152.308 488.024C151.852 488.024 151.452 488.136 151.108 488.36C150.772 488.584 150.512 488.896 150.328 489.296C150.144 489.688 150.052 490.148 150.052 490.676L149.608 490.364C149.664 489.692 149.824 489.112 150.088 488.624C150.36 488.136 150.712 487.76 151.144 487.496C151.584 487.224 152.076 487.088 152.62 487.088Z" fill="#303030"/>
<path d="M166.676 492.356V491.144L166.724 490.964V489.848L166.676 489.608V487.244H167.78V492.2C167.78 493.08 167.6 493.812 167.24 494.396C166.888 494.98 166.408 495.416 165.8 495.704C165.192 495.992 164.5 496.136 163.724 496.136C163.14 496.136 162.596 496.052 162.092 495.884C161.596 495.724 161.12 495.476 160.664 495.14V494.168C161.144 494.56 161.636 494.832 162.14 494.984C162.652 495.136 163.16 495.212 163.664 495.212C164.64 495.212 165.384 494.956 165.896 494.444C166.416 493.94 166.676 493.244 166.676 492.356ZM163.244 493.568C162.636 493.568 162.084 493.432 161.588 493.16C161.1 492.888 160.712 492.512 160.424 492.032C160.136 491.544 159.992 490.976 159.992 490.328C159.992 489.672 160.136 489.104 160.424 488.624C160.712 488.136 161.1 487.76 161.588 487.496C162.084 487.224 162.636 487.088 163.244 487.088C163.7 487.088 164.124 487.16 164.516 487.304C164.908 487.44 165.264 487.624 165.584 487.856C165.904 488.088 166.176 488.348 166.4 488.636C166.624 488.924 166.796 489.216 166.916 489.512C167.044 489.8 167.108 490.072 167.108 490.328C167.108 490.656 167.012 491.008 166.82 491.384C166.636 491.752 166.368 492.104 166.016 492.44C165.672 492.768 165.264 493.04 164.792 493.256C164.328 493.464 163.812 493.568 163.244 493.568ZM163.544 492.68C164.168 492.68 164.744 492.496 165.272 492.128C165.8 491.76 166.284 491.16 166.724 490.328C166.292 489.48 165.808 488.876 165.272 488.516C164.744 488.148 164.168 487.964 163.544 487.964C163.024 487.964 162.58 488.068 162.212 488.276C161.852 488.476 161.576 488.752 161.384 489.104C161.2 489.456 161.108 489.864 161.108 490.328C161.108 490.776 161.2 491.18 161.384 491.54C161.576 491.892 161.852 492.172 162.212 492.38C162.58 492.58 163.024 492.68 163.544 492.68Z" fill="#303030"/>
<path d="M175.949 494L175.709 491.444L176.009 490.616L175.709 489.8L175.949 487.244H177.077L176.765 490.616L177.077 494H175.949ZM176.381 490.616C176.205 491.32 175.933 491.94 175.565 492.476C175.205 493.004 174.765 493.416 174.245 493.712C173.733 494.008 173.165 494.156 172.541 494.156C171.877 494.156 171.289 494.008 170.777 493.712C170.265 493.408 169.861 492.992 169.565 492.464C169.277 491.928 169.133 491.312 169.133 490.616C169.133 489.912 169.277 489.296 169.565 488.768C169.861 488.24 170.265 487.828 170.777 487.532C171.289 487.236 171.877 487.088 172.541 487.088C173.165 487.088 173.733 487.236 174.245 487.532C174.765 487.828 175.209 488.24 175.577 488.768C175.945 489.296 176.213 489.912 176.381 490.616ZM170.261 490.616C170.261 491.128 170.365 491.58 170.573 491.972C170.789 492.364 171.081 492.672 171.449 492.896C171.825 493.112 172.249 493.22 172.721 493.22C173.201 493.22 173.641 493.112 174.041 492.896C174.449 492.672 174.809 492.364 175.121 491.972C175.441 491.58 175.701 491.128 175.901 490.616C175.701 490.104 175.441 489.652 175.121 489.26C174.809 488.868 174.449 488.564 174.041 488.348C173.641 488.124 173.201 488.012 172.721 488.012C172.249 488.012 171.825 488.124 171.449 488.348C171.081 488.564 170.789 488.868 170.573 489.26C170.365 489.652 170.261 490.104 170.261 490.616Z" fill="#303030"/>
<path d="M178.728 487.244H179.832V489.8L179.772 490.016V491.108L179.832 491.456V495.98H178.728V487.244ZM179.316 490.616C179.492 489.912 179.76 489.296 180.12 488.768C180.488 488.24 180.928 487.828 181.44 487.532C181.96 487.236 182.532 487.088 183.156 487.088C183.82 487.088 184.408 487.236 184.92 487.532C185.432 487.828 185.832 488.24 186.12 488.768C186.416 489.296 186.564 489.912 186.564 490.616C186.564 491.312 186.416 491.928 186.12 492.464C185.832 492.992 185.432 493.408 184.92 493.712C184.408 494.008 183.82 494.156 183.156 494.156C182.532 494.156 181.96 494.008 181.44 493.712C180.928 493.416 180.488 493.004 180.12 492.476C179.76 491.94 179.492 491.32 179.316 490.616ZM185.436 490.616C185.436 490.104 185.328 489.652 185.112 489.26C184.904 488.868 184.612 488.564 184.236 488.348C183.868 488.124 183.448 488.012 182.976 488.012C182.496 488.012 182.052 488.124 181.644 488.348C181.244 488.564 180.888 488.868 180.576 489.26C180.264 489.652 180.004 490.104 179.796 490.616C180.004 491.128 180.264 491.58 180.576 491.972C180.888 492.364 181.244 492.672 181.644 492.896C182.052 493.112 182.496 493.22 182.976 493.22C183.448 493.22 183.868 493.112 184.236 492.896C184.612 492.672 184.904 492.364 185.112 491.972C185.328 491.58 185.436 491.128 185.436 490.616Z" fill="#303030"/>
<path d="M88.4971 484.823C88.3995 484.726 88.2412 484.726 88.1435 484.823L86.5525 486.414C86.4549 486.512 86.4549 486.67 86.5525 486.768C86.6502 486.865 86.8085 486.865 86.9061 486.768L88.3203 485.354L89.7345 486.768C89.8322 486.865 89.9904 486.865 90.0881 486.768C90.1857 486.67 90.1857 486.512 90.0881 486.414L88.4971 484.823ZM88.1435 495.177C88.2412 495.274 88.3995 495.274 88.4971 495.177L90.0881 493.586C90.1857 493.488 90.1857 493.33 90.0881 493.232C89.9904 493.135 89.8322 493.135 89.7345 493.232L88.3203 494.646L86.9061 493.232C86.8085 493.135 86.6502 493.135 86.5525 493.232C86.4549 493.33 86.4549 493.488 86.5525 493.586L88.1435 495.177ZM88.0703 485L88.0703 495L88.5703 495L88.5703 485L88.0703 485Z" fill="#303030"/>
<path d="M23.4968 65.8232C23.3992 65.7256 23.2409 65.7256 23.1433 65.8232L21.5523 67.4142C21.4547 67.5118 21.4547 67.6701 21.5523 67.7678C21.6499 67.8654 21.8082 67.8654 21.9059 67.7678L23.3201 66.3536L24.7343 67.7678C24.8319 67.8654 24.9902 67.8654 25.0878 67.7678C25.1855 67.6701 25.1855 67.5118 25.0878 67.4142L23.4968 65.8232ZM23.1433 481.177C23.2409 481.274 23.3992 481.274 23.4969 481.177L25.0879 479.586C25.1855 479.488 25.1855 479.33 25.0879 479.232C24.9902 479.135 24.8319 479.135 24.7343 479.232L23.3201 480.646L21.9059 479.232C21.8082 479.135 21.65 479.135 21.5523 479.232C21.4547 479.33 21.4547 479.488 21.5523 479.586L23.1433 481.177ZM23.0701 66L23.0701 481L23.5701 481L23.5701 66L23.0701 66Z" fill="#303030"/>
<path d="M227 1H31V481H227V1Z" fill="url(#paint0_linear_215_112)"/>
<path d="M220.282 72.9399H40.5247V473.94H220.282V72.9399Z" fill="#C8C6C6"/>
<path d="M195.32 87H66.3203V456H195.32V87Z" fill="#DDDDDD"/>
<path d="M194.838 87H65.802L40.3201 72H220.32L194.838 87Z" fill="#B9B7B7"/>
<path d="M54.3203 55L207.82 55L219.32 64L39.3203 64L54.3203 55Z" fill="#B9B7B7"/>
<path d="M54.5628 55.0606C54.5963 54.9267 54.5149 54.791 54.3809 54.7575L52.1981 54.2118C52.0642 54.1783 51.9284 54.2597 51.895 54.3937C51.8615 54.5276 51.9429 54.6633 52.0769 54.6968L54.0171 55.1819L53.5321 57.1222C53.4986 57.2561 53.58 57.3919 53.714 57.4254C53.8479 57.4588 53.9837 57.3774 54.0171 57.2435L54.5628 55.0606ZM39.0778 63.9394C39.0443 64.0733 39.1257 64.209 39.2597 64.2425L41.4425 64.7882C41.5764 64.8217 41.7122 64.7403 41.7457 64.6063C41.7792 64.4724 41.6977 64.3367 41.5638 64.3032L39.6235 63.8181L40.1086 61.8778C40.142 61.7439 40.0606 61.6081 39.9267 61.5746C39.7927 61.5412 39.657 61.6226 39.6235 61.7565L39.0778 63.9394ZM54.1917 54.7856L39.1917 63.7856L39.4489 64.2144L54.4489 55.2144L54.1917 54.7856Z" fill="#303030"/>
<path d="M219.393 64.618C219.531 64.6047 219.631 64.4826 219.618 64.3451L219.402 62.1055C219.389 61.9681 219.267 61.8674 219.129 61.8807C218.992 61.8939 218.891 62.0161 218.904 62.1535L219.096 64.1443L217.106 64.3363C216.968 64.3495 216.867 64.4717 216.881 64.6091C216.894 64.7465 217.016 64.8472 217.154 64.834L219.393 64.618ZM207.976 54.751C207.839 54.7643 207.738 54.8864 207.751 55.0239L207.967 57.2635C207.98 57.4009 208.103 57.5016 208.24 57.4883C208.377 57.4751 208.478 57.3529 208.465 57.2155L208.273 55.2247L210.264 55.0327C210.401 55.0195 210.502 54.8973 210.488 54.7599C210.475 54.6225 210.353 54.5218 210.216 54.5351L207.976 54.751ZM219.528 64.1762L208.159 54.8069L207.841 55.1928L219.21 64.5621L219.528 64.1762Z" fill="#303030"/>
<path d="M65.802 456H194.838L220.32 474H40.3201L65.802 456Z" fill="#B9B7B7"/>
<path d="M207.828 119.33H52.9775V125.33H207.828V119.33Z" fill="url(#paint1_linear_215_112)"/>
<path d="M52.9774 118.33H51.8945V126.33H52.9774V118.33Z" fill="url(#paint2_linear_215_112)"/>
<path d="M207.828 118.33H206.745V126.33H207.828V118.33Z" fill="url(#paint3_linear_215_112)"/>
<rect x="55" y="16" width="153" height="39" fill="white"/>
<path d="M61.3316 39.0696H62.5961V48.7373H61.3316V39.0696ZM57 38.4525H66.9277V39.5907H57V38.4525Z" fill="black"/>
<path d="M69.6067 48.9156C68.7188 48.9156 67.9341 48.7465 67.2525 48.4082C66.5799 48.07 66.0553 47.5946 65.6786 46.9821C65.302 46.3696 65.1136 45.6656 65.1136 44.8703C65.1136 44.0658 65.302 43.3618 65.6786 42.7584C66.0553 42.1551 66.5799 41.6842 67.2525 41.346C67.9341 41.0077 68.7188 40.8386 69.6067 40.8386C70.5035 40.8386 71.2882 41.0077 71.9608 41.346C72.6334 41.6842 73.158 42.1551 73.5347 42.7584C73.9203 43.3618 74.1131 44.0658 74.1131 44.8703C74.1131 45.6656 73.9203 46.3696 73.5347 46.9821C73.158 47.5946 72.6334 48.07 71.9608 48.4082C71.2882 48.7465 70.5035 48.9156 69.6067 48.9156ZM69.6067 47.8597C70.2703 47.8597 70.8443 47.7409 71.3285 47.5032C71.8128 47.2563 72.185 46.9089 72.4451 46.461C72.7141 46.013 72.8486 45.4828 72.8486 44.8703C72.8486 44.2669 72.7141 43.7412 72.4451 43.2932C72.185 42.8453 71.8128 42.4979 71.3285 42.2511C70.8443 42.0042 70.2703 41.8808 69.6067 41.8808C68.952 41.8808 68.378 42.0042 67.8848 42.2511C67.4005 42.4979 67.0283 42.8453 66.7683 43.2932C66.5082 43.7412 66.3781 44.2669 66.3781 44.8703C66.3781 45.4828 66.5082 46.013 66.7683 46.461C67.0283 46.9089 67.4005 47.2563 67.8848 47.5032C68.378 47.7409 68.952 47.8597 69.6067 47.8597Z" fill="black"/>
<path d="M75.6601 41.0169H76.8977V43.9378L76.8305 44.1846V45.4325L76.8977 45.8302V51H75.6601V41.0169ZM76.3193 44.8703C76.5166 44.0658 76.817 43.3618 77.2206 42.7584C77.6331 42.1551 78.1264 41.6842 78.7003 41.346C79.2832 41.0077 79.9245 40.8386 80.624 40.8386C81.3683 40.8386 82.0275 41.0077 82.6014 41.346C83.1754 41.6842 83.6238 42.1551 83.9467 42.7584C84.2785 43.3618 84.4444 44.0658 84.4444 44.8703C84.4444 45.6656 84.2785 46.3696 83.9467 46.9821C83.6238 47.5854 83.1754 48.0608 82.6014 48.4082C82.0275 48.7465 81.3683 48.9156 80.624 48.9156C79.9245 48.9156 79.2832 48.7465 78.7003 48.4082C78.1264 48.07 77.6331 47.5992 77.2206 46.9958C76.817 46.3833 76.5166 45.6748 76.3193 44.8703ZM83.1799 44.8703C83.1799 44.2852 83.0588 43.7686 82.8167 43.3207C82.5835 42.8727 82.2562 42.5253 81.8347 42.2785C81.4221 42.0225 80.9513 41.8945 80.4222 41.8945C79.8841 41.8945 79.3864 42.0225 78.929 42.2785C78.4806 42.5253 78.0815 42.8727 77.7318 43.3207C77.382 43.7686 77.0905 44.2852 76.8574 44.8703C77.0905 45.4553 77.382 45.9719 77.7318 46.4198C78.0815 46.8678 78.4806 47.2198 78.929 47.4757C79.3864 47.7226 79.8841 47.846 80.4222 47.846C80.9513 47.846 81.4221 47.7226 81.8347 47.4757C82.2562 47.2198 82.5835 46.8678 82.8167 46.4198C83.0588 45.9719 83.1799 45.4553 83.1799 44.8703Z" fill="black"/>
<path d="M97.115 46.4747C97.115 46.9684 96.967 47.398 96.671 47.7637C96.3841 48.1294 95.9581 48.4128 95.3931 48.6139C94.8371 48.8151 94.16 48.9156 93.3618 48.9156C92.5457 48.9156 91.8238 48.8013 91.196 48.5728C90.5772 48.3351 90.0929 48.006 89.7432 47.5854C89.3934 47.1649 89.2051 46.6758 89.1782 46.1181H90.4427C90.4965 46.4747 90.6534 46.7901 90.9135 47.0643C91.1736 47.3295 91.5144 47.5352 91.9359 47.6814C92.3574 47.8277 92.8372 47.9008 93.3753 47.9008C94.1555 47.9008 94.7653 47.782 95.2047 47.5443C95.6532 47.2975 95.8774 46.9638 95.8774 46.5432C95.8774 46.2141 95.7339 45.9719 95.4469 45.8165C95.1599 45.6519 94.6263 45.5285 93.8461 45.4462L92.3798 45.2954C91.6534 45.2222 91.0704 45.0897 90.631 44.8977C90.2005 44.6966 89.8911 44.4497 89.7028 44.1572C89.5145 43.8555 89.4203 43.5218 89.4203 43.1561C89.4203 42.6533 89.5683 42.2328 89.8642 41.8945C90.1692 41.5471 90.5907 41.2866 91.1287 41.1129C91.6668 40.93 92.2901 40.8386 92.9986 40.8386C93.7519 40.8386 94.42 40.9483 95.003 41.1677C95.5949 41.3871 96.0657 41.6934 96.4154 42.0865C96.7652 42.4796 96.958 42.9321 96.9939 43.4441H95.7428C95.698 43.1515 95.5635 42.8864 95.3393 42.6487C95.1151 42.4019 94.8012 42.2053 94.3976 42.0591C94.003 41.9128 93.5143 41.8397 92.9313 41.8397C92.2139 41.8397 91.6534 41.9448 91.2498 42.1551C90.8552 42.3653 90.6579 42.6716 90.6579 43.0738C90.6579 43.3664 90.788 43.5995 91.048 43.7732C91.3081 43.9469 91.77 44.0703 92.4336 44.1435L94.1017 44.3217C94.864 44.3949 95.4648 44.5229 95.9043 44.7057C96.3437 44.8885 96.6531 45.1262 96.8325 45.4188C97.0208 45.7113 97.115 46.0633 97.115 46.4747Z" fill="black"/>
<path d="M98.6628 38.1783H99.9004V48.7373H98.6628V38.1783ZM103.021 40.8386C103.73 40.8386 104.331 40.9849 104.824 41.2774C105.317 41.5608 105.694 41.9768 105.954 42.5253C106.214 43.0647 106.344 43.7184 106.344 44.4863V48.7373H105.106V44.7057C105.106 43.7823 104.9 43.0876 104.488 42.6213C104.075 42.1459 103.465 41.9082 102.658 41.9082C102.111 41.9082 101.627 42.0362 101.205 42.2922C100.793 42.5482 100.47 42.9047 100.237 43.3618C100.012 43.8098 99.9004 44.3354 99.9004 44.9388L99.4027 44.5823C99.4654 43.8143 99.6582 43.1515 99.9811 42.5939C100.304 42.0362 100.725 41.6065 101.246 41.3049C101.775 40.994 102.367 40.8386 103.021 40.8386Z" fill="black"/>
<path d="M112.248 48.9156C111.378 48.9156 110.607 48.7465 109.934 48.4082C109.271 48.0608 108.746 47.5854 108.36 46.9821C107.984 46.3696 107.795 45.6656 107.795 44.8703C107.795 44.0658 107.975 43.3618 108.333 42.7584C108.692 42.1551 109.19 41.6842 109.827 41.346C110.463 41.0077 111.194 40.8386 112.019 40.8386C112.835 40.8386 113.548 41.0214 114.158 41.3871C114.768 41.7528 115.239 42.2693 115.571 42.9367C115.911 43.5949 116.082 44.3629 116.082 45.2405H108.737V44.2395H115.557L114.831 44.692C114.804 44.116 114.669 43.6178 114.427 43.1973C114.185 42.7767 113.858 42.4522 113.445 42.2236C113.033 41.9951 112.553 41.8808 112.006 41.8808C111.414 41.8808 110.898 42.0042 110.459 42.2511C110.019 42.4887 109.674 42.827 109.423 43.2658C109.181 43.7046 109.06 44.2212 109.06 44.8154C109.06 45.4371 109.199 45.9764 109.477 46.4335C109.755 46.8906 110.145 47.2426 110.647 47.4895C111.149 47.7363 111.741 47.8597 112.423 47.8597C113.042 47.8597 113.647 47.7546 114.239 47.5443C114.84 47.334 115.378 47.0461 115.853 46.6804V47.6677C115.387 48.0517 114.831 48.3579 114.185 48.5865C113.539 48.8059 112.894 48.9156 112.248 48.9156Z" fill="black"/>
<path d="M117.619 38.1783H118.857V48.7373H117.619V38.1783Z" fill="black"/>
<path d="M125.061 39.0285C124.38 39.0285 123.859 39.1885 123.501 39.5084C123.142 39.8193 122.963 40.3404 122.963 41.0717V48.7373H121.725V41.25C121.725 40.6283 121.833 40.0752 122.048 39.5907C122.263 39.097 122.604 38.7085 123.07 38.4251C123.546 38.1417 124.164 38 124.927 38C125.303 38 125.635 38.0366 125.922 38.1097C126.218 38.1737 126.496 38.256 126.756 38.3565V39.4124C126.496 39.2753 126.227 39.1793 125.949 39.1245C125.671 39.0605 125.375 39.0285 125.061 39.0285ZM120.057 42.5116V41.4831H126.622V42.5116H120.057Z" fill="black"/>
<path d="M132.594 38.4525H133.656C133.047 39.4216 132.598 40.3815 132.311 41.3323C132.024 42.2831 131.881 43.2567 131.881 44.2532C131.881 45.2405 132.024 46.2096 132.311 47.1603C132.598 48.1111 133.047 49.0756 133.656 50.0538H132.594C131.921 49.103 131.419 48.1523 131.087 47.2015C130.764 46.2507 130.603 45.2679 130.603 44.2532C130.603 43.2384 130.764 42.2556 131.087 41.3049C131.419 40.3541 131.921 39.4033 132.594 38.4525Z" fill="black"/>
<path d="M141.616 38.4525V48.7373H140.351V38.9599H140.957L134.917 45.8439L134.903 45.3639H143.58V46.4335H133.827V45.4873L140.015 38.4525H141.616Z" fill="black"/>
<path d="M144.383 41.9082C144.437 41.1769 144.666 40.5415 145.069 40.0021C145.482 39.4536 146.024 39.0285 146.697 38.7268C147.378 38.4251 148.15 38.2743 149.011 38.2743C149.845 38.2743 150.571 38.4068 151.19 38.6719C151.818 38.9371 152.306 39.3119 152.656 39.7964C153.006 40.2809 153.181 40.8432 153.181 41.4831C153.181 41.9768 153.064 42.4385 152.831 42.8681C152.607 43.2887 152.226 43.7229 151.688 44.1709C151.158 44.6188 150.437 45.1308 149.522 45.7068L145.849 48.038L145.688 47.6403H153.517V48.7373H144.423V47.75L148.688 45.0074C149.477 44.4954 150.105 44.052 150.571 43.6772C151.046 43.2932 151.387 42.9321 151.593 42.5939C151.8 42.2556 151.903 41.8991 151.903 41.5243C151.903 41.0946 151.786 40.7198 151.553 40.3998C151.329 40.0707 150.997 39.8147 150.558 39.6319C150.127 39.449 149.603 39.3576 148.984 39.3576C148.266 39.3576 147.665 39.4719 147.181 39.7004C146.706 39.9198 146.343 40.2215 146.092 40.6055C145.849 40.9895 145.706 41.4237 145.661 41.9082H144.383Z" fill="black"/>
<path d="M159.982 48.9156C158.906 48.9156 157.978 48.6962 157.198 48.2574C156.426 47.8094 155.834 47.1878 155.422 46.3924C155.009 45.597 154.803 44.6646 154.803 43.5949C154.803 42.5253 155.009 41.5928 155.422 40.7975C155.834 40.0021 156.426 39.385 157.198 38.9462C157.978 38.4982 158.906 38.2743 159.982 38.2743C161.058 38.2743 161.982 38.4982 162.753 38.9462C163.525 39.385 164.117 40.0021 164.529 40.7975C164.942 41.5928 165.148 42.5253 165.148 43.5949C165.148 44.6554 164.942 45.5879 164.529 46.3924C164.117 47.1878 163.525 47.8094 162.753 48.2574C161.982 48.6962 161.058 48.9156 159.982 48.9156ZM159.982 47.8186C161.202 47.8186 162.153 47.4483 162.834 46.7078C163.516 45.9673 163.856 44.9297 163.856 43.5949C163.856 42.2602 163.516 41.2226 162.834 40.4821C162.153 39.7324 161.202 39.3576 159.982 39.3576C158.754 39.3576 157.798 39.7324 157.117 40.4821C156.435 41.2226 156.095 42.2602 156.095 43.5949C156.095 44.9297 156.435 45.9673 157.117 46.7078C157.798 47.4483 158.754 47.8186 159.982 47.8186Z" fill="black"/>
<path d="M170.251 41.0169H171.488L171.919 43.6361V48.7373H170.681V43.4578L170.251 41.0169ZM174.811 40.8386C175.465 40.8386 176.021 40.9849 176.479 41.2774C176.936 41.5608 177.286 41.9768 177.528 42.5253C177.77 43.0647 177.891 43.7184 177.891 44.4863V48.7373H176.654V44.7057C176.654 43.7823 176.465 43.0876 176.089 42.6213C175.712 42.1459 175.165 41.9082 174.448 41.9082C173.936 41.9082 173.488 42.0362 173.102 42.2922C172.726 42.5482 172.434 42.9047 172.228 43.3618C172.022 43.8098 171.919 44.3354 171.919 44.9388L171.421 44.5823C171.484 43.8143 171.663 43.1515 171.959 42.5939C172.264 42.0362 172.658 41.6065 173.143 41.3049C173.636 40.994 174.192 40.8386 174.811 40.8386ZM180.77 40.8386C181.425 40.8386 181.981 40.9849 182.438 41.2774C182.905 41.5608 183.259 41.9768 183.501 42.5253C183.743 43.0647 183.864 43.7184 183.864 44.4863V48.7373H182.627V44.7057C182.627 43.7823 182.438 43.0876 182.062 42.6213C181.685 42.1459 181.138 41.9082 180.42 41.9082C179.909 41.9082 179.461 42.0362 179.075 42.2922C178.698 42.5482 178.407 42.9047 178.201 43.3618C177.994 43.8098 177.891 44.3354 177.891 44.9388L177.394 44.5823C177.456 43.8143 177.636 43.1515 177.932 42.5939C178.237 42.0362 178.631 41.6065 179.115 41.3049C179.609 40.994 180.16 40.8386 180.77 40.8386Z" fill="black"/>
<path d="M185.41 41.0169H186.648L187.079 43.6361V48.7373H185.841V43.4578L185.41 41.0169ZM189.971 40.8386C190.625 40.8386 191.181 40.9849 191.639 41.2774C192.096 41.5608 192.446 41.9768 192.688 42.5253C192.93 43.0647 193.051 43.7184 193.051 44.4863V48.7373H191.814V44.7057C191.814 43.7823 191.625 43.0876 191.249 42.6213C190.872 42.1459 190.325 41.9082 189.608 41.9082C189.096 41.9082 188.648 42.0362 188.262 42.2922C187.886 42.5482 187.594 42.9047 187.388 43.3618C187.182 43.8098 187.079 44.3354 187.079 44.9388L186.581 44.5823C186.644 43.8143 186.823 43.1515 187.119 42.5939C187.424 42.0362 187.818 41.6065 188.303 41.3049C188.796 40.994 189.352 40.8386 189.971 40.8386ZM195.93 40.8386C196.585 40.8386 197.141 40.9849 197.598 41.2774C198.064 41.5608 198.419 41.9768 198.661 42.5253C198.903 43.0647 199.024 43.7184 199.024 44.4863V48.7373H197.786V44.7057C197.786 43.7823 197.598 43.0876 197.221 42.6213C196.845 42.1459 196.298 41.9082 195.58 41.9082C195.069 41.9082 194.621 42.0362 194.235 42.2922C193.858 42.5482 193.567 42.9047 193.361 43.3618C193.154 43.8098 193.051 44.3354 193.051 44.9388L192.554 44.5823C192.616 43.8143 192.796 43.1515 193.092 42.5939C193.397 42.0362 193.791 41.6065 194.275 41.3049C194.769 40.994 195.32 40.8386 195.93 40.8386Z" fill="black"/>
<path d="M201.023 38.4525C201.686 39.4033 202.179 40.3541 202.502 41.3049C202.834 42.2556 203 43.2384 203 44.2532C203 45.2679 202.834 46.2507 202.502 47.2015C202.179 48.1523 201.686 49.103 201.023 50.0538H199.96C200.561 49.0756 201.005 48.1111 201.292 47.1603C201.579 46.2096 201.722 45.2405 201.722 44.2532C201.722 43.2567 201.579 42.2831 201.292 41.3323C201.005 40.3815 200.561 39.4216 199.96 38.4525H201.023Z" fill="black"/>
<path d="M226.41 9H30.829V16H226.41V9Z" fill="url(#paint4_linear_215_112)"/>
<path d="M58.5166 -1.51115e-05L198.722 -2.82805e-06L226.41 9L30.8289 8.99998L58.5166 -1.51115e-05Z" fill="#B9B7B7"/>
<defs>
<linearGradient id="paint0_linear_215_112" x1="129" y1="1" x2="129" y2="481" gradientUnits="userSpaceOnUse">
<stop stop-color="#FFFFFE"/>
<stop offset="0.161458" stop-color="#DCD9D5"/>
<stop offset="0.333333" stop-color="#F2F2F2"/>
<stop offset="0.723958" stop-color="#EDEBE7"/>
<stop offset="0.84375" stop-color="#FEFDFC"/>
<stop offset="1" stop-color="#E4E1D9"/>
</linearGradient>
<linearGradient id="paint1_linear_215_112" x1="130.403" y1="119.33" x2="130.403" y2="125.33" gradientUnits="userSpaceOnUse">
<stop offset="0.09375" stop-color="#ADADAD"/>
<stop offset="0.348958" stop-color="white"/>
<stop offset="0.65625" stop-color="#D5D4D4"/>
<stop offset="1" stop-color="#A6A5A5"/>
</linearGradient>
<linearGradient id="paint2_linear_215_112" x1="52.436" y1="118.33" x2="52.436" y2="126.33" gradientUnits="userSpaceOnUse">
<stop stop-color="#F2E1C5"/>
<stop offset="0.06" stop-color="#EEDDC2"/>
<stop offset="0.11" stop-color="#E1D1B8"/>
<stop offset="0.17" stop-color="#CDBEA7"/>
<stop offset="0.23" stop-color="#B0A390"/>
<stop offset="0.24" stop-color="#AA9D8B"/>
<stop offset="1" stop-color="#E4E1D9"/>
</linearGradient>
<linearGradient id="paint3_linear_215_112" x1="207.287" y1="118.33" x2="207.287" y2="126.33" gradientUnits="userSpaceOnUse">
<stop stop-color="#F2E1C5"/>
<stop offset="0.06" stop-color="#EEDDC2"/>
<stop offset="0.11" stop-color="#E1D1B8"/>
<stop offset="0.17" stop-color="#CDBEA7"/>
<stop offset="0.23" stop-color="#B0A390"/>
<stop offset="0.24" stop-color="#AA9D8B"/>
<stop offset="1" stop-color="#E4E1D9"/>
</linearGradient>
<linearGradient id="paint4_linear_215_112" x1="128.619" y1="9" x2="128.619" y2="16" gradientUnits="userSpaceOnUse">
<stop offset="0.161458" stop-color="#DCD9D5"/>
<stop offset="0.333333" stop-color="#F2F2F2"/>
<stop offset="0.723958" stop-color="#EDEBE7"/>
<stop offset="0.84375" stop-color="#FEFDFC"/>
<stop offset="1" stop-color="#E4E1D9"/>
</linearGradient>
</defs>
</svg>
