<svg width="216" height="5" viewBox="0 0 216 5" fill="none" xmlns="http://www.w3.org/2000/svg">
<path d="M215.673 2.78835C215.771 2.69072 215.771 2.53243 215.673 2.4348L214.082 0.843805C213.985 0.746174 213.826 0.746174 213.729 0.843805C213.631 0.941436 213.631 1.09973 213.729 1.19736L215.143 2.61157L213.729 4.02579C213.631 4.12342 213.631 4.28171 213.729 4.37934C213.826 4.47697 213.985 4.47697 214.082 4.37934L215.673 2.78835ZM0.441925 2.4348C0.344284 2.53243 0.344284 2.69072 0.441925 2.78835L2.03291 4.37934C2.13054 4.47697 2.28883 4.47697 2.38646 4.37934C2.4841 4.28171 2.4841 4.12342 2.38646 4.02579L0.972244 2.61157L2.38646 1.19736C2.4841 1.09973 2.4841 0.941436 2.38646 0.843805C2.28883 0.746174 2.13054 0.746174 2.03291 0.843805L0.441925 2.4348ZM215.496 2.36157L0.618698 2.36157V2.86157L215.496 2.86157V2.36157Z" fill="#303030"/>
</svg>
