<svg width="24" height="93" viewBox="0 0 24 93" fill="none" xmlns="http://www.w3.org/2000/svg">
<path d="M1.22 0H22.448L19.032 61.366H4.636L1.22 0ZM11.834 92.598C8.33667 92.598 5.49 91.5813 3.294 89.548C1.098 87.4333 0 84.7493 0 81.496C0 78.1613 1.098 75.4773 3.294 73.444C5.49 71.3293 8.33667 70.272 11.834 70.272C15.3313 70.272 18.178 71.3293 20.374 73.444C22.57 75.4773 23.668 78.1613 23.668 81.496C23.668 84.7493 22.57 87.4333 20.374 89.548C18.178 91.5813 15.3313 92.598 11.834 92.598Z" fill="#303030"/>
</svg>
